<svg width="20" height="20" fill="none" xmlns="http://www.w3.org/2000/svg"><path d="M16.667 6.667H11.99l.936-2.806a1.673 1.673 0 00-.229-1.502 1.674 1.674 0 00-1.353-.692H10a.836.836 0 00-.64.3l-3.917 4.7h-2.11c-.919 0-1.666.747-1.666 1.666v7.5c0 .92.747 1.667 1.667 1.667h11.089a1.675 1.675 0 001.56-1.082l2.298-6.125a.837.837 0 00.053-.293V8.333c0-.919-.748-1.666-1.667-1.666zM3.334 8.333H5v7.5H3.334v-7.5zM16.667 9.85l-2.244 5.984H6.667V7.802l3.723-4.469h.955l-1.301 3.903a.83.83 0 00.79 1.097h5.833V9.85z" fill="#000"/></svg>