<svg width="20" height="20" fill="none" xmlns="http://www.w3.org/2000/svg"><path d="M16.667 13.333H11.99l.936 2.806a1.673 1.673 0 01-.229 1.502c-.313.433-.82.692-1.353.692H10a.836.836 0 01-.64-.3l-3.917-4.7h-2.11a1.667 1.667 0 01-1.666-1.666v-7.5c0-.92.747-1.667 1.667-1.667h11.089a1.675 1.675 0 011.56 1.082l2.298 6.125a.837.837 0 01.053.293v1.667c0 .919-.748 1.666-1.667 1.666zM3.334 11.667H5v-7.5H3.334v7.5zm13.333-1.516l-2.244-5.984H6.667v8.031l3.723 4.469h.955l-1.301-3.903a.83.83 0 01.79-1.097h5.833V10.15z" fill="#000"/></svg>