<svg width="20" height="20" viewBox="0 0 20 20" fill="none" xmlns="http://www.w3.org/2000/svg">
<path d="M16.667 13.3333H11.9903L12.9262 16.1391C13.0945 16.6458 13.0095 17.2074 12.697 17.6408C12.3845 18.0741 11.8778 18.3333 11.3437 18.3333H10.0003C9.75283 18.3333 9.51866 18.2233 9.35949 18.0333L5.44283 13.3333H3.33366C2.41449 13.3333 1.66699 12.5858 1.66699 11.6666V4.16659C1.66699 3.24742 2.41449 2.49992 3.33366 2.49992H14.4228C14.7619 2.50104 15.0926 2.60505 15.3713 2.79819C15.65 2.99133 15.8636 3.2645 15.9837 3.58159L18.2812 9.70742C18.316 9.80099 18.3338 9.90006 18.3337 9.99992V11.6666C18.3337 12.5858 17.5862 13.3333 16.667 13.3333ZM3.33366 11.6666H5.00033V4.16659H3.33366V11.6666ZM16.667 10.1508L14.4228 4.16659H6.66699V12.1983L10.3903 16.6666H11.3453L10.0437 12.7641C10.0014 12.6388 9.98962 12.5053 10.0093 12.3746C10.0289 12.2438 10.0795 12.1197 10.1567 12.0124C10.2339 11.9051 10.3356 11.8178 10.4534 11.7576C10.5711 11.6975 10.7015 11.6663 10.8337 11.6666H16.667V10.1508Z" fill="black"/>
</svg>
