<svg width="24" height="24" viewBox="0 0 24 24" fill="none" xmlns="http://www.w3.org/2000/svg">
<mask id="mask0" mask-type="alpha" maskUnits="userSpaceOnUse" x="0" y="0" width="24" height="24">
<rect width="24" height="24" fill="#C4C4C4"/>
</mask>
<g mask="url(#mask0)">
<path d="M8.81833 9.27818C8.98571 11.6316 9.90577 13.8835 11.4236 15.6943L13.5655 14.8245C13.8284 14.7178 14.1282 14.7718 14.3331 14.9552C14.9927 15.5323 15.7631 16.019 16.6118 16.3775C16.9883 16.5366 17.1662 16.9747 17.0071 17.3512L15.998 19.7399C15.839 20.1164 15.4009 20.2943 15.0244 20.1353C8.59726 17.4203 5.5888 10.0111 8.3038 3.58396C8.46283 3.2075 8.90095 3.0296 9.27741 3.18863L11.6731 4.20061C12.0495 4.35964 12.2274 4.79776 12.0684 5.17422C11.707 6.02981 11.4969 6.909 11.4263 7.78258C11.4004 8.05395 11.2329 8.29776 10.9603 8.40846L8.81833 9.27818Z" fill="#005DFF"/>
</g>
</svg>
