<svg width="20" height="20" fill="none" xmlns="http://www.w3.org/2000/svg"><path d="M18.047 5.547h-4.258V3.125A3.129 3.129 0 0010.664 0H3.125A3.128 3.128 0 000 3.125v13.75A3.128 3.128 0 003.125 20h7.54a3.129 3.129 0 003.124-3.125.781.781 0 00-1.562 0c0 .861-.701 1.563-1.563 1.563H3.125a1.564 1.564 0 01-1.563-1.563V3.125c0-.862.701-1.563 1.563-1.563h7.54c.86 0 1.562.701 1.562 1.563v2.422h-1.993A1.955 1.955 0 008.281 7.5v5.117c0 1.077.876 1.953 1.953 1.953h7.813A1.955 1.955 0 0020 12.617V7.5a1.955 1.955 0 00-1.953-1.953zm-7.813 1.562h7.813c.215 0 .39.176.39.391v.977H9.845V7.5a.39.39 0 01.39-.39zm7.813 5.899h-7.813a.391.391 0 01-.39-.39v-2.579h8.594v2.578a.39.39 0 01-.391.39zM6.875 15.664a.781.781 0 110 1.562.781.781 0 010-1.562zm.781-11.328H6.094a.781.781 0 110-1.563h1.562a.781.781 0 110 1.563z" fill="#005DFF"/></svg>