<svg width="20" height="20" viewBox="0 0 20 20" fill="none" xmlns="http://www.w3.org/2000/svg">
<path fill-rule="evenodd" clip-rule="evenodd" d="M10 9.5C7.791 9.5 6 11.291 6 13.5C6 15.709 7.791 17.5 10 17.5C12.209 17.5 14 15.709 14 13.5C14 11.291 12.209 9.5 10 9.5ZM7 6V5C7 4.448 7.448 4 8 4H12C12.552 4 13 4.448 13 5V6H7ZM13 2H7C5.895 2 5 2.895 5 4V6H2C0.895 6 0 6.895 0 8V16C0 17.105 0.895 18 2 18H3C3.552 18 4 17.552 4 17C4 16.448 3.552 16 3 16C2.448 16 2 15.552 2 15V9C2 8.448 2.448 8 3 8H17C17.552 8 18 8.448 18 9V15C18 15.552 17.552 16 17 16C16.448 16 16 16.448 16 17C16 17.552 16.448 18 17 18H18C19.105 18 20 17.105 20 16V6H19V5C19 4.448 18.552 4 18 4C17.448 4 17 4.448 17 5V6H15V4C15 2.895 14.105 2 13 2ZM10 11.5C11.103 11.5 12 12.397 12 13.5C12 14.603 11.103 15.5 10 15.5C8.897 15.5 8 14.603 8 13.5C8 12.397 8.897 11.5 10 11.5Z" fill="#005DFF"/>
</svg>
