<svg width="20" height="20" viewBox="0 0 20 20" fill="none" xmlns="http://www.w3.org/2000/svg">
<path d="M15 14V10C15 7.243 12.757 5 10 5C7.243 5 5 7.243 5 10V14C3.346 14 2 15.346 2 17C2 18.654 3.346 20 5 20H15C16.654 20 18 18.654 18 17C18 15.346 16.654 14 15 14ZM7 10C7 8.346 8.346 7 10 7C11.654 7 13 8.346 13 10V14H7V10ZM15 18H5C4.449 18 4 17.552 4 17C4 16.448 4.449 16 5 16H15C15.552 16 16 16.448 16 17C16 17.552 15.552 18 15 18Z" fill="#005DFF"/>
<path d="M11 0H9V3H11V0Z" fill="#005DFF"/>
<path d="M17.779 3.63562L16.3647 2.22144L14.2434 4.34272L15.6576 5.75691L17.779 3.63562Z" fill="#005DFF"/>
<path d="M20 9H17V11H20V9Z" fill="#005DFF"/>
<path d="M3 9H0V11H3V9Z" fill="#005DFF"/>
<path d="M5.75704 4.34347L3.63574 2.22217L2.22154 3.63637L4.34284 5.75767L5.75704 4.34347Z" fill="#005DFF"/>
<path d="M10 8V9.998L12 10C12 8.897 11.104 8 10 8Z" fill="#005DFF"/>
</svg>
