<svg width="23" height="23" fill="none" xmlns="http://www.w3.org/2000/svg"><path fill-rule="evenodd" clip-rule="evenodd" d="M0 11.5C0 5.149 5.149 0 11.5 0S23 5.149 23 11.5 17.851 23 11.5 23 0 17.851 0 11.5z" fill="#005DFF"/><path d="M13.633 11.897l-3.47 3.46a.566.566 0 01-.799 0 .562.562 0 010-.797l3.07-3.061-3.07-3.062a.563.563 0 010-.797.567.567 0 01.8 0l3.47 3.46a.561.561 0 010 .797z" fill="url(#paint0_linear)"/><defs><linearGradient id="paint0_linear" x1="13.799" y1="15.522" x2="1.948" y2="14.501" gradientUnits="userSpaceOnUse"><stop stop-color="#fff"/></linearGradient></defs></svg>