<svg width="24" height="24" fill="none" xmlns="http://www.w3.org/2000/svg"><mask id="mask0" maskUnits="userSpaceOnUse" x="0" y="0" width="24" height="24"><path fill="#C4C4C4" d="M0 0h24v24H0z"/></mask><g mask="url(#mask0)"><path d="M8.818 9.278a11.256 11.256 0 002.606 6.416l2.142-.87a.739.739 0 01.767.131 8.475 8.475 0 002.279 1.423.745.745 0 01.395.973l-1.009 2.389a.745.745 0 01-.974.395C8.597 17.42 5.59 10.011 8.304 3.584a.745.745 0 01.973-.395L11.673 4.2a.745.745 0 01.395.973 8.442 8.442 0 00-.642 2.609.746.746 0 01-.466.625l-2.142.87z" fill="#005DFF"/></g></svg>