<svg width="20" height="20" fill="none" xmlns="http://www.w3.org/2000/svg"><path d="M15 14v-4c0-2.757-2.243-5-5-5s-5 2.243-5 5v4c-1.654 0-3 1.346-3 3s1.346 3 3 3h10c1.654 0 3-1.346 3-3s-1.346-3-3-3zm-8-4c0-1.654 1.346-3 3-3s3 1.346 3 3v4H7v-4zm8 8H5a1.001 1.001 0 010-2h10a1 1 0 010 2zM11 0H9v3h2V0zm6.779 3.636L16.365 2.22l-2.122 2.122 1.415 1.414 2.121-2.121zM20 9h-3v2h3V9zM3 9H0v2h3V9zm2.757-4.657l-2.121-2.12-1.414 1.413 2.12 2.122 1.415-1.415z" fill="#005DFF"/><path d="M10 8v1.998L12 10c0-1.103-.896-2-2-2z" fill="#005DFF"/></svg>