<svg width="24" height="24" viewBox="0 0 24 24" fill="none" xmlns="http://www.w3.org/2000/svg">
<path d="M8.70716 22.44C8.55368 22.3752 8.42614 22.2612 8.34465 22.1159C8.26317 21.9706 8.23239 21.8023 8.25716 21.6375L9.62216 12.75H5.99966C5.88482 12.7531 5.7708 12.7298 5.6664 12.6818C5.56201 12.6339 5.47002 12.5626 5.39755 12.4734C5.32508 12.3843 5.27405 12.2797 5.24841 12.1677C5.22277 12.0557 5.2232 11.9393 5.24966 11.8275L7.49966 2.07752C7.53926 1.90973 7.63545 1.76069 7.77205 1.65551C7.90865 1.55033 8.07732 1.49542 8.24966 1.50002H15.7497C15.8617 1.49964 15.9724 1.52437 16.0737 1.57239C16.1749 1.62041 16.2641 1.69051 16.3347 1.77752C16.4062 1.86552 16.4569 1.96861 16.4829 2.07904C16.5089 2.18946 16.5095 2.30434 16.4847 2.41502L15.1872 8.25002H18.7497C18.8902 8.24974 19.028 8.28897 19.1474 8.36323C19.2667 8.43749 19.3628 8.5438 19.4247 8.67002C19.4784 8.79118 19.4991 8.92441 19.4846 9.05615C19.4701 9.1879 19.421 9.31345 19.3422 9.42002L9.59216 22.17C9.52627 22.2677 9.43828 22.3485 9.33534 22.4058C9.2324 22.4632 9.1174 22.4954 8.99966 22.5C8.89931 22.4981 8.80015 22.4778 8.70716 22.44ZM13.3122 9.75002L14.8122 3.00002H8.84966L6.94466 11.25H11.3772L10.1847 18.96L17.2497 9.75002H13.3122Z" fill="#005DFF"/>
</svg>
