<svg width="30" height="30" fill="none" xmlns="http://www.w3.org/2000/svg"><path fill-rule="evenodd" clip-rule="evenodd" d="M11.248 3.667h1.666a.41.41 0 01.417.404V25.93a.41.41 0 01-.417.404h-1.666a.41.41 0 01-.417-.404V4.07a.41.41 0 01.417-.404zM24.58 7.714h-1.667a.41.41 0 00-.417.405v17.81a.41.41 0 00.417.405h1.667a.41.41 0 00.417-.404V8.12a.41.41 0 00-.417-.406zm-7.498 5.667h1.667a.41.41 0 01.417.405V25.93a.41.41 0 01-.417.404h-1.667a.41.41 0 01-.416-.404V13.786a.41.41 0 01.416-.405zM5.417 18.24h1.667a.41.41 0 01.416.405v7.286a.41.41 0 01-.416.405H5.417A.41.41 0 015 25.93v-7.286a.41.41 0 01.417-.405z" fill="#005DFF"/></svg>