<svg width="26" height="26" fill="none" xmlns="http://www.w3.org/2000/svg"><path d="M21.116 12.28a8.822 8.822 0 00-2.105-2.924l-.739-.678a.206.206 0 00-.33.083l-.33.948c-.206.594-.584 1.2-1.12 1.797a.159.159 0 01-.104.051.14.14 0 01-.11-.038.15.15 0 01-.05-.122c.094-1.528-.363-3.252-1.363-5.129-.828-1.559-1.978-2.775-3.415-3.623l-1.05-.617a.203.203 0 00-.305.185l.056 1.219c.038.833-.058 1.57-.287 2.181a7.24 7.24 0 01-1.193 2.07 7.506 7.506 0 01-1.206 1.17 8.952 8.952 0 00-2.547 3.085 8.83 8.83 0 00-.216 7.37A8.922 8.922 0 009.46 24.02a8.934 8.934 0 003.476.697 8.978 8.978 0 003.476-.693 8.851 8.851 0 002.842-1.897 8.79 8.79 0 002.62-6.269 8.726 8.726 0 00-.76-3.577z" fill="#FF5252"/></svg>