<svg width="26" height="26" viewBox="0 0 26 26" fill="none" xmlns="http://www.w3.org/2000/svg">
<path d="M21.1158 12.2806C20.6229 11.1712 19.9063 10.1754 19.0109 9.35563L18.2721 8.6777C18.247 8.65532 18.2168 8.63943 18.1841 8.63144C18.1515 8.62344 18.1173 8.62359 18.0848 8.63186C18.0522 8.64014 18.0221 8.65628 17.9972 8.67888C17.9723 8.70149 17.9534 8.72985 17.942 8.76149L17.6119 9.70856C17.4062 10.3027 17.0279 10.9095 16.4922 11.5062C16.4566 11.5443 16.416 11.5545 16.3881 11.557C16.3602 11.5595 16.317 11.5545 16.2789 11.5189C16.2434 11.4884 16.2256 11.4427 16.2281 11.397C16.3221 9.86852 15.865 8.1445 14.8646 6.26813C14.0369 4.70915 12.8867 3.49294 11.4496 2.64489L10.401 2.0279C10.2639 1.94665 10.0887 2.05329 10.0963 2.21325L10.1521 3.432C10.1902 4.26481 10.0938 5.00114 9.86523 5.61306C9.58594 6.36208 9.18477 7.05778 8.67188 7.68239C8.31494 8.11648 7.91039 8.50911 7.46582 8.8529C6.39511 9.67598 5.52449 10.7306 4.91914 11.9379C4.31529 13.1556 4.00074 14.4964 4 15.8556C4 17.0541 4.23613 18.2144 4.70332 19.3088C5.15443 20.3624 5.80542 21.3186 6.62031 22.1246C7.44297 22.9371 8.39766 23.5769 9.46152 24.0213C10.5635 24.4834 11.7314 24.717 12.9375 24.717C14.1436 24.717 15.3115 24.4834 16.4135 24.0238C17.4747 23.5821 18.4398 22.9378 19.2547 22.1271C20.0773 21.3146 20.7223 20.365 21.1717 19.3113C21.6382 18.22 21.8775 17.045 21.875 15.8582C21.875 14.6191 21.6211 13.4156 21.1158 12.2806Z" fill="#FF5252"/>
</svg>
