<svg width="30" height="30" viewBox="0 0 30 30" fill="none" xmlns="http://www.w3.org/2000/svg">
<path d="M15.2493 19.9018H22.9372C24.3373 19.9018 25.4374 18.856 25.4374 17.605V7.76351C25.4374 6.51243 24.3373 5.46668 22.9372 5.46668H6.06119C4.6611 5.46668 3.56104 6.51243 3.56104 7.76351V17.605C3.56104 18.856 4.6611 19.9018 6.06119 19.9018H8.56135V24.5336H8.56604L8.56916 24.5321L15.2508 19.9018H15.2493ZM9.49891 25.7113C9.16626 25.9415 8.75064 26.0399 8.3415 25.9853C7.93236 25.9307 7.56241 25.7275 7.31127 25.4195C7.10995 25.1705 7.00076 24.8667 7.00031 24.5541V21.3685H6.06275C3.81886 21.3685 2 19.6833 2 17.605V7.76351C1.99844 5.68522 3.8173 4 6.06119 4H22.9372C25.1811 4 27 5.68522 27 7.76351V17.605C27 19.6847 25.1811 21.3685 22.9372 21.3685H15.7649L9.49734 25.7113H9.49891Z" fill="#005DFF"/>
</svg>
