<svg width="30" height="30" fill="none" xmlns="http://www.w3.org/2000/svg"><path d="M15.25 19.902h7.687c1.4 0 2.5-1.046 2.5-2.297V7.764c0-1.252-1.1-2.297-2.5-2.297H6.061c-1.4 0-2.5 1.045-2.5 2.297v9.841c0 1.251 1.1 2.297 2.5 2.297h2.5v4.632h.005l.003-.002 6.682-4.63h-.002zm-5.751 5.81c-.333.23-.748.328-1.158.273a1.6 1.6 0 01-1.03-.566 1.378 1.378 0 01-.31-.865V21.37h-.938C3.819 21.369 2 19.683 2 17.605V7.764C1.998 5.685 3.817 4 6.061 4h16.876C25.181 4 27 5.685 27 7.764v9.841c0 2.08-1.819 3.764-4.063 3.764h-7.172L9.497 25.71H9.5z" fill="#005DFF"/></svg>