<svg width="64" height="64" viewBox="0 0 64 64" fill="none" xmlns="http://www.w3.org/2000/svg">
<g clip-path="url(#clip0)">
<path d="M56.966 0.246826H7.03379C3.15094 0.251503 0.00409214 3.39777 0 7.28062V43.8321C0.00409214 47.715 3.15094 50.8618 7.03379 50.8659H30.9523V61.6054H19.6346C19.0559 61.6054 18.587 62.0748 18.587 62.653C18.587 63.2317 19.0559 63.7006 19.6346 63.7006H45.0813C45.66 63.7006 46.1288 63.2317 46.1288 62.653C46.1288 62.0748 45.66 61.6054 45.0813 61.6054H33.0475V50.8659H56.966C60.8488 50.8618 63.9957 47.715 63.9998 43.8321V7.28062C63.9957 3.39777 60.8488 0.251503 56.966 0.246826ZM7.03379 2.342H56.966C59.6925 2.3455 61.9017 4.55467 61.9046 7.28062V37.4987H2.09517V7.28062C2.09809 4.55467 4.30785 2.3455 7.03379 2.342ZM56.966 48.7707H7.03379C4.30726 48.7672 2.09809 46.5581 2.09517 43.8321V39.5938H61.9046V43.8321C61.9017 46.5586 59.6925 48.7678 56.966 48.7707Z" fill="#FFCB45"/>
<path d="M16.9108 25.9921C20.7726 25.9921 24.1188 23.3153 24.967 19.547C25.8147 15.7794 23.9382 11.9269 20.4487 10.2719C16.9593 8.61754 12.7889 9.60199 10.4078 12.643C7.8894 15.86 8.10219 20.435 10.9076 23.4048C12.4697 25.0527 14.6397 25.9881 16.9108 25.9921ZM12.0569 13.9361C13.9124 11.5645 17.2095 10.8805 19.8548 12.3186C22.5001 13.7567 23.7195 16.8959 22.738 19.7423C21.7571 22.5892 18.8627 24.3103 15.893 23.8128C12.9233 23.3153 10.7475 20.7449 10.7475 17.7342C10.7451 16.3569 11.2064 15.0188 12.0569 13.9361Z" fill="#FFCB45"/>
<path d="M14.9659 20.0539C15.3353 20.4865 15.9825 20.5449 16.4238 20.186L20.454 16.907C20.8989 16.5411 20.9644 15.884 20.6007 15.4374C20.2371 14.9908 19.5806 14.9212 19.1317 15.2819L15.8948 17.916L14.8285 16.6674C14.4532 16.2272 13.7914 16.1751 13.3518 16.551C12.9116 16.9263 12.8596 17.5881 13.2355 18.0277L14.9659 20.0539Z" fill="#FFCB45"/>
<path d="M9.69993 29.8785H23.9172C24.4959 29.8785 24.9648 29.4097 24.9648 28.8309C24.9648 28.2528 24.4959 27.7833 23.9172 27.7833H9.69993C9.12177 27.7833 8.65234 28.2528 8.65234 28.8309C8.65234 29.4097 9.12177 29.8785 9.69993 29.8785Z" fill="#FFCB45"/>
<path d="M9.69993 34.3682H18.0806C18.6594 34.3682 19.1282 33.8993 19.1282 33.3206C19.1282 32.7424 18.6594 32.273 18.0806 32.273H9.69993C9.12177 32.273 8.65234 32.7424 8.65234 33.3206C8.65234 33.8993 9.12177 34.3682 9.69993 34.3682Z" fill="#FFCB45"/>
<path d="M37.0052 33.0926H52.5501C54.6207 33.0897 56.2985 31.4119 56.3008 29.3413C56.3008 29.2799 56.2955 29.2191 56.285 29.1583L53.7625 14.9171C53.5784 13.7526 52.5729 12.8968 51.3937 12.9015H50.293V11.8936C50.293 8.84791 47.8237 6.3786 44.7774 6.3786C41.7316 6.3786 39.2623 8.84791 39.2623 11.8936V12.9015H38.161C36.9824 12.8968 35.9763 13.7526 35.7928 14.9171L33.2703 29.1583C33.2598 29.2191 33.2539 29.2799 33.2539 29.3413C33.2568 31.4119 34.9346 33.0897 37.0052 33.0926ZM41.3575 11.8936C41.3575 10.0048 42.8885 8.47377 44.7774 8.47377C46.6667 8.47377 48.1978 10.0048 48.1978 11.8936V12.9015H41.3575V11.8936ZM37.8576 15.2737C37.8587 15.2673 37.8599 15.2603 37.8605 15.2533C37.8833 15.1054 38.0113 14.996 38.161 14.9966H39.2623V16.8971C39.2623 17.4759 39.7312 17.9447 40.3099 17.9447C40.8887 17.9447 41.3575 17.4759 41.3575 16.8971V14.9966H48.1978V16.8971C48.1978 17.4759 48.6666 17.9447 49.2454 17.9447C49.8241 17.9447 50.293 17.4759 50.293 16.8971V14.9966H51.3937C51.544 14.996 51.6714 15.1054 51.6942 15.2533C51.6954 15.2603 51.6966 15.2673 51.6977 15.2737L54.2039 29.422C54.1594 30.3035 53.4328 30.9963 52.5501 30.9974H37.0052C36.1225 30.9963 35.3953 30.3035 35.3514 29.422L37.8576 15.2737Z" fill="#FFCB45"/>
</g>
<defs>
<clipPath id="clip0">
<rect width="64" height="64" fill="white"/>
</clipPath>
</defs>
</svg>
