<svg width="64" height="64" fill="none" xmlns="http://www.w3.org/2000/svg"><g clip-path="url(#clip0)" fill="#FFCB45"><path d="M56.966.247H7.034A7.042 7.042 0 000 7.28v36.551a7.041 7.041 0 007.034 7.034h23.918v10.74H19.635a1.048 1.048 0 000 2.095H45.08a1.047 1.047 0 100-2.096H33.047v-10.74h23.919A7.041 7.041 0 0064 43.833V7.281A7.042 7.042 0 0056.966.247zM7.034 2.342h49.932a4.944 4.944 0 014.939 4.939v30.218H2.095V7.28a4.945 4.945 0 014.939-4.939zm49.932 46.429H7.034a4.944 4.944 0 01-4.939-4.939v-4.238h59.81v4.238a4.944 4.944 0 01-4.939 4.939z"/><path d="M16.91 25.992a8.258 8.258 0 10-6.002-2.587 8.292 8.292 0 006.003 2.587zm-4.853-12.056a6.163 6.163 0 119.709 7.595 6.163 6.163 0 01-9.71-7.595z"/><path d="M14.966 20.054c.37.433 1.017.49 1.458.132l4.03-3.279a1.047 1.047 0 00-1.322-1.625l-3.237 2.634-1.066-1.249a1.047 1.047 0 10-1.594 1.36l1.73 2.027zM9.7 29.878h14.217a1.047 1.047 0 100-2.095H9.7a1.048 1.048 0 000 2.095zm0 4.49h8.38a1.047 1.047 0 100-2.095H9.7a1.048 1.048 0 000 2.095zm27.305-1.275H52.55a3.756 3.756 0 003.75-3.752 1.13 1.13 0 00-.015-.183l-2.522-14.24a2.388 2.388 0 00-2.37-2.016h-1.1v-1.008a5.515 5.515 0 00-11.03 0v1.008H38.16a2.388 2.388 0 00-2.368 2.015L33.27 29.158c-.01.061-.016.122-.016.183a3.757 3.757 0 003.751 3.752zm4.352-21.2a3.42 3.42 0 116.84 0v1.008h-6.84v-1.007zm-3.5 3.38a.303.303 0 01.303-.277h1.102v1.901a1.047 1.047 0 102.096 0v-1.9h6.84v1.9a1.047 1.047 0 102.095 0v-1.9h1.1a.303.303 0 01.305.277l2.506 14.148a1.658 1.658 0 01-1.654 1.575H37.005a1.658 1.658 0 01-1.654-1.575l2.507-14.148z"/></g><defs><clipPath id="clip0"><path fill="#fff" d="M0 0h64v64H0z"/></clipPath></defs></svg>