<svg width="24" height="24" fill="none" xmlns="http://www.w3.org/2000/svg"><g clip-path="url(#clip0)"><path fill-rule="evenodd" clip-rule="evenodd" d="M11.47.22a.75.75 0 011.062 0l3 3a.75.75 0 01-.53 1.281.75.75 0 01-.532-.22l-1.719-1.72v5.69a.75.75 0 11-1.5 0V2.56L9.532 4.28A.75.75 0 118.47 3.22l3-3zM12.001 15a.75.75 0 01.75.75v5.69l1.72-1.72a.751.751 0 011.061 1.061l-3 3a.748.748 0 01-1.062 0l-3-3a.75.75 0 111.062-1.062l1.72 1.72V15.75a.75.75 0 01.75-.75zM.221 12.531a.75.75 0 010-1.062l3-3a.75.75 0 011.061 1.062l-1.72 1.72h5.69a.75.75 0 110 1.5h-5.69l1.72 1.718a.751.751 0 01-1.062 1.062l-3-3zm14.78-.53a.75.75 0 01.75-.75h5.69l-1.72-1.72a.75.75 0 011.061-1.062l3 3a.75.75 0 010 1.062l-3 3a.749.749 0 01-1.224-.243.75.75 0 01.162-.819l1.72-1.719h-5.689a.75.75 0 01-.75-.75z" fill="#005DFF"/></g><defs><clipPath id="clip0"><path fill="#fff" d="M0 0h24v24H0z"/></clipPath></defs></svg>