<svg width="24" height="24" viewBox="0 0 24 24" fill="none" xmlns="http://www.w3.org/2000/svg">
<g clip-path="url(#clip0)">
<path fill-rule="evenodd" clip-rule="evenodd" d="M11.4703 0.219425C11.54 0.14958 11.6228 0.094166 11.7139 0.0563563C11.805 0.0185467 11.9027 -0.000915527 12.0013 -0.000915527C12.1 -0.000915527 12.1977 0.0185467 12.2888 0.0563563C12.3799 0.094166 12.4627 0.14958 12.5323 0.219425L15.5323 3.21942C15.6021 3.28916 15.6574 3.37194 15.6951 3.46305C15.7329 3.55416 15.7523 3.65181 15.7523 3.75042C15.7523 3.84904 15.7329 3.94669 15.6951 4.0378C15.6574 4.12891 15.6021 4.21169 15.5323 4.28142C15.4626 4.35116 15.3798 4.40647 15.2887 4.44421C15.1976 4.48195 15.1 4.50137 15.0013 4.50137C14.9027 4.50137 14.8051 4.48195 14.714 4.44421C14.6229 4.40647 14.5401 4.35116 14.4703 4.28142L12.7513 2.56093V8.25042C12.7513 8.44934 12.6723 8.6401 12.5317 8.78075C12.391 8.92141 12.2003 9.00042 12.0013 9.00042C11.8024 9.00042 11.6117 8.92141 11.471 8.78075C11.3304 8.6401 11.2513 8.44934 11.2513 8.25042V2.56093L9.53234 4.28142C9.39151 4.42226 9.2005 4.50137 9.00134 4.50137C8.80218 4.50137 8.61117 4.42226 8.47034 4.28142C8.32951 4.14059 8.25039 3.94959 8.25039 3.75042C8.25039 3.55126 8.32951 3.36025 8.47034 3.21942L11.4703 0.219425ZM12.0013 15.0004C12.2003 15.0004 12.391 15.0794 12.5317 15.2201C12.6723 15.3607 12.7513 15.5515 12.7513 15.7504V21.4399L14.4703 19.7194C14.6112 19.5786 14.8022 19.4995 15.0013 19.4995C15.2005 19.4995 15.3915 19.5786 15.5323 19.7194C15.6732 19.8603 15.7523 20.0513 15.7523 20.2504C15.7523 20.4496 15.6732 20.6406 15.5323 20.7814L12.5323 23.7814C12.4627 23.8513 12.3799 23.9067 12.2888 23.9445C12.1977 23.9823 12.1 24.0018 12.0013 24.0018C11.9027 24.0018 11.805 23.9823 11.7139 23.9445C11.6228 23.9067 11.54 23.8513 11.4703 23.7814L8.47034 20.7814C8.40061 20.7117 8.34529 20.6289 8.30756 20.5378C8.26982 20.4467 8.25039 20.349 8.25039 20.2504C8.25039 20.1518 8.26982 20.0542 8.30756 19.963C8.34529 19.8719 8.40061 19.7892 8.47034 19.7194C8.61117 19.5786 8.80218 19.4995 9.00134 19.4995C9.09996 19.4995 9.19761 19.5189 9.28872 19.5566C9.37982 19.5944 9.46261 19.6497 9.53234 19.7194L11.2513 21.4399V15.7504C11.2513 15.5515 11.3304 15.3607 11.471 15.2201C11.6117 15.0794 11.8024 15.0004 12.0013 15.0004ZM0.220341 12.5314C0.150496 12.4618 0.0950816 12.379 0.0572719 12.2879C0.0194622 12.1968 0 12.0991 0 12.0004C0 11.9018 0.0194622 11.8041 0.0572719 11.713C0.0950816 11.6219 0.150496 11.5391 0.220341 11.4694L3.22034 8.46942C3.36117 8.32859 3.55218 8.24948 3.75134 8.24948C3.9505 8.24948 4.14151 8.32859 4.28234 8.46942C4.42317 8.61025 4.50229 8.80126 4.50229 9.00042C4.50229 9.19959 4.42317 9.39059 4.28234 9.53142L2.56184 11.2504H8.25134C8.45025 11.2504 8.64102 11.3294 8.78167 11.4701C8.92232 11.6107 9.00134 11.8015 9.00134 12.0004C9.00134 12.1993 8.92232 12.3901 8.78167 12.5308C8.64102 12.6714 8.45025 12.7504 8.25134 12.7504H2.56184L4.28234 14.4694C4.42317 14.6103 4.50229 14.8013 4.50229 15.0004C4.50229 15.1996 4.42317 15.3906 4.28234 15.5314C4.14151 15.6723 3.9505 15.7514 3.75134 15.7514C3.55218 15.7514 3.36117 15.6723 3.22034 15.5314L0.220341 12.5314ZM15.0013 12.0004C15.0013 11.8015 15.0804 11.6107 15.221 11.4701C15.3617 11.3294 15.5524 11.2504 15.7513 11.2504H21.4408L19.7203 9.53142C19.6506 9.46169 19.5953 9.37891 19.5576 9.2878C19.5198 9.19669 19.5004 9.09904 19.5004 9.00042C19.5004 8.90181 19.5198 8.80416 19.5576 8.71305C19.5953 8.62194 19.6506 8.53916 19.7203 8.46942C19.8612 8.32859 20.0522 8.24948 20.2513 8.24948C20.35 8.24948 20.4476 8.2689 20.5387 8.30664C20.6298 8.34438 20.7126 8.39969 20.7823 8.46942L23.7823 11.4694C23.8522 11.5391 23.9076 11.6219 23.9454 11.713C23.9832 11.8041 24.0027 11.9018 24.0027 12.0004C24.0027 12.0991 23.9832 12.1968 23.9454 12.2879C23.9076 12.379 23.8522 12.4618 23.7823 12.5314L20.7823 15.5314C20.7126 15.6012 20.6298 15.6565 20.5387 15.6942C20.4476 15.7319 20.35 15.7514 20.2513 15.7514C20.1527 15.7514 20.0551 15.7319 19.964 15.6942C19.8729 15.6565 19.7901 15.6012 19.7203 15.5314C19.6506 15.4617 19.5953 15.3789 19.5576 15.2878C19.5198 15.1967 19.5004 15.099 19.5004 15.0004C19.5004 14.9018 19.5198 14.8042 19.5576 14.713C19.5953 14.6219 19.6506 14.5392 19.7203 14.4694L21.4408 12.7504H15.7513C15.5524 12.7504 15.3617 12.6714 15.221 12.5308C15.0804 12.3901 15.0013 12.1993 15.0013 12.0004Z" fill="#005DFF"/>
</g>
<defs>
<clipPath id="clip0">
<rect width="24" height="24" fill="white"/>
</clipPath>
</defs>
</svg>
