<svg width="24" height="24" fill="none" xmlns="http://www.w3.org/2000/svg"><g clip-path="url(#clip0)" fill="#000"><path d="M17 22h-4v-3h-2v3H7v-3H5v4a1 1 0 001 1h12a1 1 0 001-1v-4h-2v3zM6.425 16.23C7.847 17.37 9.827 18 12 18s4.153-.629 5.575-1.77C19.162 14.957 20 13.148 20 11c0-1.749-1.082-4.536-2.364-6.087a1 1 0 00-1.222-.255l-1.832.927L12.95.684a1 1 0 00-1.87-.078L8.545 6.522l-1.523-.974a1 1 0 00-1.35.258C4.687 7.173 4 9.64 4 11c0 2.148.838 3.957 2.425 5.23zM10 14c0-.637.94-2.126 2-3.452 1.06 1.326 2 2.815 2 3.452a2 2 0 01-4 0zM6.828 7.798l1.633 1.044a1 1 0 001.458-.448l1.964-4.583 1.168 3.505a.999.999 0 001.4.576l2.104-1.064C17.396 8.158 18 10.012 18 11c0 1.93-.885 3.208-2.124 3.989A3.99 3.99 0 0016 14c0-1.941-2.713-5.063-3.256-5.668a1 1 0 00-1.488 0C10.713 8.937 8 12.06 8 14c0 .333.041.665.124.989C6.884 14.208 6 12.93 6 11c0-.777.343-2.155.828-3.202z"/></g><defs><clipPath id="clip0"><path fill="#fff" d="M0 0h24v24H0z"/></clipPath></defs></svg>