<svg width="24" height="24" fill="none" xmlns="http://www.w3.org/2000/svg"><g clip-path="url(#clip0)"><path fill-rule="evenodd" clip-rule="evenodd" d="M12 18c-2.173 0-4.153-.629-5.575-1.77C4.838 14.957 4 13.148 4 11c0-1.36.687-3.826 1.672-5.194a1 1 0 011.35-.258l1.523.974L11.081.606a1 1 0 011.868.078l1.633 4.9 1.832-.926a1 1 0 011.222.256C18.918 6.464 20 9.25 20 11c0 2.148-.838 3.957-2.425 5.23C16.153 17.37 14.173 18 12 18zm0-7.452c-1.06 1.326-2 2.815-2 3.452a2 2 0 104 0c0-.637-.94-2.126-2-3.452zM8.461 8.842L6.828 7.798C6.343 8.845 6 10.223 6 11c0 1.93.885 3.208 2.124 3.989A3.993 3.993 0 018 14c0-1.941 2.713-5.062 3.256-5.668a1 1 0 011.488 0C13.287 8.938 16 12.06 16 14c0 .333-.041.666-.124.989C17.116 14.208 18 12.93 18 11c0-.988-.604-2.841-1.445-4.172L14.45 7.892a1 1 0 01-1.4-.576l-1.168-3.504-1.964 4.582a1 1 0 01-1.458.448zM13 22h4v-3h2v4a1 1 0 01-1 1H6a1 1 0 01-1-1v-4h2v3h4v-3h2v3z" fill="#005DFF"/></g><defs><clipPath id="clip0"><path fill="#fff" d="M0 0h24v24H0z"/></clipPath></defs></svg>