<svg width="64" height="64" fill="none" xmlns="http://www.w3.org/2000/svg"><g clip-path="url(#clip0)"><path d="M57.374 7.683h-41.08a.98.98 0 00-.73 0H6.626A6.633 6.633 0 000 14.308v35.454a6.633 6.633 0 006.626 6.626h50.748A6.633 6.633 0 0064 49.762V14.308a6.633 6.633 0 00-6.626-6.625zm4.652 6.625V39.33H23.852a5.032 5.032 0 002.453-4.305c0-2.779-2.291-5.04-5.107-5.04a5.132 5.132 0 00-4.282 2.294V9.656h40.458a4.657 4.657 0 014.652 4.652zM7.528 35.025a3.105 3.105 0 013.133-3.066 3.19 3.19 0 011.59.424 3.07 3.07 0 011.49 2.07l.86 4.434-4.53-.85a3.089 3.089 0 01-2.543-3.012zm9.731 3.862l.86-4.433a3.14 3.14 0 016.212.571 3.089 3.089 0 01-2.543 3.012l-4.529.85zM6.626 9.657h8.317V32.28a5.079 5.079 0 00-1.706-1.607 5.154 5.154 0 00-2.575-.688c-2.817 0-5.107 2.261-5.107 5.04a5.032 5.032 0 002.453 4.305H1.974V14.308a4.657 4.657 0 014.652-4.652zM1.974 49.761v-8.458h11.573l-4.659 4.66a.986.986 0 101.396 1.395l4.659-4.66v11.715H6.626a4.657 4.657 0 01-4.652-4.652zm55.4 4.652H16.916V42.7l6.28 6.28a.986.986 0 101.396-1.395l-6.28-6.28h43.714v8.458a4.657 4.657 0 01-4.652 4.652z" fill="#FFCB45"/></g><defs><clipPath id="clip0"><path fill="#fff" d="M0 0h64v64H0z"/></clipPath></defs></svg>