<svg width="24" height="24" fill="none" xmlns="http://www.w3.org/2000/svg"><path d="M20.625 7.266h-3.46a3.226 3.226 0 00.507-1.735 3.238 3.238 0 00-3.235-3.234A3.23 3.23 0 0012 3.407a3.23 3.23 0 00-2.438-1.11A3.238 3.238 0 006.329 5.53c0 .638.185 1.233.506 1.735h-3.46a.75.75 0 00-.75.75v4.687c0 .103.084.188.188.188h.937v8.062c0 .415.335.75.75.75h15a.75.75 0 00.75-.75V12.89h.938a.188.188 0 00.187-.188V8.016a.75.75 0 00-.75-.75zM12.797 5.53c0-.904.736-1.64 1.64-1.64.905 0 1.641.736 1.641 1.64 0 .905-.736 1.64-1.64 1.64h-1.641V5.53zM9.562 3.89c.905 0 1.641.736 1.641 1.64v1.64h-1.64a1.642 1.642 0 01-1.641-1.64c0-.904.736-1.64 1.64-1.64zM4.22 11.297V8.859h6.984v2.438H4.22zm1.125 1.594h5.86v7.218h-5.86v-7.218zm13.312 7.218h-5.86v-7.218h5.86v7.218zm1.125-8.812h-6.984V8.859h6.984v2.438z" fill="#000"/></svg>