<svg width="20" height="20" viewBox="0 0 20 20" fill="none" xmlns="http://www.w3.org/2000/svg">
<g opacity="0.5">
<path d="M9.83333 2C6.60833 2 4 4.60833 4 7.83333C4 12.2083 9.83333 18.6667 9.83333 18.6667C9.83333 18.6667 15.6667 12.2083 15.6667 7.83333C15.6667 4.60833 13.0583 2 9.83333 2ZM9.83333 9.91667C9.2808 9.91667 8.7509 9.69717 8.36019 9.30647C7.96949 8.91577 7.75 8.38587 7.75 7.83333C7.75 7.2808 7.96949 6.7509 8.36019 6.36019C8.7509 5.96949 9.2808 5.75 9.83333 5.75C10.3859 5.75 10.9158 5.96949 11.3065 6.36019C11.6972 6.7509 11.9167 7.2808 11.9167 7.83333C11.9167 8.38587 11.6972 8.91577 11.3065 9.30647C10.9158 9.69717 10.3859 9.91667 9.83333 9.91667Z" fill="#949494"/>
</g>
</svg>
