<svg width="24" height="22" fill="none" xmlns="http://www.w3.org/2000/svg"><path d="M23.205 10.766c-.882-2.091-2.414-3.9-4.405-5.203-1.992-1.302-4.356-2.041-6.8-2.125-2.445.084-4.809.823-6.8 2.125C3.208 6.866 1.677 8.675.795 10.766a.634.634 0 000 .468c.882 2.091 2.413 3.9 4.405 5.203 1.991 1.302 4.355 2.041 6.8 2.125 2.444-.084 4.808-.823 6.8-2.125 1.991-1.303 3.523-3.112 4.405-5.203a.634.634 0 000-.468zM12 17.187c-3.975 0-8.175-2.701-9.698-6.187C3.825 7.514 8.025 4.812 12 4.812c3.975 0 8.175 2.702 9.697 6.188-1.522 3.486-5.722 6.188-9.697 6.188z" fill="#818181"/><path d="M12 6.875c-.89 0-1.76.242-2.5.695a4.225 4.225 0 00-1.657 1.851 3.807 3.807 0 00-.257 2.384c.174.8.603 1.535 1.232 2.112a4.64 4.64 0 002.304 1.129 4.885 4.885 0 002.6-.235 4.439 4.439 0 002.02-1.52A3.885 3.885 0 0016.5 11c0-1.094-.474-2.143-1.318-2.917-.844-.773-1.989-1.208-3.182-1.208zm0 6.875a3.197 3.197 0 01-1.667-.463 2.816 2.816 0 01-1.105-1.235 2.538 2.538 0 01-.17-1.588 2.687 2.687 0 01.82-1.409c.42-.384.955-.646 1.537-.752a3.254 3.254 0 011.733.156 2.96 2.96 0 011.346 1.013c.33.452.506.984.506 1.528a2.64 2.64 0 01-.879 1.944A3.143 3.143 0 0112 13.75z" fill="#818181"/></svg>