<svg width="22" height="22" fill="none" xmlns="http://www.w3.org/2000/svg"><path d="M11 0a.644.644 0 100 1.29c5.355 0 9.71 4.355 9.71 9.71s-4.355 9.71-9.71 9.71S1.29 16.356 1.29 11c0-2.593 1.09-5.097 2.965-6.92V5.2a.645.645 0 001.288 0V2.62a.644.644 0 00-.644-.644H2.3a.645.645 0 00-.645.644c0 .356.289.64.645.64h.946C1.16 5.342 0 8.124 0 11c0 6.047 4.95 11 11 11 6.047 0 11-4.95 11-11 0-6.047-4.95-11-11-11z" fill="#818181"/><path d="M11 3.91c-3.91 0-7.09 3.182-7.09 7.09 0 3.91 3.182 7.09 7.09 7.09 3.91 0 7.09-3.182 7.09-7.09 0-3.91-3.182-7.09-7.09-7.09zm4.53 10.709l-.428-.429a.644.644 0 10-.912.912l.429.428a5.774 5.774 0 01-2.974 1.235v-.609a.644.644 0 10-1.29 0v.609a5.774 5.774 0 01-2.974-1.235l.429-.428a.645.645 0 10-.912-.912l-.428.429a5.774 5.774 0 01-1.235-2.974h.609a.644.644 0 100-1.29h-.609A5.774 5.774 0 016.47 7.381l.428.429a.645.645 0 10.912-.912l-.43-.428a5.774 5.774 0 012.974-1.235v.609a.644.644 0 101.29 0v-.609a5.774 5.774 0 012.974 1.235l-.429.428a.644.644 0 10.912.912l.428-.429a5.773 5.773 0 011.235 2.974h-.609a.644.644 0 00-.644.645c0 .356.288.64.644.64h.609a5.789 5.789 0 01-1.235 2.979z" fill="#818181"/><path d="M12.745 11.833l-1.1-1.1V8.422a.644.644 0 10-1.29 0V11c0 .17.068.335.19.456l1.288 1.289a.645.645 0 00.912-.912z" fill="#818181"/></svg>