<svg width="24" height="22" fill="none" xmlns="http://www.w3.org/2000/svg"><path d="M19.33 6.136l.42-1.262a.94.94 0 01.487-.541c.235-.115.509-.139.763-.068a.985.985 0 01.59.447.844.844 0 01.073.698l-1.17 3.507a.94.94 0 01-.486.54 1.082 1.082 0 01-.762.068L15.42 8.453a1.036 1.036 0 01-.352-.166.942.942 0 01-.254-.277.862.862 0 01-.079-.708.895.895 0 01.189-.319.99.99 0 01.308-.227 1.07 1.07 0 01.774-.056l1.671.468a7.23 7.23 0 00-2.982-2.381 7.972 7.972 0 00-3.895-.628 7.785 7.785 0 00-3.69 1.304 6.882 6.882 0 00-2.425 2.864l-.26.58a.91.91 0 01-.21.308c-.093.089-.204.16-.326.209a1.078 1.078 0 01-1.108-.195.914.914 0 01-.218-.304.85.85 0 01.012-.712l.26-.58c.647-1.446 1.71-2.703 3.077-3.636a9.893 9.893 0 014.68-1.661 10.133 10.133 0 014.945.788c1.54.67 2.85 1.711 3.793 3.012zM3.809 15.865l-.327 1.202a.88.88 0 01-.161.33.97.97 0 01-.29.249 1.091 1.091 0 01-.767.11 1.06 1.06 0 01-.357-.157.949.949 0 01-.263-.27.843.843 0 01-.101-.705l.966-3.558a.886.886 0 01.175-.334.978.978 0 01.304-.244 1.066 1.066 0 01.786-.078l3.828.874a.998.998 0 01.616.418.851.851 0 01.113.694.928.928 0 01-.455.564 1.08 1.08 0 01-.758.104l-1.786-.408a7.242 7.242 0 003.113 2.454 7.99 7.99 0 004.061.551 7.723 7.723 0 003.755-1.522c1.07-.823 1.863-1.907 2.287-3.126a.899.899 0 01.19-.313.99.99 0 01.305-.223 1.07 1.07 0 011.104.114.94.94 0 01.243.28.861.861 0 01.064.7 8.465 8.465 0 01-2.043 3.219 9.437 9.437 0 01-3.337 2.126 10.191 10.191 0 01-6.217.29c-2.048-.555-3.829-1.734-5.048-3.341z" fill="#818181"/></svg>