<svg width="22" height="22" fill="none" xmlns="http://www.w3.org/2000/svg"><path d="M6.417 10.083H8.25v1.834H6.417v-1.834zm0 3.667H8.25v1.833H6.417V13.75zm3.667-3.667h1.833v1.834h-1.833v-1.834zm0 3.667h1.833v1.833h-1.833V13.75zm3.666-3.667h1.834v1.834H13.75v-1.834zm0 3.667h1.834v1.833H13.75V13.75z" fill="#818181"/><path d="M4.583 20.167h12.834a1.835 1.835 0 001.833-1.834V5.5a1.835 1.835 0 00-1.833-1.833h-1.834V1.833H13.75v1.834h-5.5V1.833H6.417v1.834H4.583A1.835 1.835 0 002.75 5.5v12.833c0 1.011.822 1.834 1.833 1.834zM17.417 7.333v11H4.584v-11h12.834z" fill="#818181"/></svg>