<svg width="24" height="24" fill="none" xmlns="http://www.w3.org/2000/svg"><path fill-rule="evenodd" clip-rule="evenodd" d="M12 23c4.807 0 9-3.617 9-8.429 0-2.882-1.448-5.639-2.895-7.719-1.485-2.133-3.183-3.856-4.094-4.721a2.913 2.913 0 00-4.022 0c-.91.865-2.609 2.588-4.093 4.721C4.449 8.932 3 11.69 3 14.572 3 19.382 7.193 23 12 23zm7-8.429C19 18.121 15.866 21 12 21s-7-2.878-7-6.429c0-4.52 4.644-9.353 6.367-10.99a.913.913 0 011.266 0C14.356 5.217 19 10.05 19 14.57zM9 14a1 1 0 10-2 0 5 5 0 005 5 1 1 0 100-2 3 3 0 01-3-3z" fill="#005DFF"/></svg>