<svg width="14" height="14" fill="none" xmlns="http://www.w3.org/2000/svg"><path d="M7.002 3.41A3.583 3.583 0 003.412 7a3.583 3.583 0 003.59 3.59A3.583 3.583 0 0010.59 7a3.583 3.583 0 00-3.588-3.59zm0 5.924A2.338 2.338 0 014.668 7a2.336 2.336 0 012.334-2.334A2.336 2.336 0 019.335 7a2.338 2.338 0 01-2.333 2.334zm4.572-6.07a.835.835 0 01-.837.837.837.837 0 11.837-.837zm2.377.85c-.053-1.122-.31-2.115-1.13-2.934C12 .362 11.008.105 9.886.05c-1.155-.066-4.619-.066-5.774 0C2.994.101 2 .357 1.18 1.176.358 1.995.105 2.989.05 4.11c-.066 1.156-.066 4.62 0 5.777C.101 11.008.357 12 1.18 12.82c.821.818 1.811 1.075 2.933 1.13 1.155.066 4.619.066 5.774 0 1.122-.052 2.115-.308 2.933-1.13.819-.819 1.075-1.812 1.13-2.933.066-1.156.066-4.618 0-5.774zm-1.493 7.013a2.362 2.362 0 01-1.33 1.33c-.922.366-3.108.282-4.126.282-1.019 0-3.208.08-4.126-.282a2.362 2.362 0 01-1.33-1.33C1.18 10.205 1.263 8.018 1.263 7c0-1.018-.081-3.208.281-4.127a2.362 2.362 0 011.33-1.33c.922-.366 3.108-.282 4.127-.282 1.018 0 3.207-.08 4.125.281a2.362 2.362 0 011.33 1.331c.366.922.282 3.109.282 4.127 0 1.018.084 3.208-.281 4.127z" fill="url(#paint0_radial)"/><defs><radialGradient id="paint0_radial" cx="0" cy="0" r="1" gradientUnits="userSpaceOnUse" gradientTransform="matrix(14 -14 14 14 0 14)"><stop stop-color="#FDA451"/><stop offset=".25" stop-color="#BB2F9A"/><stop offset="1" stop-color="#6648CD"/></radialGradient></defs></svg>