<svg width="30" height="30" viewBox="0 0 30 30" fill="none" xmlns="http://www.w3.org/2000/svg">
<path d="M8.18182 5L7.89727 5.36909L5 9.23273V25H25V9.23273L22.1018 5.36909L21.8182 5H8.18182ZM9.09091 6.81818H14.0909V8.63636H7.72727L9.09091 6.81818ZM15.9091 6.81818H20.9091L22.2727 8.63636H15.9091V6.81818ZM6.81818 10.4545H23.1818V23.1818H6.81818V10.4545ZM12.1027 12.2727C11.6018 12.3182 11.2318 12.7664 11.2782 13.2673C11.3245 13.7673 11.7718 14.1373 12.2727 14.0909H17.7273C18.0545 14.0945 18.3591 13.9236 18.5264 13.64C18.6066 13.5006 18.6489 13.3426 18.6489 13.1818C18.6489 13.021 18.6066 12.863 18.5264 12.7236C18.3591 12.44 18.0536 12.2691 17.7273 12.2727H12.1018H12.1027Z" fill="#005DFF"/>
</svg>
