<svg width="30" height="30" fill="none" xmlns="http://www.w3.org/2000/svg"><path d="M12.23 3c-3.6 0-6.46 2.87-6.46 6.481a6.46 6.46 0 002.833 5.383C5.317 16.284 3 19.567 3 23.37h1.846c0-4.074 3.323-7.407 7.385-7.407.315 0 .621-.03.923-.072v4.239c0 4.814 6.277 7.592 6.554 7.685l.369.185.37-.185c.276-.093 6.553-2.87 6.553-7.685v-5.093h-.83c-1.755 0-2.77-.648-3.6-1.111-.832-.37-1.57-.74-2.493-.74-.923 0-1.662.37-2.308.74-.467.261-1.028.576-1.735.806a6.456 6.456 0 002.659-5.25C18.692 5.87 15.83 3 12.23 3zm0 1.852c2.585 0 4.616 2.037 4.616 4.63 0 2.592-2.03 4.63-4.615 4.63-2.585 0-4.616-2.038-4.616-4.63 0-2.593 2.031-4.63 4.616-4.63zm7.847 10.185c.461 0 .83.185 1.57.556l.276.092c.739.37 1.754.926 3.23 1.111v3.241c0 3.056-3.968 5.278-5.076 5.833C18.969 25.315 15 23.093 15 20.037v-3.24c1.57-.186 2.585-.741 3.323-1.112l.277-.092h.185c.553-.463.83-.556 1.292-.556z" fill="#005DFF"/></svg>