<svg width="18" height="18" fill="none" xmlns="http://www.w3.org/2000/svg"><mask id="mask0" maskUnits="userSpaceOnUse" x="0" y="0" width="18" height="18"><path d="M0 0h18v18H0V0z" fill="#C4C4C4"/></mask><g mask="url(#mask0)"><path d="M5.413 8.193a10.1 10.1 0 004.394 4.394l1.466-1.467c.18-.18.447-.24.68-.16a7.6 7.6 0 002.38.38c.367 0 .667.3.667.667v2.326c0 .367-.3.667-.667.667C8.073 15 3 9.927 3 3.667 3 3.3 3.3 3 3.667 3H6c.367 0 .667.3.667.667 0 .833.133 1.633.38 2.38a.669.669 0 01-.167.68L5.413 8.193z" fill="#000"/></g></svg>