<svg width="16" height="16" viewBox="0 0 16 16" fill="none" xmlns="http://www.w3.org/2000/svg">
<path d="M7.99968 1.33325C6.68114 1.33325 5.3922 1.72425 4.29588 2.45679C3.19955 3.18933 2.34506 4.23052 1.84048 5.4487C1.3359 6.66687 1.20387 8.00731 1.46111 9.30052C1.71834 10.5937 2.35328 11.7816 3.28563 12.714C4.21798 13.6463 5.40587 14.2813 6.69908 14.5385C7.99228 14.7957 9.33273 14.6637 10.5509 14.1591C11.7691 13.6545 12.8103 12.8 13.5428 11.7037C14.2753 10.6074 14.6663 9.31846 14.6663 7.99992C14.6663 7.12444 14.4939 6.25753 14.1589 5.4487C13.8238 4.63986 13.3328 3.90493 12.7137 3.28587C12.0947 2.66682 11.3597 2.17575 10.5509 1.84072C9.74206 1.50569 8.87516 1.33325 7.99968 1.33325ZM7.99968 11.9999C7.86782 11.9999 7.73893 11.9608 7.6293 11.8876C7.51966 11.8143 7.43422 11.7102 7.38376 11.5884C7.3333 11.4666 7.3201 11.3325 7.34582 11.2032C7.37154 11.0739 7.43504 10.9551 7.52827 10.8618C7.62151 10.7686 7.7403 10.7051 7.86962 10.6794C7.99894 10.6537 8.13298 10.6669 8.2548 10.7173C8.37662 10.7678 8.48074 10.8532 8.55399 10.9629C8.62724 11.0725 8.66634 11.2014 8.66634 11.3333C8.66634 11.5101 8.59611 11.6796 8.47108 11.8047C8.34606 11.9297 8.17649 11.9999 7.99968 11.9999ZM8.66634 8.55992V9.33325C8.66634 9.51006 8.59611 9.67963 8.47108 9.80466C8.34606 9.92968 8.17649 9.99992 7.99968 9.99992C7.82287 9.99992 7.6533 9.92968 7.52827 9.80466C7.40325 9.67963 7.33301 9.51006 7.33301 9.33325V7.99992C7.33301 7.82311 7.40325 7.65354 7.52827 7.52851C7.6533 7.40349 7.82287 7.33325 7.99968 7.33325C8.19746 7.33325 8.3908 7.2746 8.55525 7.16472C8.7197 7.05484 8.84787 6.89866 8.92356 6.71594C8.99924 6.53321 9.01905 6.33214 8.98046 6.13816C8.94188 5.94418 8.84664 5.766 8.70678 5.62615C8.56693 5.48629 8.38875 5.39105 8.19477 5.35247C8.00079 5.31388 7.79972 5.33368 7.61699 5.40937C7.43427 5.48506 7.27809 5.61323 7.16821 5.77768C7.05833 5.94213 6.99968 6.13547 6.99968 6.33325C6.99968 6.51006 6.92944 6.67963 6.80442 6.80466C6.67939 6.92968 6.50982 6.99992 6.33301 6.99992C6.1562 6.99992 5.98663 6.92968 5.86161 6.80466C5.73658 6.67963 5.66634 6.51006 5.66634 6.33325C5.6646 5.90012 5.78345 5.47505 6.00959 5.10564C6.23573 4.73622 6.56022 4.43704 6.94675 4.24159C7.33329 4.04614 7.76659 3.96213 8.19815 3.99898C8.62972 4.03583 9.04251 4.19207 9.39031 4.45022C9.73812 4.70836 10.0072 5.05823 10.1674 5.46063C10.3277 5.86303 10.3728 6.3021 10.2976 6.72867C10.2225 7.15523 10.0301 7.55247 9.74197 7.87589C9.45386 8.19931 9.08142 8.43616 8.66634 8.55992Z" fill="#C9C9C9"/>
</svg>
