<svg width="24" height="24" fill="none" xmlns="http://www.w3.org/2000/svg"><path d="M16.95 10.19l-5.66 5.79a.993.993 0 01-.705.299.975.975 0 01-.705-.3l-2.83-2.895a1.021 1.021 0 01-.292-.72 1.04 1.04 0 01.292-.722.997.997 0 01.705-.299.979.979 0 01.705.299l2.12 2.169 4.95-5.064a.995.995 0 01.705-.3.976.976 0 01.705.3c.4.399.4 1.043.01 1.442zM4 12a8.213 8.213 0 012.62-6.015L8.15 7.55a.496.496 0 00.545.106.503.503 0 00.223-.19A.52.52 0 009 7.18V2.793a.5.5 0 00-.5-.512H4.21c-.45 0-.67.553-.35.87L5.2 4.53A10.27 10.27 0 002 12c0 4.86 3.32 8.931 7.76 9.975A1.02 1.02 0 0011 20.972c0-.48-.33-.89-.79-1.003C6.66 19.142 4 15.889 4 12zm18 0c0-4.86-3.32-8.931-7.76-9.975A1.02 1.02 0 0013 3.028c0 .48.33.89.79 1.003C17.34 4.859 20 8.112 20 12a8.214 8.214 0 01-2.62 6.015l-1.53-1.565a.497.497 0 00-.545-.105.503.503 0 00-.223.19.52.52 0 00-.082.284v4.388c0 .287.22.512.5.512h4.29c.45 0 .67-.553.35-.87l-1.34-1.38A10.27 10.27 0 0022 12z" fill="#005DFF"/></svg>