<svg width="74" height="74" fill="none" xmlns="http://www.w3.org/2000/svg"><path d="M32.418 52.498c.742 0 1.344-.602 1.344-1.344v-34.81c0-.742-.602-1.344-1.344-1.344H18.843c-.742 0-1.344.602-1.344 1.344v34.81c0 .742.602 1.344 1.344 1.344h13.575zm-12.23-2.554V17.688h10.886v32.256H20.187zm33.999 2.689c.743 0 1.344-.602 1.344-1.345v-21.37c0-.741-.601-1.343-1.344-1.343H41.822c-.742 0-1.344.602-1.344 1.344v21.37c0 .742.602 1.343 1.344 1.343h12.365zm-11.02-2.689V31.263h9.676v18.681h-9.677zM64 57.471c0-.742-.601-1.344-1.344-1.344H11.584a1.344 1.344 0 100 2.688h51.072c.743 0 1.344-.601 1.344-1.344z" fill="#FFCB45"/></svg>