<svg width="74" height="74" viewBox="0 0 74 74" fill="none" xmlns="http://www.w3.org/2000/svg">
<path d="M32.4177 52.4978C33.1603 52.4978 33.7617 51.8964 33.7617 51.1538L33.7617 16.344C33.7617 15.6019 33.1603 15 32.4177 15L18.8432 15C18.1007 15 17.4992 15.6019 17.4992 16.344L17.4992 51.1538C17.4992 51.8964 18.1007 52.4978 18.8432 52.4978L32.4177 52.4978ZM20.1873 49.9442L20.1873 17.688L31.0737 17.688L31.0737 49.9442L20.1873 49.9442Z" fill="#FFCB45"/>
<path d="M54.1872 52.6325C54.9298 52.6325 55.5312 52.0311 55.5312 51.2885L55.5312 29.9188C55.5312 29.1766 54.9298 28.5748 54.1872 28.5748L41.8224 28.5748C41.0798 28.5748 40.4784 29.1766 40.4784 29.9188L40.4784 51.2885C40.4784 52.0311 41.0798 52.6325 41.8224 52.6325L54.1872 52.6325ZM43.1664 49.9445L43.1664 31.2628L52.8432 31.2628L52.8432 49.9445L43.1664 49.9445Z" fill="#FFCB45"/>
<path d="M64 57.471C64 56.7288 63.3986 56.127 62.656 56.127L11.5837 56.127C10.8411 56.127 10.2397 56.7288 10.2397 57.471C10.2397 58.2135 10.8411 58.815 11.5837 58.815L62.656 58.815C63.3986 58.815 64 58.2135 64 57.471Z" fill="#FFCB45"/>
</svg>
