<svg width="22" height="24" fill="none" xmlns="http://www.w3.org/2000/svg"><path fill-rule="evenodd" clip-rule="evenodd" d="M2.752 3.669a92.153 92.153 0 014.255-1.284v.002C8.672 1.934 10.205 1.6 11 1.6c.796 0 2.328.334 3.993.785 1.63.443 3.279.963 4.255 1.283a.72.72 0 01.492.585c.832 6.236-1.088 10.787-3.379 13.782a16.088 16.088 0 01-3.43 3.35c-.52.364-.98.63-1.34.799a3.26 3.26 0 01-.441.177.922.922 0 01-.15.038.822.822 0 01-.152-.038 3.335 3.335 0 01-.439-.177 9.115 9.115 0 01-1.34-.8 16.088 16.088 0 01-3.43-3.349c-2.29-2.997-4.21-7.547-3.38-13.782a.722.722 0 01.493-.585zM11 0C9.965 0 8.236.398 6.608.84a92.93 92.93 0 00-4.33 1.305A2.31 2.31 0 00.712 4.038c-.894 6.716 1.18 11.692 3.697 14.985a17.667 17.667 0 003.776 3.68c.496.356 1.022.67 1.572.937.421.198.871.36 1.243.36.372 0 .823-.162 1.243-.36a10.74 10.74 0 001.572-.938 17.66 17.66 0 003.776-3.679c2.517-3.293 4.591-8.27 3.697-14.985a2.31 2.31 0 00-1.566-1.893A91.525 91.525 0 0015.393.84C13.765.398 12.035 0 11 0zm4.445 7.963a.75.75 0 00-.694-.464.75.75 0 00-.531.22l-3.97 3.97-1.718-1.72a.751.751 0 00-1.062 1.062l2.25 2.25a.75.75 0 001.062 0l4.5-4.5a.75.75 0 00.163-.818z" fill="#005DFF"/></svg>