<svg width="24" height="24" viewBox="0 0 24 24" fill="none" xmlns="http://www.w3.org/2000/svg">
<path fill-rule="evenodd" clip-rule="evenodd" d="M9.08319 2.20819C9.85678 1.4346 10.906 1 12 1C13.094 1 14.1432 1.4346 14.9168 2.20819C15.6904 2.98178 16.125 4.03099 16.125 5.12501V13.8618C16.8251 14.6556 17.2813 15.6346 17.4388 16.6813C17.5963 17.728 17.4484 18.7979 17.0129 19.7626C16.5774 20.7273 15.8728 21.5459 14.9836 22.1201C14.0945 22.6943 13.0585 22.9997 12 22.9997C10.9415 22.9997 9.90557 22.6943 9.01638 22.1201C8.1272 21.5459 7.42259 20.7273 6.9871 19.7626C6.5516 18.7979 6.40373 17.728 6.56123 16.6813C6.71873 15.6346 7.1749 14.6556 7.87501 13.8618V5.12501C7.87501 4.03099 8.3096 2.98178 9.08319 2.20819ZM13.9446 3.18046C13.4288 2.66473 12.7294 2.375 12 2.375C11.2707 2.375 10.5712 2.66473 10.0555 3.18046C9.53974 3.69619 9.25001 4.39566 9.25001 5.12501V14.4131L9.05338 14.6125C8.48497 15.1927 8.1005 15.9278 7.94819 16.7257C7.79587 17.5235 7.88248 18.3485 8.19716 19.0973C8.51184 19.8462 9.04059 20.4854 9.7171 20.9349C10.3936 21.3844 11.1878 21.6242 12 21.6242C12.8123 21.6242 13.6064 21.3844 14.2829 20.9349C14.9594 20.4854 15.4882 19.8462 15.8029 19.0973C16.1175 18.3485 16.2042 17.5235 16.0518 16.7257C15.8995 15.9278 15.515 15.1927 14.9466 14.6125L14.75 14.4131V5.12501C14.75 4.39566 14.4603 3.69619 13.9446 3.18046ZM12.4861 7.38886C12.3572 7.25993 12.1823 7.1875 12 7.1875C11.8177 7.1875 11.6428 7.25993 11.5139 7.38886C11.3849 7.5178 11.3125 7.69266 11.3125 7.875V14.8366C10.6644 15.004 10.0996 15.4019 9.72397 15.9559C9.34831 16.5099 9.18759 17.1818 9.27193 17.8458C9.35626 18.5098 9.67988 19.1203 10.1821 19.5627C10.6843 20.0052 11.3307 20.2493 12 20.2493C12.6693 20.2493 13.3157 20.0052 13.8179 19.5627C14.3201 19.1203 14.6438 18.5098 14.7281 17.8458C14.8124 17.1818 14.6517 16.5099 14.2761 15.9559C13.9004 15.4019 13.3356 15.004 12.6875 14.8366V7.875C12.6875 7.69266 12.6151 7.5178 12.4861 7.38886Z" fill="#005DFF"/>
</svg>
