<svg width="12" height="14" fill="none" xmlns="http://www.w3.org/2000/svg"><path d="M11.994 3.505a3.388 3.388 0 01-2.08-.712A3.547 3.547 0 018.54 0H6.31v6.246l-.002 3.422c0 .914-.581 1.69-1.387 1.963a1.983 1.983 0 01-1.673-.189A2.078 2.078 0 012.261 9.7c-.017-1.157.895-2.1 2.023-2.1a2 2 0 01.636.105V5.383a4.231 4.231 0 00-3.856 1.424A4.344 4.344 0 00.008 9.396a4.342 4.342 0 001.648 3.697 4.21 4.21 0 003.264.86 4.224 4.224 0 002.381-1.221 4.333 4.333 0 001.253-3.046l-.012-5.109c.384.303.803.554 1.253.749.7.303 1.441.456 2.205.456V3.505h-.006z" fill="#000"/></svg>