<svg width="24" height="24" fill="none" xmlns="http://www.w3.org/2000/svg"><path fill-rule="evenodd" clip-rule="evenodd" d="M8.81 8.813h9.94a2.816 2.816 0 012.813 2.812v9.563A2.816 2.816 0 0118.75 24H5.25a2.816 2.816 0 01-2.813-2.813v-9.562A2.816 2.816 0 015.25 8.812h1.686V4.958C6.936 2.224 9.206 0 11.998 0c2.792 0 5.063 2.224 5.063 4.958V6.75h-1.875V4.958c0-1.7-1.43-3.083-3.188-3.083-1.757 0-3.187 1.383-3.187 3.083v3.854zm9.94 13.312c.517 0 .938-.42.938-.938v-9.562a.939.939 0 00-.938-.938H5.25a.939.939 0 00-.938.938v9.563a.94.94 0 00.938.937h13.5zm-8.484-6.984a1.734 1.734 0 112.67 1.46v2.055a.938.938 0 01-1.875 0v-2.058a1.733 1.733 0 01-.795-1.457z" fill="#005DFF"/></svg>