<svg width="24" height="24" fill="none" xmlns="http://www.w3.org/2000/svg"><g clip-path="url(#clip0)" fill="#000"><path d="M18.75 8.813H8.81V4.957c0-1.7 1.43-3.083 3.188-3.083 1.758 0 3.188 1.383 3.188 3.083V6.75h1.875V4.958C17.06 2.224 14.79 0 11.998 0 9.207 0 6.936 2.224 6.936 4.958v3.854H5.25a2.816 2.816 0 00-2.813 2.813v9.563A2.816 2.816 0 005.25 24h13.5a2.816 2.816 0 002.813-2.813v-9.562a2.816 2.816 0 00-2.813-2.813zm.938 12.374a.94.94 0 01-.938.938H5.25a.939.939 0 01-.938-.938v-9.562a.94.94 0 01.938-.938h13.5a.94.94 0 01.938.938v9.563z"/><path d="M12 13.406a1.734 1.734 0 00-.94 3.192v2.058a.938.938 0 101.876 0v-2.055A1.734 1.734 0 0012 13.407z"/></g><defs><clipPath id="clip0"><path fill="#fff" d="M0 0h24v24H0z"/></clipPath></defs></svg>