<svg width="30" height="30" fill="none" xmlns="http://www.w3.org/2000/svg"><path d="M26.607 9.043l-3.714 2.093V6.818C22.893 5.815 22.06 5 21.036 5H3.857C2.833 5 2 5.815 2 6.818v16.364C2 24.185 2.833 25 3.857 25h17.179c1.024 0 1.857-.815 1.857-1.818v-4.318l3.714 2.093c.618.35 1.393-.088 1.393-.784V9.83c0-.7-.775-1.137-1.393-.787zm-5.803 13.912H4.089V7.044h16.715v15.91zm5.107-4.745l-3.018-1.699v-3.02l3.018-1.701v6.42zM6.179 10.682h3.25a.23.23 0 00.232-.228V9.091a.23.23 0 00-.232-.227h-3.25a.23.23 0 00-.233.227v1.364a.23.23 0 00.233.227z" fill="#005DFF"/></svg>