<svg width="19" height="10" fill="none" xmlns="http://www.w3.org/2000/svg"><path d="M18.567.678c.13-.39 0-.678-.628-.678h-2.077c-.53 0-.773.247-.903.522 0 0-1.059 2.284-2.554 3.765-.483.429-.705.566-.97.566-.13 0-.332-.137-.332-.528V.678c0-.469-.148-.678-.585-.678H7.252c-.332 0-.53.219-.53.422 0 .444.749.547.826 1.797V4.93c0 .594-.12.703-.384.703-.706 0-2.42-2.293-3.436-4.918C3.524.206 3.323 0 2.79 0H.712C.12 0 0 .247 0 .522c0 .487.705 2.91 3.284 6.11C5.002 8.815 7.42 10 9.622 10c1.323 0 1.485-.262 1.485-.716 0-2.087-.12-2.284.543-2.284.307 0 .836.138 2.07 1.19C15.133 9.44 15.365 10 16.155 10h2.078c.593 0 .892-.262.72-.781-.396-1.09-3.066-3.335-3.186-3.485-.306-.35-.218-.506 0-.818.004-.004 2.54-3.166 2.801-4.238z" fill="#5B81B0"/></svg>