<svg width="30" height="30" fill="none" xmlns="http://www.w3.org/2000/svg"><path d="M18.75 9.333a.8.8 0 00.53-.195.631.631 0 00.22-.471.631.631 0 00-.22-.472.8.8 0 00-.53-.195.8.8 0 00-.53.195.631.631 0 00-.22.472c0 .176.079.346.22.471a.8.8 0 00.53.195zm3-.666a.631.631 0 01-.22.471.8.8 0 01-.53.195.8.8 0 01-.53-.195.631.631 0 01-.22-.471c0-.177.079-.347.22-.472A.8.8 0 0121 8a.8.8 0 01.53.195c.141.125.22.295.22.472zm1.5.666a.8.8 0 00.53-.195.631.631 0 00.22-.471.631.631 0 00-.22-.472.8.8 0 00-.53-.195.8.8 0 00-.53.195.631.631 0 00-.22.472c0 .176.079.346.22.471a.8.8 0 00.53.195z" fill="#005DFF"/><path d="M6.249 4.667c-.774 0-1.516.31-2.063.864a2.97 2.97 0 00-.854 2.088v14.762c0 .783.307 1.534.854 2.088a2.899 2.899 0 002.063.864h17.5c.773 0 1.515-.31 2.062-.864a2.97 2.97 0 00.854-2.088V7.619a2.97 2.97 0 00-.854-2.088 2.899 2.899 0 00-2.062-.864h-17.5zm18.958 2.952v2.952H4.79V7.62c0-.391.154-.767.428-1.044a1.45 1.45 0 011.03-.432h17.5c.387 0 .758.155 1.032.432.273.277.427.653.427 1.044zM6.249 23.857a1.45 1.45 0 01-1.031-.432 1.485 1.485 0 01-.428-1.044V12.048h20.417V22.38c0 .392-.154.767-.427 1.044a1.45 1.45 0 01-1.031.432h-17.5z" fill="#005DFF"/></svg>