<svg width="56" height="24" viewBox="0 0 56 24" fill="none" xmlns="http://www.w3.org/2000/svg">
<g clip-path="url(#clip0)">
<path d="M23.8956 12.0001C23.8956 10.5239 23.6171 9.11585 23.1317 7.80984C23.0032 12.1086 18.653 15.4368 16.099 17.6393H22.4919C23.3855 15.9576 23.8956 14.0391 23.8956 12.0001ZM19.2741 2.53463C17.25 0.951819 14.7122 0 11.9481 0C5.34938 0 0 5.3729 0 12.0001C0 18.6273 5.34938 24 11.9481 24C14.9697 24 17.721 22.8645 19.8251 21.0062H11.1751L11.1487 18.4549C16.3606 13.9041 19.5556 10.8265 19.5556 7.85376C19.5556 6.74897 19.1367 5.35481 17.2512 5.35481C15.7581 5.35481 14.3178 6.22346 14.5796 9.85313H11.5418C10.7822 5.64473 13.0607 2.30366 17.4079 2.30366C18.0818 2.30366 18.7053 2.38447 19.2741 2.53463Z" fill="#A3C626"/>
<path d="M34.9792 8.29402H37.8053C37.9019 6.13509 37.1775 2.71387 32.5159 2.71387C29.0857 2.71387 26.5977 4.77646 26.5977 9.0704C26.5977 9.6527 26.6216 12.6609 26.6216 14.5289C26.6216 19.1875 29.8346 20.2061 32.5399 20.2061C34.1583 20.2061 36.5012 19.842 37.588 18.6534V11.2295H32.274V13.9226H34.6414V17.1978C32.8537 17.8042 29.5928 18.047 29.5928 13.9226V9.0704C29.5928 6.18328 30.9215 5.1887 32.3946 5.1887C33.9166 5.1887 34.9792 5.96508 34.9792 8.29402ZM56.0004 15.4992C56.121 8.85219 48.5368 11.0595 48.6088 7.34783C48.6328 6.03805 49.4784 5.1887 50.8556 5.1887C52.3289 5.1887 53.1978 6.06212 53.1738 8.34286H55.9517C56.0243 6.28032 55.5413 2.76271 50.9522 2.76271C48.1017 2.76271 45.759 4.17009 45.7103 7.29948C45.5897 13.6796 53.2225 11.5934 53.1019 15.451C53.0532 17.0278 51.9178 17.7312 50.6379 17.7312C49.1406 17.7312 47.9326 16.8579 48.1743 14.2378H45.3718C45.058 17.7072 46.5799 20.182 50.6139 20.182C54.0195 20.182 55.9517 18.2893 56.0004 15.4992ZM43.2397 19.9631H40.3899V2.98092H43.2397V19.9631ZM43.2397 19.9631H40.3899V2.98092H43.2397V19.9631Z" fill="#434242"/>
</g>
<defs>
<clipPath id="clip0">
<rect width="56" height="24" fill="white"/>
</clipPath>
</defs>
</svg>
