<svg width="57" height="16" viewBox="0 0 57 16" fill="none" xmlns="http://www.w3.org/2000/svg">
<path d="M6.94902 1.8565H5.8483C3.83032 1.8565 2.77142 2.84385 2.77142 4.30574C2.77142 5.96493 3.50523 6.735 5.01295 7.72319L6.25616 8.53322L2.66988 13.7281H0L3.22023 9.08601C1.36523 7.80228 0.325948 6.55768 0.325948 4.44394C0.325948 1.79739 2.22106 0 5.82868 0H9.41496V13.7281H6.94902V1.8565Z" fill="#FC3F1D"/>
<path d="M29.4075 3.79285H22.3356V4.64201C22.3356 7.07127 22.1726 10.2123 21.3168 11.8715H20.5625V15.9999H22.804V13.728H28.2453V15.9999H30.4869V11.8715H29.4066V3.79285H29.4075ZM26.9825 11.8715H23.5592C24.2316 10.3705 24.415 7.66401 24.415 5.94571V5.64934H26.9825V11.8715Z" fill="black"/>
<path d="M17.118 7.72312H13.8781V3.79285H11.4531V13.728H13.8781V9.57962H17.118V13.728H19.543V3.79285H17.118V7.72312Z" fill="black"/>
<path d="M54.6556 5.4522C55.5933 5.4522 56.5097 5.76855 56.9995 6.06493V4.0694C56.4901 3.79301 55.5933 3.5957 54.3911 3.5957C51.2937 3.5957 49.6836 5.74857 49.6836 8.77058C49.6836 12.089 51.2528 13.9263 54.4926 13.9263C55.6138 13.9263 56.4082 13.729 56.9995 13.3136V11.3971C56.3886 11.8117 55.6548 12.069 54.636 12.069C52.9038 12.069 52.1905 10.7653 52.1905 8.71064C52.1905 6.55777 53.0668 5.4522 54.6556 5.4522Z" fill="black"/>
<path d="M49.3571 3.79285H46.9117L43.4875 8.37498V3.79285H41.0625V13.728H43.4875V8.84951L47.0746 13.728H49.8256L45.933 8.37498L49.3571 3.79285Z" fill="black"/>
<path d="M35.4392 3.59473C32.4843 3.59473 31.0781 5.78756 31.0781 8.78958C31.0781 12.2462 32.8307 13.9253 35.9281 13.9253C37.4768 13.9253 38.6185 13.5299 39.3318 13.0562V11.1406C38.5775 11.6343 37.3147 12.0688 36.132 12.0688C34.3589 12.0688 33.6866 11.2588 33.585 9.59962H39.4342V8.35501C39.4333 4.89844 37.8642 3.59473 35.4392 3.59473ZM36.9682 7.86134H33.585C33.6465 6.28123 34.2369 5.45122 35.3991 5.45122C36.6013 5.45122 36.9682 6.41943 36.9682 7.6632V7.86134Z" fill="black"/>
</svg>
