<svg width="56" height="24" fill="none" xmlns="http://www.w3.org/2000/svg"><g clip-path="url(#clip0)"><path d="M23.896 12c0-1.476-.279-2.884-.764-4.19-.129 4.299-4.479 7.627-7.033 9.83h6.393A11.982 11.982 0 0023.896 12zm-4.622-9.465A11.85 11.85 0 0011.948 0C5.35 0 0 5.373 0 12s5.35 12 11.948 12c3.022 0 5.773-1.136 7.877-2.994h-8.65l-.026-2.551c5.212-4.55 8.407-7.628 8.407-10.601 0-1.105-.42-2.5-2.305-2.5-1.493 0-2.933.87-2.671 4.5h-3.038c-.76-4.21 1.519-7.55 5.866-7.55a7.3 7.3 0 011.866.23z" fill="#A3C626"/><path d="M34.98 8.294h2.825c.097-2.159-.627-5.58-5.29-5.58-3.43 0-5.917 2.062-5.917 6.356 0 .583.024 3.59.024 5.459 0 4.659 3.213 5.677 5.918 5.677 1.618 0 3.961-.364 5.048-1.553V11.23h-5.314v2.693h2.367v3.275c-1.787.606-5.048.849-5.048-3.275V9.07c0-2.887 1.329-3.881 2.802-3.881 1.522 0 2.584.776 2.584 3.105zM56 15.499c.121-6.647-7.463-4.44-7.391-8.151.024-1.31.87-2.16 2.247-2.16 1.473 0 2.342.874 2.318 3.155h2.778c.072-2.063-.41-5.58-5-5.58-2.85 0-5.193 1.407-5.242 4.536-.12 6.38 7.512 4.294 7.392 8.152-.049 1.577-1.184 2.28-2.464 2.28-1.497 0-2.705-.873-2.464-3.493h-2.802c-.314 3.47 1.208 5.944 5.242 5.944 3.406 0 5.338-1.893 5.386-4.683zm-12.76 4.464h-2.85V2.981h2.85v16.982zm0 0h-2.85V2.981h2.85v16.982z" fill="#434242"/></g><defs><clipPath id="clip0"><path fill="#fff" d="M0 0h56v24H0z"/></clipPath></defs></svg>