<svg width="65" height="15" fill="none" xmlns="http://www.w3.org/2000/svg"><g clip-path="url(#clip0)" fill="#005DFF"><path d="M6.582 14.688H3.438L0 5.222V3.89h1.856L5.02 12.6l3.21-8.71h1.856v1.202l-3.505 9.596zm8.03-10.798H12.41v10.798h2.202V3.89zm10.203 10.798V8.912c0-1.622-1.443-2.889-3.073-2.889h-2.36v8.665H17.18V3.89h4.563c2.798 0 5.274 2.199 5.274 5.022v5.776h-2.202zm12.929-8.665h-3.721c-1.673 0-2.981 1.398-2.981 2.977v2.287L28.84 9c0-2.711 2.27-5.11 5.183-5.11h3.721v2.133z"/><path d="M37.744 14.688h-3.721c-2.914 0-5.183-2.4-5.183-5.11V9l2.202.578c0 1.579 1.308 2.976 2.98 2.976h3.722v2.134zm9.156 0l-3.832-4.267h-.99v4.267h-2.203V0h2.202v8.217h.99L46.92 3.89h1.452v1.472L45.04 9.317l3.332 3.936v1.435H46.9zm8.338.312c-3.212 0-5.62-2.534-5.62-5.646s2.408-5.623 5.62-5.623 5.596 2.511 5.596 5.623S58.45 15 55.238 15zm0-9.112c-1.995 0-3.395 1.533-3.395 3.466 0 1.933 1.4 3.49 3.395 3.49s3.37-1.557 3.37-3.49c0-1.933-1.375-3.466-3.37-3.466zM14.612 0H12.41v2.134h2.202V0zm50.387 12.843h-2.202v2.134h2.202v-2.134zm0-7.845h-2.202v2.134h2.202V4.998z"/></g><defs><clipPath id="clip0"><path fill="#fff" d="M0 0h65v15H0z"/></clipPath></defs></svg>