<svg width="65" height="15" viewBox="0 0 65 15" fill="none" xmlns="http://www.w3.org/2000/svg">
<g clip-path="url(#clip0)">
<path d="M6.58222 14.6879H3.43775L0 5.22207V3.88977H1.85591L5.0196 12.601L8.23138 3.88977H10.0873V5.09163L6.58222 14.6879Z" fill="#005DFF"/>
<path d="M14.6122 3.88977H12.4102V14.6879H14.6122V3.88977Z" fill="#005DFF"/>
<path d="M24.8149 14.6879V8.91151C24.8149 7.29039 23.3725 6.02331 21.7425 6.02331H19.3818V14.6879H17.1797V3.88977H21.7425C24.5408 3.88977 27.017 6.08853 27.017 8.91151V14.6879H24.8149Z" fill="#005DFF"/>
<path d="M37.7444 6.02331H34.0229C32.3497 6.02331 31.0419 7.42083 31.0419 9.00002V11.2873L28.8398 9.00002C28.8398 6.28884 31.1092 3.88977 34.0229 3.88977H37.7444V6.02331Z" fill="#005DFF"/>
<path d="M37.7444 14.6879H34.0229C31.1092 14.6879 28.8398 12.2888 28.8398 9.57764V9L31.0419 9.57764C31.0419 11.1568 32.3497 12.5543 34.0229 12.5543H37.7444V14.6879Z" fill="#005DFF"/>
<path d="M46.8996 14.6879L43.0675 10.4208H42.0771V14.6879H39.875V0H42.0771V8.21739H43.0675L46.9188 3.88975H48.3708V5.3618L45.0388 9.31677L48.3708 13.2531V14.6879H46.8996Z" fill="#005DFF"/>
<path d="M55.2378 15C52.026 15 49.6172 12.4658 49.6172 9.35399C49.6172 6.24219 52.026 3.73132 55.2378 3.73132C58.4496 3.73132 60.8344 6.24219 60.8344 9.35399C60.8344 12.4658 58.4496 15 55.2378 15ZM55.2378 5.88816C53.2425 5.88816 51.8433 7.42076 51.8433 9.35399C51.8433 11.2872 53.2425 12.8431 55.2378 12.8431C57.2331 12.8431 58.6082 11.2872 58.6082 9.35399C58.6082 7.42076 57.2331 5.88816 55.2378 5.88816Z" fill="#005DFF"/>
<path d="M14.6122 0H12.4102V2.13354H14.6122V0Z" fill="#005DFF"/>
<path d="M64.999 12.8433H62.7969V14.9768H64.999V12.8433Z" fill="#005DFF"/>
<path d="M64.999 4.99841H62.7969V7.13195H64.999V4.99841Z" fill="#005DFF"/>
</g>
<defs>
<clipPath id="clip0">
<rect width="65" height="15" fill="white"/>
</clipPath>
</defs>
</svg>
