<svg width="57" height="16" fill="none" xmlns="http://www.w3.org/2000/svg"><path d="M6.949 1.857h-1.1c-2.019 0-3.078.987-3.078 2.449 0 1.659.734 2.429 2.242 3.417l1.243.81-3.586 5.195H0l3.22-4.642C1.365 7.802.326 6.558.326 4.444.326 1.797 2.22 0 5.829 0h3.586v13.728H6.949V1.857z" fill="#FC3F1D"/><path d="M29.407 3.793h-7.071v.849c0 2.43-.163 5.57-1.02 7.23h-.753V16h2.241v-2.272h5.441V16h2.242v-4.13h-1.08V3.793zm-2.424 8.079h-3.424c.673-1.502.856-4.208.856-5.926v-.297h2.568v6.222zm-9.865-4.149h-3.24v-3.93h-2.425v9.935h2.425V9.58h3.24v4.148h2.425V3.793h-2.425v3.93zm37.538-2.271c.937 0 1.854.317 2.343.613V4.069c-.509-.276-1.406-.473-2.608-.473-3.097 0-4.707 2.153-4.707 5.175 0 3.318 1.569 5.155 4.809 5.155 1.12 0 1.915-.197 2.506-.612v-1.917c-.61.415-1.344.672-2.363.672-1.732 0-2.446-1.304-2.446-3.358 0-2.153.877-3.259 2.466-3.259zm-5.299-1.659h-2.445l-3.425 4.582V3.793h-2.425v9.935h2.425V8.85l3.588 4.878h2.75l-3.892-5.353 3.424-4.582zM35.44 3.595c-2.956 0-4.362 2.193-4.362 5.195 0 3.456 1.753 5.135 4.85 5.135 1.549 0 2.69-.395 3.404-.869v-1.915c-.755.493-2.017.928-3.2.928-1.773 0-2.445-.81-2.547-2.47h5.85V8.356c-.002-3.457-1.57-4.76-3.996-4.76zm1.528 4.266h-3.383c.062-1.58.652-2.41 1.814-2.41 1.202 0 1.57.968 1.57 2.212v.198z" fill="#000"/></svg>