<svg width="117" height="28" viewBox="0 0 117 28" fill="none" xmlns="http://www.w3.org/2000/svg">
<g clip-path="url(#clip0)">
<path d="M11.788 26.7798H6.15665L0 9.52116V7.09204H3.32373L8.98957 22.9748L14.7415 7.09204H18.0652V9.28335L11.788 26.7798Z" fill="#005DFF"/>
<path d="M26.1664 7.09204H22.2227V26.7798H26.1664V7.09204Z" fill="#005DFF"/>
<path d="M44.4394 26.7798V16.248C44.4394 13.2923 41.8562 10.982 38.9372 10.982H34.7093V26.7798H30.7656V7.09204H38.9372C43.9486 7.09204 48.3831 11.1009 48.3831 16.248V26.7798H44.4394Z" fill="#005DFF"/>
<path d="M67.5955 10.982H60.9308C57.9343 10.982 55.5921 13.5301 55.5921 16.4093V20.5796L51.6484 16.4093C51.6484 11.4662 55.7127 7.09204 60.9308 7.09204H67.5955V10.982Z" fill="#005DFF"/>
<path d="M67.5955 26.7799H60.9308C55.7127 26.7799 51.6484 22.4058 51.6484 17.4626V16.4094L55.5921 17.4626C55.5921 20.3419 57.9343 22.8899 60.9308 22.8899H67.5955V26.7799Z" fill="#005DFF"/>
<path d="M83.9904 26.7798L77.1277 18.9998H75.3539V26.7798H71.4102V0H75.3539V14.9824H77.1277L84.0248 7.09202H86.6253V9.77595L80.658 16.9869L86.6253 24.1638V26.7798H83.9904Z" fill="#005DFF"/>
<path d="M98.9292 27.3488C93.1772 27.3488 88.8633 22.7284 88.8633 17.0548C88.8633 11.3812 93.1772 6.80322 98.9292 6.80322C104.681 6.80322 108.952 11.3812 108.952 17.0548C108.952 22.7284 104.681 27.3488 98.9292 27.3488ZM98.9292 10.7357C95.3557 10.7357 92.85 13.53 92.85 17.0548C92.85 20.5796 95.3557 23.4164 98.9292 23.4164C102.503 23.4164 104.965 20.5796 104.965 17.0548C104.965 13.53 102.503 10.7357 98.9292 10.7357Z" fill="#005DFF"/>
<path d="M26.1664 0H22.2227V3.88999H26.1664V0Z" fill="#005DFF"/>
<path d="M116.409 23.4165H112.465V27.3065H116.409V23.4165Z" fill="#005DFF"/>
<path d="M116.409 9.11353H112.465V13.0035H116.409V9.11353Z" fill="#005DFF"/>
</g>
<defs>
<clipPath id="clip0">
<rect width="116.408" height="27.3489" fill="white"/>
</clipPath>
</defs>
</svg>
