<svg width="15" height="16" viewBox="0 0 15 16" fill="none" xmlns="http://www.w3.org/2000/svg">
<path d="M14.0625 14.8574C14.0625 15.4895 13.6436 16.0002 13.125 16.0002H8.4375V10.286H14.0625V14.8574ZM6.5625 16.0002H1.875C1.35645 16.0002 0.9375 15.4895 0.9375 14.8574V10.286H6.5625V16.0002ZM0.9375 4.57167H2.1709C1.98926 4.13953 1.875 3.66096 1.875 3.1431C1.875 1.41096 3.03223 0.000244141 4.45312 0.000244141C5.67188 0.000244141 6.45996 0.760959 7.4707 2.43953C8.48145 0.760959 9.26953 0.000244141 10.4883 0.000244141C11.9092 0.000244141 13.0664 1.41096 13.0664 3.1431C13.0664 3.66096 12.9551 4.13953 12.7705 4.57167H14.0625C14.5811 4.57167 15 5.08239 15 5.71453V8.57167C15 8.88596 14.7891 9.1431 14.5312 9.1431H0.46875C0.210938 9.1431 0 8.88596 0 8.57167V5.71453C0 5.08239 0.418945 4.57167 0.9375 4.57167ZM10.4912 4.57167C11.1387 4.57167 11.6631 3.93239 11.6631 3.1431C11.6631 2.35382 11.1387 1.71453 10.4912 1.71453C9.9082 1.71453 9.47754 1.83239 7.96875 4.57167H10.4912ZM4.45312 4.57167H6.97559C5.46973 1.83953 5.05078 1.71453 4.45312 1.71453C3.80566 1.71453 3.28125 2.35382 3.28125 3.1431C3.28125 3.93239 3.80566 4.57167 4.45312 4.57167Z" fill="white"/>
</svg>
