<svg width="14" height="14" viewBox="0 0 14 14" fill="none" xmlns="http://www.w3.org/2000/svg">
<path d="M6.9987 0.333374C5.68016 0.333374 4.39123 0.724367 3.2949 1.45691C2.19857 2.18945 1.34409 3.23064 0.839504 4.44882C0.33492 5.66699 0.202898 7.00744 0.460132 8.30064C0.717367 9.59385 1.35231 10.7817 2.28466 11.7141C3.21701 12.6464 4.40489 13.2814 5.6981 13.5386C6.99131 13.7958 8.33175 13.6638 9.54992 13.1592C10.7681 12.6547 11.8093 11.8002 12.5418 10.7038C13.2744 9.60751 13.6654 8.31858 13.6654 7.00004C13.6654 6.12456 13.4929 5.25766 13.1579 4.44882C12.8229 3.63998 12.3318 2.90505 11.7127 2.286C11.0937 1.66694 10.3588 1.17588 9.54992 0.840844C8.74109 0.505812 7.87418 0.333374 6.9987 0.333374ZM6.9987 11C6.86685 11 6.73795 10.9609 6.62832 10.8877C6.51869 10.8144 6.43324 10.7103 6.38278 10.5885C6.33232 10.4667 6.31912 10.3326 6.34484 10.2033C6.37057 10.074 6.43406 9.9552 6.5273 9.86197C6.62053 9.76873 6.73932 9.70524 6.86864 9.67952C6.99796 9.65379 7.13201 9.667 7.25382 9.71745C7.37564 9.76791 7.47976 9.85336 7.55301 9.96299C7.62627 10.0726 7.66537 10.2015 7.66537 10.3334C7.66537 10.5102 7.59513 10.6798 7.47011 10.8048C7.34508 10.9298 7.17551 11 6.9987 11ZM7.66537 7.56004V8.33337C7.66537 8.51019 7.59513 8.67975 7.47011 8.80478C7.34508 8.9298 7.17551 9.00004 6.9987 9.00004C6.82189 9.00004 6.65232 8.9298 6.5273 8.80478C6.40227 8.67975 6.33203 8.51019 6.33203 8.33337V7.00004C6.33203 6.82323 6.40227 6.65366 6.5273 6.52864C6.65232 6.40361 6.82189 6.33337 6.9987 6.33337C7.19648 6.33337 7.38982 6.27473 7.55427 6.16484C7.71872 6.05496 7.84689 5.89878 7.92258 5.71606C7.99827 5.53333 8.01807 5.33226 7.97949 5.13828C7.9409 4.9443 7.84566 4.76612 7.70581 4.62627C7.56596 4.48641 7.38777 4.39117 7.19379 4.35259C6.99981 4.314 6.79874 4.33381 6.61602 4.40949C6.43329 4.48518 6.27711 4.61336 6.16723 4.7778C6.05735 4.94225 5.9987 5.13559 5.9987 5.33337C5.9987 5.51019 5.92846 5.67975 5.80344 5.80478C5.67841 5.9298 5.50884 6.00004 5.33203 6.00004C5.15522 6.00004 4.98565 5.9298 4.86063 5.80478C4.73561 5.67975 4.66537 5.51019 4.66537 5.33337C4.66362 4.90024 4.78247 4.47517 5.00861 4.10576C5.23475 3.73634 5.55925 3.43716 5.94578 3.24171C6.33231 3.04626 6.76561 2.96226 7.19718 2.9991C7.62874 3.03595 8.04153 3.19219 8.38934 3.45034C8.73714 3.70849 9.00622 4.05835 9.16646 4.46075C9.32671 4.86316 9.37178 5.30222 9.29663 5.72879C9.22149 6.15536 9.02909 6.55259 8.74099 6.87601C8.45289 7.19944 8.08045 7.43628 7.66537 7.56004Z" fill="#D1DBE3"/>
</svg>
