<svg width="24" height="24" viewBox="0 0 24 24" fill="none" xmlns="http://www.w3.org/2000/svg">
<path d="M15.0673 9.95807C15.6333 8.22887 16.7602 5.65326 14.9401 4.31612C13.1694 3.01792 10.5055 6.06349 9.57336 7.21628C8.41277 8.65987 7.77146 9.87758 7.76367 11.7755C7.76367 14.2914 7.76367 16.8151 7.93244 19.3258C7.93645 19.5828 8.04032 19.8281 8.22205 20.0099C8.40378 20.1916 8.64911 20.2955 8.90608 20.2995C10.6612 20.2995 12.4164 20.2787 14.1716 20.2502C15.3088 20.2294 16.8017 20.4189 17.861 19.9204C19.6058 19.0974 20.0965 17.511 20.7742 15.8649C21.4518 14.2187 23.1109 11.451 21.7478 9.76074C20.9897 8.81825 19.9693 8.76113 18.8477 8.72219C17.2742 8.68324 15.7008 8.76373 14.1274 8.72219C12.8734 8.68584 12.876 10.6331 14.1274 10.6695C15.2646 10.7006 16.4019 10.6695 17.5391 10.6695C18.2868 10.6695 20.2497 10.2878 20.3432 11.3887C20.3639 11.6665 19.9641 12.6168 19.8005 13.0608C19.4578 13.9877 19.0813 14.899 18.7023 15.8103C18.2583 16.8904 17.8429 18.2016 16.446 18.2509C13.9353 18.3366 11.4194 18.3496 8.91647 18.3522L9.89011 19.3258C9.76549 17.5992 9.73693 15.8649 9.72395 14.1331C9.72395 12.7752 9.40459 10.9343 10.1523 9.74257C10.8185 8.68516 11.6266 7.72418 12.554 6.88654C12.8337 6.64674 13.1354 6.43376 13.455 6.25043C14.169 5.82462 14.0184 6.41659 13.9379 6.9177C13.7521 7.77559 13.5021 8.61833 13.1901 9.43879C12.7981 10.6357 14.6779 11.1446 15.0673 9.95807Z" fill="#005DFF"/>
<path d="M6.00055 18.2899C4.95875 18.3864 3.91114 18.4038 2.86671 18.3419L3.84036 19.3051C3.70015 17.511 3.72871 15.7169 3.7391 13.9202C3.7391 13.1023 3.7391 12.2897 3.70794 11.4744C3.70794 11.355 4.54658 11.3809 4.61149 11.3783C5.22423 11.3628 5.15153 11.6042 4.9594 11.1317C5.13855 11.5731 5.01912 12.3338 5.02172 12.8038C5.02172 13.5827 5.02171 14.3434 5.00873 15.1146C5.00873 16.4958 5.05028 17.8719 5.02691 19.2532C5.00614 20.5098 6.95343 20.5098 6.9742 19.2532C7.00795 17.2306 6.96122 15.2106 6.9742 13.1854C6.9742 11.8353 7.25201 9.72704 5.46829 9.47519C4.08442 9.28046 1.99433 9.38172 1.80219 11.1551C1.66718 12.378 1.80219 13.6762 1.80219 14.9094C1.80219 16.3764 1.80219 17.8408 1.91124 19.3051C1.91718 19.5615 2.02167 19.8057 2.20299 19.987C2.38431 20.1683 2.62853 20.2728 2.88489 20.2788C3.92931 20.3407 4.97693 20.3233 6.01873 20.2268C7.23903 20.1178 7.25201 18.1679 6.00055 18.2899Z" fill="#005DFF"/>
</svg>
