<svg width="24" height="24" viewBox="0 0 24 24" fill="none" xmlns="http://www.w3.org/2000/svg">
<path d="M11 2C5.486 2 1 6.486 1 12C1 17.514 5.486 22 11 22C16.514 22 21 17.514 21 12C21 6.486 16.514 2 11 2ZM11 20.1818C6.48848 20.1818 2.81818 16.5115 2.81818 12C2.81818 7.48855 6.48848 3.81818 11 3.81818C15.5115 3.81818 19.1818 7.48855 19.1818 12C19.1818 16.5115 15.5115 20.1818 11 20.1818Z" fill="#005DFF"/>
<path d="M14.7498 8.46448L9.60713 13.6071L7.25015 11.2501C6.89518 10.8951 6.31955 10.895 5.96452 11.25C5.60948 11.605 5.60948 12.1806 5.96452 12.5356L8.96428 15.5355C9.13476 15.706 9.36597 15.8018 9.60707 15.8018C9.60713 15.8018 9.60707 15.8018 9.60713 15.8018C9.84822 15.8018 10.0794 15.706 10.2499 15.5356L16.0354 9.75018C16.3905 9.39515 16.3905 8.81957 16.0354 8.46454C15.6804 8.10951 15.1048 8.10945 14.7498 8.46448Z" fill="#005DFF"/>
</svg>
