<svg width="20" height="20" viewBox="0 0 20 20" fill="none" xmlns="http://www.w3.org/2000/svg">
<path d="M16.667 6.66675H11.9903L12.9262 3.86091C13.0945 3.35425 13.0095 2.79258 12.697 2.35925C12.3845 1.92591 11.8778 1.66675 11.3437 1.66675H10.0003C9.75283 1.66675 9.51866 1.77675 9.35949 1.96675L5.44283 6.66675H3.33366C2.41449 6.66675 1.66699 7.41425 1.66699 8.33341V15.8334C1.66699 16.7526 2.41449 17.5001 3.33366 17.5001H14.4228C14.7619 17.499 15.0926 17.3949 15.3713 17.2018C15.65 17.0087 15.8636 16.7355 15.9837 16.4184L18.2812 10.2926C18.316 10.199 18.3338 10.0999 18.3337 10.0001V8.33341C18.3337 7.41425 17.5862 6.66675 16.667 6.66675ZM3.33366 8.33341H5.00033V15.8334H3.33366V8.33341ZM16.667 9.84925L14.4228 15.8334H6.66699V7.80175L10.3903 3.33341H11.3453L10.0437 7.23591C10.0014 7.36118 9.98962 7.49471 10.0093 7.62544C10.0289 7.75617 10.0795 7.88032 10.1567 7.98762C10.2339 8.09491 10.3356 8.18224 10.4534 8.24238C10.5711 8.30252 10.7015 8.33373 10.8337 8.33341H16.667V9.84925Z" fill="black"/>
</svg>
