<svg width="22" height="24" viewBox="0 0 22 24" fill="none" xmlns="http://www.w3.org/2000/svg">
<path d="M17.6497 2.84994L18.2597 6.70994L21.7697 8.49994L19.9997 11.9999L21.7797 15.4999L18.2397 17.2899L17.6297 21.1499L13.7397 20.5399L10.9697 23.2999L8.18973 20.4999L4.32973 21.1399L3.70973 17.2499L0.219727 15.4699L1.99973 11.9699L0.229727 8.49994L3.73973 6.68994L4.34973 2.85994L8.21973 3.49994L10.9997 0.689941L13.7697 3.45994L17.6497 2.84994ZM8.49973 6.99994C8.1019 6.99994 7.72037 7.15798 7.43907 7.43928C7.15776 7.72059 6.99973 8.10212 6.99973 8.49994C6.99973 8.89777 7.15776 9.2793 7.43907 9.5606C7.72037 9.84191 8.1019 9.99994 8.49973 9.99994C8.89755 9.99994 9.27908 9.84191 9.56039 9.5606C9.84169 9.2793 9.99973 8.89777 9.99973 8.49994C9.99973 8.10212 9.84169 7.72059 9.56039 7.43928C9.27908 7.15798 8.89755 6.99994 8.49973 6.99994ZM13.4997 13.9999C13.1019 13.9999 12.7204 14.158 12.4391 14.4393C12.1578 14.7206 11.9997 15.1021 11.9997 15.4999C11.9997 15.8978 12.1578 16.2793 12.4391 16.5606C12.7204 16.8419 13.1019 16.9999 13.4997 16.9999C13.8976 16.9999 14.2791 16.8419 14.5604 16.5606C14.8417 16.2793 14.9997 15.8978 14.9997 15.4999C14.9997 15.1021 14.8417 14.7206 14.5604 14.4393C14.2791 14.158 13.8976 13.9999 13.4997 13.9999ZM7.40973 16.9999L15.9997 8.40994L14.5897 6.99994L5.99973 15.5899L7.40973 16.9999Z" fill="#005DFF"/>
</svg>
