<svg width="20" height="20" viewBox="0 0 20 20" fill="none" xmlns="http://www.w3.org/2000/svg">
<path fill-rule="evenodd" clip-rule="evenodd" d="M14 17V12H6V17C6 17.552 6.448 18 7 18H13C13.552 18 14 17.552 14 17ZM6 3V10H14V3C14 2.448 13.552 2 13 2H7C6.448 2 6 2.448 6 3ZM16 2V18C16 19.105 15.105 20 14 20H6C4.895 20 4 19.105 4 18V2C4 0.895 4.895 0 6 0H14C15.105 0 16 0.895 16 2ZM11.021 15C11.021 15.552 10.573 16 10.021 16C9.469 16 9.021 15.552 9.021 15C9.021 14.448 9.469 14 10.021 14C10.573 14 11.021 14.448 11.021 15Z" fill="#005DFF"/>
</svg>
