<svg width="20" height="20" viewBox="0 0 20 20" fill="none" xmlns="http://www.w3.org/2000/svg">
<path fill-rule="evenodd" clip-rule="evenodd" d="M2 15.7385V17.9998H4.27758C4.27758 16.7504 3.25836 15.7385 2 15.7385ZM2 11.0451V13.3064C4.27758 13.3064 6.6121 15.5678 6.6121 17.8291H8.88968C8.88968 14.4371 5.41637 11.0451 2 11.0451ZM2 2V4.26132C9.97153 4.26132 15.7224 9.91464 15.7224 17.8293H18C18 8.78397 11.1103 2 2 2ZM13.4448 17.8293H11.1673C11.1673 12.176 6.55516 8.78397 2 8.78397V6.52264C8.83274 6.52264 13.4448 11.0453 13.4448 17.8293Z" fill="#005DFF"/>
</svg>
