<svg width="16" height="16" viewBox="0 0 16 16" fill="none" xmlns="http://www.w3.org/2000/svg">
<path d="M8.00017 1.33325C6.68162 1.33325 5.39269 1.72425 4.29636 2.45679C3.20004 3.18933 2.34555 4.23052 1.84097 5.4487C1.33638 6.66687 1.20436 8.00731 1.4616 9.30052C1.71883 10.5937 2.35377 11.7816 3.28612 12.714C4.21847 13.6463 5.40636 14.2813 6.69956 14.5385C7.99277 14.7957 9.33321 14.6637 10.5514 14.1591C11.7696 13.6545 12.8108 12.8 13.5433 11.7037C14.2758 10.6074 14.6668 9.31846 14.6668 7.99992C14.6668 7.12444 14.4944 6.25753 14.1594 5.4487C13.8243 4.63986 13.3333 3.90493 12.7142 3.28587C12.0952 2.66682 11.3602 2.17575 10.5514 1.84072C9.74255 1.50569 8.87564 1.33325 8.00017 1.33325ZM8.00017 11.9999C7.86831 11.9999 7.73942 11.9608 7.62979 11.8876C7.52015 11.8143 7.4347 11.7102 7.38425 11.5884C7.33379 11.4666 7.32059 11.3325 7.34631 11.2032C7.37203 11.0739 7.43553 10.9551 7.52876 10.8618C7.622 10.7686 7.74078 10.7051 7.87011 10.6794C7.99943 10.6537 8.13347 10.6669 8.25529 10.7173C8.37711 10.7678 8.48122 10.8532 8.55448 10.9629C8.62773 11.0725 8.66683 11.2014 8.66683 11.3333C8.66683 11.5101 8.59659 11.6796 8.47157 11.8047C8.34655 11.9297 8.17698 11.9999 8.00017 11.9999ZM8.66683 8.55992V9.33325C8.66683 9.51006 8.59659 9.67963 8.47157 9.80466C8.34655 9.92968 8.17698 9.99992 8.00017 9.99992C7.82335 9.99992 7.65379 9.92968 7.52876 9.80466C7.40374 9.67963 7.3335 9.51006 7.3335 9.33325V7.99992C7.3335 7.82311 7.40374 7.65354 7.52876 7.52851C7.65379 7.40349 7.82335 7.33325 8.00017 7.33325C8.19795 7.33325 8.39129 7.2746 8.55574 7.16472C8.72018 7.05484 8.84836 6.89866 8.92405 6.71594C8.99973 6.53321 9.01954 6.33214 8.98095 6.13816C8.94237 5.94418 8.84713 5.766 8.70727 5.62615C8.56742 5.48629 8.38924 5.39105 8.19526 5.35247C8.00128 5.31388 7.80021 5.33368 7.61748 5.40937C7.43476 5.48506 7.27858 5.61323 7.1687 5.77768C7.05881 5.94213 7.00017 6.13547 7.00017 6.33325C7.00017 6.51006 6.92993 6.67963 6.8049 6.80466C6.67988 6.92968 6.51031 6.99992 6.3335 6.99992C6.15669 6.99992 5.98712 6.92968 5.86209 6.80466C5.73707 6.67963 5.66683 6.51006 5.66683 6.33325C5.66509 5.90012 5.78394 5.47505 6.01008 5.10564C6.23621 4.73622 6.56071 4.43704 6.94724 4.24159C7.33377 4.04614 7.76708 3.96213 8.19864 3.99898C8.63021 4.03583 9.043 4.19207 9.3908 4.45022C9.73861 4.70836 10.0077 5.05823 10.1679 5.46063C10.3282 5.86303 10.3732 6.3021 10.2981 6.72867C10.223 7.15523 10.0306 7.55247 9.74245 7.87589C9.45435 8.19931 9.08191 8.43616 8.66683 8.55992Z" fill="#005DFF"/>
</svg>
