<svg width="24" height="24" viewBox="0 0 24 24" fill="none" xmlns="http://www.w3.org/2000/svg">
<path d="M11.9916 12.0983C12.7924 12.0983 13.5753 11.8609 14.2412 11.4159C14.907 10.971 15.426 10.3386 15.7325 9.59873C16.039 8.85884 16.1192 8.04468 15.9629 7.25922C15.8067 6.47376 15.421 5.75226 14.8548 5.18598C14.2885 4.61969 13.567 4.23404 12.7815 4.07781C11.996 3.92157 11.1819 4.00175 10.442 4.30823C9.70211 4.6147 9.06972 5.13369 8.62479 5.79957C8.17986 6.46546 7.94238 7.24832 7.94238 8.04917C7.94238 9.12308 8.36899 10.153 9.12836 10.9124C9.88772 11.6717 10.9176 12.0983 11.9916 12.0983ZM11.9916 6.02459C12.392 6.02459 12.7834 6.14333 13.1164 6.36579C13.4493 6.58826 13.7088 6.90445 13.862 7.2744C14.0153 7.64434 14.0554 8.05142 13.9772 8.44415C13.8991 8.83688 13.7063 9.19763 13.4232 9.48077C13.14 9.76392 12.7793 9.95674 12.3865 10.0349C11.9938 10.113 11.5867 10.0729 11.2168 9.91965C10.8468 9.76641 10.5306 9.50691 10.3082 9.17397C10.0857 8.84103 9.96697 8.4496 9.96697 8.04917C9.96697 7.51222 10.1803 6.99726 10.56 6.61758C10.9396 6.23789 11.4546 6.02459 11.9916 6.02459Z" fill="#005DFF"/>
<path d="M11.9922 13.1106C10.324 13.1272 8.71408 13.7261 7.44056 14.8037C6.16705 15.8812 5.30999 17.3699 5.01748 19.0123C4.99269 19.1439 4.99428 19.2792 5.02218 19.4103C5.05008 19.5414 5.10372 19.6656 5.17999 19.7758C5.25627 19.886 5.35366 19.9799 5.46652 20.0521C5.57937 20.1244 5.70545 20.1735 5.83744 20.1966C5.96911 20.2199 6.10407 20.2168 6.23454 20.1875C6.36501 20.1583 6.4884 20.1035 6.59758 20.0264C6.70676 19.9492 6.79956 19.8511 6.87064 19.7379C6.94172 19.6246 6.98966 19.4984 7.0117 19.3666C7.223 18.1996 7.83739 17.1438 8.74764 16.3836C9.6579 15.6234 10.8062 15.2069 11.9922 15.2069C13.1781 15.2069 14.3265 15.6234 15.2367 16.3836C16.147 17.1438 16.7614 18.1996 16.9727 19.3666C17.0136 19.6042 17.1381 19.8195 17.3237 19.9735C17.5093 20.1276 17.7438 20.2103 17.985 20.2068H18.157C18.288 20.1836 18.4131 20.1348 18.5252 20.0632C18.6373 19.9916 18.7342 19.8986 18.8104 19.7896C18.8865 19.6805 18.9404 19.5575 18.969 19.4276C18.9976 19.2977 19.0003 19.1635 18.977 19.0325C18.6884 17.3847 17.8317 15.8901 16.5557 14.8082C15.2797 13.7264 13.665 13.1257 11.9922 13.1106Z" fill="#005DFF"/>
</svg>
