<svg width="24" height="24" viewBox="0 0 24 24" fill="none" xmlns="http://www.w3.org/2000/svg">
<path d="M13.4955 14.7257H9.44883V16.9243H15.6822V18.77H9.44883V22H7.13645V18.77H5V16.9243H7.13645V14.7257H5V12.4457H7.13645V3H13.4955C15.0203 3 16.319 3.57905 17.3914 4.73714C18.4638 5.87714 19 7.26143 19 8.89C19 10.5186 18.4638 11.9029 17.3914 13.0429C16.3357 14.1648 15.0371 14.7257 13.4955 14.7257ZM9.44883 5.36143V12.4457H13.4955C14.3668 12.4457 15.1125 12.1019 15.7325 11.4143C16.3692 10.7086 16.6876 9.86714 16.6876 8.89C16.6876 7.91286 16.3776 7.08048 15.7576 6.39286C15.1376 5.70524 14.3836 5.36143 13.4955 5.36143H9.44883Z" fill="#005DFF"/>
</svg>
