<svg width="23" height="23" viewBox="0 0 23 23" fill="none" xmlns="http://www.w3.org/2000/svg">
<path fill-rule="evenodd" clip-rule="evenodd" d="M0 11.5C0 5.14873 5.14873 0 11.5 0C17.8513 0 23 5.14873 23 11.5C23 17.8513 17.8513 23 11.5 23C5.14873 23 0 17.8513 0 11.5Z" fill="#005DFF"/>
<path d="M13.6335 11.8971L10.1637 15.3572C9.94293 15.5774 9.58506 15.5774 9.36445 15.3572C9.14382 15.1372 9.14382 14.7803 9.36445 14.5603L12.4347 11.4987L9.36454 8.43713C9.14391 8.21702 9.14391 7.8602 9.36454 7.64018C9.58517 7.42007 9.94302 7.42007 10.1637 7.64018L13.6336 11.1003C13.7439 11.2104 13.799 11.3545 13.799 11.4987C13.799 11.6429 13.7438 11.7871 13.6335 11.8971Z" fill="url(#paint0_linear)"/>
<defs>
<linearGradient id="paint0_linear" x1="13.799" y1="15.5224" x2="1.94786" y2="14.5013" gradientUnits="userSpaceOnUse">
<stop stop-color="white"/>
</linearGradient>
</defs>
</svg>
