<svg width="20" height="16" viewBox="0 0 20 16" fill="none" xmlns="http://www.w3.org/2000/svg">
<path fill-rule="evenodd" clip-rule="evenodd" d="M10 7.5C7.791 7.5 6 9.291 6 11.5C6 13.709 7.791 15.5 10 15.5C12.209 15.5 14 13.709 14 11.5C14 9.291 12.209 7.5 10 7.5ZM7 4V3C7 2.448 7.448 2 8 2H12C12.552 2 13 2.448 13 3V4H7ZM13 0H7C5.895 0 5 0.895 5 2V4H2C0.895 4 0 4.895 0 6V14C0 15.105 0.895 16 2 16H3C3.552 16 4 15.552 4 15C4 14.448 3.552 14 3 14C2.448 14 2 13.552 2 13V7C2 6.448 2.448 6 3 6H17C17.552 6 18 6.448 18 7V13C18 13.552 17.552 14 17 14C16.448 14 16 14.448 16 15C16 15.552 16.448 16 17 16H18C19.105 16 20 15.105 20 14V4H19V3C19 2.448 18.552 2 18 2C17.448 2 17 2.448 17 3V4H15V2C15 0.895 14.105 0 13 0ZM10 9.5C11.103 9.5 12 10.397 12 11.5C12 12.603 11.103 13.5 10 13.5C8.897 13.5 8 12.603 8 11.5C8 10.397 8.897 9.5 10 9.5Z" fill="black"/>
</svg>
