<svg width="30" height="30" viewBox="0 0 30 30" fill="none" xmlns="http://www.w3.org/2000/svg">
<path fill-rule="evenodd" clip-rule="evenodd" d="M11.2475 3.66663H12.9143C13.1445 3.66663 13.3311 3.84785 13.3311 4.07141V25.9297C13.3311 26.1533 13.1445 26.3345 12.9143 26.3345H11.2475C11.0174 26.3345 10.8308 26.1533 10.8308 25.9297V4.07141C10.8308 3.84785 11.0174 3.66663 11.2475 3.66663ZM24.5809 7.71448H22.914C22.6839 7.71448 22.4973 7.89571 22.4973 8.11926V25.9298C22.4973 26.1533 22.6839 26.3345 22.914 26.3345H24.5809C24.811 26.3345 24.9976 26.1533 24.9976 25.9298V8.11926C24.9976 7.89571 24.811 7.71448 24.5809 7.71448ZM17.0833 13.3814H18.7501C18.9802 13.3814 19.1668 13.5626 19.1668 13.7862V25.9297C19.1668 26.1533 18.9802 26.3345 18.7501 26.3345H17.0833C16.8531 26.3345 16.6665 26.1533 16.6665 25.9297V13.7862C16.6665 13.5626 16.8531 13.3814 17.0833 13.3814ZM5.41671 18.2389H7.08354C7.31368 18.2389 7.50024 18.4201 7.50024 18.6437V25.9298C7.50024 26.1533 7.31368 26.3346 7.08354 26.3346H5.41671C5.18657 26.3346 5 26.1533 5 25.9298V18.6437C5 18.4201 5.18657 18.2389 5.41671 18.2389Z" fill="#005DFF"/>
</svg>
