<svg width="26" height="26" viewBox="0 0 26 26" fill="none" xmlns="http://www.w3.org/2000/svg">
<path d="M17.0625 13C17.0625 14.0774 16.6345 15.1108 15.8726 15.8726C15.1108 16.6345 14.0774 17.0625 13 17.0625C11.9226 17.0625 10.8892 16.6345 10.1274 15.8726C9.36551 15.1108 8.9375 14.0774 8.9375 13C8.9375 11.9226 9.36551 10.8892 10.1274 10.1274C10.8892 9.36551 11.9226 8.9375 13 8.9375C14.0774 8.9375 15.1108 9.36551 15.8726 10.1274C16.6345 10.8892 17.0625 11.9226 17.0625 13Z" fill="#FF5252"/>
<path d="M0 13C0 13 4.875 4.0625 13 4.0625C21.125 4.0625 26 13 26 13C26 13 21.125 21.9375 13 21.9375C4.875 21.9375 0 13 0 13ZM13 18.6875C14.5084 18.6875 15.9551 18.0883 17.0217 17.0217C18.0883 15.9551 18.6875 14.5084 18.6875 13C18.6875 11.4916 18.0883 10.0449 17.0217 8.97833C15.9551 7.91172 14.5084 7.3125 13 7.3125C11.4916 7.3125 10.0449 7.91172 8.97833 8.97833C7.91172 10.0449 7.3125 11.4916 7.3125 13C7.3125 14.5084 7.91172 15.9551 8.97833 17.0217C10.0449 18.0883 11.4916 18.6875 13 18.6875Z" fill="#005DFF"/>
</svg>
