<svg width="24" height="24" viewBox="0 0 24 24" fill="none" xmlns="http://www.w3.org/2000/svg">
<g clip-path="url(#clip0)">
<path d="M17 22H13V19H11V22H7V19H5V23C5 23.2652 5.10536 23.5196 5.29289 23.7071C5.48043 23.8946 5.73478 24 6 24H18C18.2652 24 18.5196 23.8946 18.7071 23.7071C18.8946 23.5196 19 23.2652 19 23V19H17V22Z" fill="black"/>
<path d="M6.425 16.2296C7.84663 17.3712 9.82675 18 12 18C14.1733 18 16.1534 17.3712 17.575 16.2296C19.1618 14.9566 20 13.1482 20 11C20 9.25122 18.9175 6.46397 17.6362 4.91347C17.4917 4.73854 17.292 4.61798 17.0699 4.57157C16.8478 4.52516 16.6165 4.55567 16.414 4.65809L14.5824 5.58472L12.9487 0.683716C12.8846 0.491284 12.7635 0.322893 12.6015 0.200889C12.4395 0.0788864 12.2442 0.00903975 12.0415 0.000618444C11.8389 -0.00780286 11.6384 0.0455993 11.4668 0.153738C11.2953 0.261877 11.1606 0.41964 11.0808 0.606091L8.54537 6.52222L7.02238 5.54809C6.80704 5.41038 6.54715 5.36036 6.29608 5.40829C6.04501 5.45623 5.82183 5.59848 5.67238 5.80584C4.68675 7.17347 4 9.64084 4 11C4 13.1482 4.83825 14.9566 6.425 16.2296ZM10 14C10 13.3625 10.9399 11.8738 12 10.5483C13.0601 11.874 14 13.3625 14 14C14 14.5304 13.7893 15.0391 13.4142 15.4142C13.0391 15.7893 12.5304 16 12 16C11.4696 16 10.9609 15.7893 10.5858 15.4142C10.2107 15.0391 10 14.5304 10 14ZM6.82825 7.79797L8.46113 8.84234C8.58341 8.92058 8.72125 8.97126 8.86509 8.99085C9.00893 9.01044 9.15531 8.99849 9.29406 8.95581C9.43282 8.91313 9.56061 8.84075 9.66858 8.74371C9.77654 8.64666 9.86208 8.52728 9.91925 8.39384L11.883 3.81147L13.0513 7.31622C13.0967 7.4525 13.1709 7.5774 13.269 7.68241C13.367 7.78742 13.4865 7.87007 13.6194 7.92474C13.7522 7.97941 13.8953 8.00481 14.0388 7.99922C14.1824 7.99363 14.3231 7.95718 14.4513 7.89234L16.5545 6.82834C17.3965 8.15884 18 10.0125 18 11C18 12.93 17.1154 14.2076 15.8761 14.9886C15.9585 14.6655 16.0002 14.3334 16 14C16 12.0586 13.2875 8.93747 12.7443 8.33209C12.6505 8.22759 12.5357 8.144 12.4075 8.08678C12.2793 8.02956 12.1404 7.99999 12 7.99999C11.8596 7.99999 11.7207 8.02956 11.5925 8.08678C11.4643 8.144 11.3495 8.22759 11.2557 8.33209C10.7125 8.93747 8 12.0586 8 14C7.99985 14.3334 8.04146 14.6655 8.12387 14.9886C6.88462 14.2076 6 12.93 6 11C6 10.2225 6.34275 8.84472 6.82825 7.79797Z" fill="black"/>
</g>
<defs>
<clipPath id="clip0">
<rect width="24" height="24" fill="white"/>
</clipPath>
</defs>
</svg>
