<svg width="24" height="24" viewBox="0 0 24 24" fill="none" xmlns="http://www.w3.org/2000/svg">
<g clip-path="url(#clip0)">
<path fill-rule="evenodd" clip-rule="evenodd" d="M12 18C9.82675 18 7.84663 17.3713 6.425 16.2297C4.83825 14.9567 4 13.1483 4 11C4 9.6409 4.68675 7.17353 5.67238 5.8059C5.82183 5.59855 6.04501 5.45629 6.29608 5.40836C6.54715 5.36042 6.80704 5.41044 7.02238 5.54815L8.54537 6.52228L11.0808 0.606152C11.1606 0.419701 11.2953 0.261938 11.4668 0.153799C11.6384 0.0456604 11.8389 -0.00774182 12.0415 0.000679479C12.2442 0.00910078 12.4395 0.0789474 12.6015 0.20095C12.7635 0.322954 12.8846 0.491345 12.9487 0.683777L14.5824 5.58478L16.414 4.65815C16.6165 4.55574 16.8478 4.52522 17.0699 4.57163C17.292 4.61804 17.4917 4.73861 17.6362 4.91353C18.9175 6.46403 20 9.25128 20 11C20 13.1483 19.1618 14.9567 17.575 16.2297C16.1534 17.3713 14.1733 18 12 18ZM12 10.5484C10.9399 11.8739 10 13.3625 10 14C10 14.5305 10.2107 15.0392 10.5858 15.4142C10.9609 15.7893 11.4696 16 12 16C12.5304 16 13.0391 15.7893 13.4142 15.4142C13.7893 15.0392 14 14.5305 14 14C14 13.3625 13.0601 11.874 12 10.5484ZM8.46113 8.8424L6.82825 7.79803C6.34275 8.84478 6 10.2225 6 11C6 12.93 6.88462 14.2077 8.12387 14.9887C8.04146 14.6656 7.99985 14.3334 8 14C8 12.0587 10.7125 8.93753 11.2557 8.33215C11.3495 8.22765 11.4643 8.14406 11.5925 8.08684C11.7207 8.02963 11.8596 8.00005 12 8.00005C12.1404 8.00005 12.2793 8.02963 12.4075 8.08684C12.5357 8.14406 12.6505 8.22765 12.7443 8.33215C13.2875 8.93753 16 12.0587 16 14C16.0002 14.3334 15.9585 14.6656 15.8761 14.9887C17.1154 14.2077 18 12.93 18 11C18 10.0125 17.3965 8.1589 16.5545 6.8284L14.4513 7.8924C14.3231 7.95724 14.1824 7.99369 14.0388 7.99928C13.8953 8.00487 13.7522 7.97947 13.6194 7.9248C13.4865 7.87013 13.367 7.78748 13.269 7.68247C13.1709 7.57746 13.0967 7.45256 13.0513 7.31628L11.883 3.81153L9.91925 8.3939C9.86208 8.52734 9.77654 8.64673 9.66858 8.74377C9.56061 8.84082 9.43282 8.91319 9.29406 8.95587C9.15531 8.99855 9.00893 9.0105 8.86509 8.99091C8.72125 8.97132 8.58341 8.92064 8.46113 8.8424ZM13 22.0001H17V19.0001H19V23.0001C19 23.2653 18.8946 23.5197 18.7071 23.7072C18.5196 23.8948 18.2652 24.0001 18 24.0001H6C5.73478 24.0001 5.48043 23.8948 5.29289 23.7072C5.10536 23.5197 5 23.2653 5 23.0001V19.0001H7V22.0001H11V19.0001H13V22.0001Z" fill="#005DFF"/>
</g>
<defs>
<clipPath id="clip0">
<rect width="24" height="24" fill="white"/>
</clipPath>
</defs>
</svg>
