<svg width="64" height="64" viewBox="0 0 64 64" fill="none" xmlns="http://www.w3.org/2000/svg">
<g clip-path="url(#clip0)">
<path d="M57.3744 7.6828H16.2946C16.06 7.58864 15.799 7.58864 15.5644 7.6828H6.62555C2.96806 7.68666 0.00385463 10.6509 0 14.3084V49.7621C0.00385463 53.4196 2.96806 56.3838 6.62555 56.3877H57.3744C61.0319 56.3838 63.9961 53.4196 64 49.7621V14.3084C63.9961 10.6509 61.0319 7.68666 57.3744 7.6828ZM62.0264 14.3084V39.3304H23.8519C25.3684 38.4251 26.2996 36.7913 26.3051 35.0253C26.3051 32.2461 24.0138 29.9851 21.1977 29.9851C19.4758 29.9835 17.8684 30.8447 16.9163 32.2792V9.65637H57.3744C59.9422 9.65913 62.0237 11.7406 62.0264 14.3084ZM7.52753 35.0253C7.54846 33.3139 8.95044 31.9422 10.6613 31.9587C11.2192 31.9587 11.7671 32.1046 12.2511 32.3827C13.0242 32.8243 13.5677 33.5798 13.7401 34.4537L14.6002 38.8866L10.0716 38.0369C8.61013 37.7753 7.5413 36.5105 7.52753 35.0253ZM17.2594 38.8866L18.1189 34.4537C18.4471 32.8932 19.8921 31.826 21.4802 31.9725C23.0677 32.1184 24.2941 33.4312 24.3315 35.0253C24.3177 36.5099 23.2494 37.7748 21.788 38.0369L17.2594 38.8866ZM6.62555 9.65637H14.9427V32.2797C14.5072 31.6184 13.9229 31.0683 13.2368 30.6729C12.4537 30.2219 11.5655 29.9846 10.6619 29.9851C7.84526 29.9851 5.55452 32.2461 5.55452 35.0253C5.56002 36.7913 6.49119 38.4257 8.00771 39.3304H1.97357V14.3084C1.97632 11.7406 4.05782 9.65913 6.62555 9.65637ZM1.97357 49.7621V41.304H13.5474L8.88822 45.9631C8.50275 46.3486 8.50275 46.973 8.88822 47.3585C9.27368 47.7439 9.89813 47.7439 10.2836 47.3585L14.9427 42.6993V54.4141H6.62555C4.05782 54.4113 1.97632 52.3298 1.97357 49.7621ZM57.3744 54.4141H16.9163V42.6993L23.1966 48.9796C23.582 49.3651 24.2065 49.3651 24.592 48.9796C24.9774 48.5942 24.9774 47.9697 24.592 47.5842L18.3117 41.304H62.0264V49.7621C62.0237 52.3298 59.9422 54.4113 57.3744 54.4141Z" fill="#FFCB45"/>
</g>
<defs>
<clipPath id="clip0">
<rect width="64" height="64" fill="white"/>
</clipPath>
</defs>
</svg>
