<svg width="22" height="22" viewBox="0 0 22 22" fill="none" xmlns="http://www.w3.org/2000/svg">
<path d="M11 0C10.644 0 10.3555 0.288578 10.3555 0.644531C10.3555 1.00048 10.644 1.28906 11 1.28906C16.3546 1.28906 20.7109 5.64536 20.7109 11C20.7109 16.3546 16.3546 20.7109 11 20.7109C5.64536 20.7109 1.28906 16.3546 1.28906 11C1.28906 8.40654 2.37918 5.90253 4.25464 4.08048V5.19922C4.25464 5.55517 4.54321 5.84375 4.89917 5.84375C5.25512 5.84375 5.54297 5.55517 5.54297 5.19922V2.62109C5.54297 2.26514 5.25512 1.97656 4.89917 1.97656H2.29883C1.94288 1.97656 1.6543 2.26514 1.6543 2.62109C1.6543 2.97705 1.94288 3.26133 2.29883 3.26133H3.24466C1.1605 5.34196 0 8.12449 0 11C0 17.0474 4.95039 22 11 22C17.0474 22 22 17.0496 22 11C22 4.95258 17.0496 0 11 0Z" fill="#818181"/>
<path d="M11 3.91016C7.09092 3.91016 3.91016 7.09195 3.91016 11C3.91016 14.9093 7.09221 18.0898 11 18.0898C14.9091 18.0898 18.0898 14.9081 18.0898 11C18.0898 7.09066 14.9078 3.91016 11 3.91016ZM15.5302 14.6187L15.1018 14.1903C14.8501 13.9385 14.442 13.9385 14.1903 14.1903C13.9386 14.442 13.9386 14.85 14.1903 15.1018L14.6187 15.5302C13.784 16.1982 12.7617 16.6407 11.6445 16.7648V16.1562C11.6445 15.8003 11.356 15.5117 11 15.5117C10.644 15.5117 10.3555 15.8003 10.3555 16.1562V16.7648C9.23828 16.6407 8.21597 16.1982 7.38134 15.5302L7.80974 15.1018C8.06145 14.85 8.06145 14.442 7.80974 14.1903C7.55807 13.9385 7.14996 13.9385 6.89825 14.1903L6.46985 14.6187C5.80181 13.784 5.35928 12.7617 5.23523 11.6445H5.84375C6.1997 11.6445 6.48828 11.356 6.48828 11C6.48828 10.644 6.1997 10.3555 5.84375 10.3555H5.23523C5.35932 9.23828 5.80181 8.21597 6.46985 7.38134L6.89825 7.80974C7.14991 8.06145 7.55807 8.06145 7.80974 7.80974C8.06145 7.55803 8.06145 7.14996 7.80974 6.89825L7.38134 6.46985C8.21597 5.80181 9.23828 5.35932 10.3555 5.23523V5.84375C10.3555 6.1997 10.644 6.48828 11 6.48828C11.356 6.48828 11.6445 6.1997 11.6445 5.84375V5.23523C12.7617 5.35932 13.784 5.80181 14.6187 6.46985L14.1903 6.89825C13.9385 7.14996 13.9385 7.55803 14.1903 7.80974C14.4419 8.06145 14.8501 8.06145 15.1018 7.80974L15.5301 7.38134C16.1982 8.21597 16.6407 9.23828 16.7648 10.3555H16.1562C15.8003 10.3555 15.5117 10.644 15.5117 11C15.5117 11.356 15.8003 11.6402 16.1562 11.6402H16.7648C16.6407 12.7574 16.1982 13.784 15.5302 14.6187Z" fill="#818181"/>
<path d="M12.7448 11.8333L11.6445 10.733V8.42188C11.6445 8.06592 11.356 7.77734 11 7.77734C10.644 7.77734 10.3555 8.06592 10.3555 8.42188V11C10.3555 11.1709 10.4234 11.3349 10.5443 11.4557L11.8333 12.7448C12.085 12.9965 12.4932 12.9965 12.7448 12.7448C12.9965 12.4931 12.9965 12.085 12.7448 11.8333Z" fill="#818181"/>
</svg>
