<svg width="16" height="16" viewBox="0 0 16 16" fill="none" xmlns="http://www.w3.org/2000/svg">
<path d="M7.99968 1.33301C6.68114 1.33301 5.3922 1.724 4.29588 2.45654C3.19955 3.18909 2.34506 4.23028 1.84048 5.44845C1.3359 6.66663 1.20387 8.00707 1.46111 9.30028C1.71834 10.5935 2.35328 11.7814 3.28563 12.7137C4.21798 13.6461 5.40587 14.281 6.69908 14.5382C7.99228 14.7955 9.33273 14.6635 10.5509 14.1589C11.7691 13.6543 12.8103 12.7998 13.5428 11.7035C14.2753 10.6071 14.6663 9.31822 14.6663 7.99967C14.6663 7.1242 14.4939 6.25729 14.1589 5.44845C13.8238 4.63961 13.3328 3.90469 12.7137 3.28563C12.0947 2.66657 11.3597 2.17551 10.5509 1.84048C9.74206 1.50545 8.87516 1.33301 7.99968 1.33301ZM7.99968 11.9997C7.86782 11.9997 7.73893 11.9606 7.6293 11.8873C7.51966 11.8141 7.43422 11.7099 7.38376 11.5881C7.3333 11.4663 7.3201 11.3323 7.34582 11.2029C7.37154 11.0736 7.43504 10.9548 7.52827 10.8616C7.62151 10.7684 7.7403 10.7049 7.86962 10.6792C7.99894 10.6534 8.13298 10.6666 8.2548 10.7171C8.37662 10.7675 8.48074 10.853 8.55399 10.9626C8.62724 11.0723 8.66634 11.2012 8.66634 11.333C8.66634 11.5098 8.59611 11.6794 8.47108 11.8044C8.34606 11.9294 8.17649 11.9997 7.99968 11.9997ZM8.66634 8.55967V9.33301C8.66634 9.50982 8.59611 9.67939 8.47108 9.80441C8.34606 9.92944 8.17649 9.99967 7.99968 9.99967C7.82287 9.99967 7.6533 9.92944 7.52827 9.80441C7.40325 9.67939 7.33301 9.50982 7.33301 9.33301V7.99967C7.33301 7.82286 7.40325 7.65329 7.52827 7.52827C7.6533 7.40325 7.82287 7.33301 7.99968 7.33301C8.19746 7.33301 8.3908 7.27436 8.55525 7.16448C8.7197 7.0546 8.84787 6.89842 8.92356 6.71569C8.99924 6.53297 9.01905 6.3319 8.98046 6.13792C8.94188 5.94394 8.84664 5.76575 8.70678 5.6259C8.56693 5.48605 8.38875 5.39081 8.19477 5.35222C8.00079 5.31364 7.79972 5.33344 7.61699 5.40913C7.43427 5.48482 7.27809 5.61299 7.16821 5.77744C7.05833 5.94189 6.99968 6.13523 6.99968 6.33301C6.99968 6.50982 6.92944 6.67939 6.80442 6.80441C6.67939 6.92944 6.50982 6.99967 6.33301 6.99967C6.1562 6.99967 5.98663 6.92944 5.86161 6.80441C5.73658 6.67939 5.66634 6.50982 5.66634 6.33301C5.6646 5.89988 5.78345 5.47481 6.00959 5.10539C6.23573 4.73598 6.56022 4.43679 6.94675 4.24134C7.33329 4.04589 7.76659 3.96189 8.19815 3.99874C8.62972 4.03558 9.04251 4.19183 9.39031 4.44997C9.73812 4.70812 10.0072 5.05798 10.1674 5.46039C10.3277 5.86279 10.3728 6.30186 10.2976 6.72842C10.2225 7.15499 10.0301 7.55222 9.74197 7.87565C9.45386 8.19907 9.08142 8.43592 8.66634 8.55967Z" fill="#D1DBE3"/>
</svg>
