<svg width="20" height="20" viewBox="0 0 20 20" fill="none" xmlns="http://www.w3.org/2000/svg">
<g opacity="0.5">
<path fill-rule="evenodd" clip-rule="evenodd" d="M17.9759 11.3981C18.0435 11.4257 18.116 11.4398 18.1891 11.4393C18.2984 11.4389 18.405 11.4062 18.4958 11.3455C18.5865 11.2848 18.6574 11.1987 18.6995 11.0979C18.7416 10.9971 18.753 10.8862 18.7324 10.7789C18.7118 10.6717 18.66 10.5729 18.5836 10.4949L10.2503 2.16155C10.1462 2.05808 10.0054 2 9.85859 2C9.71182 2 9.57101 2.05808 9.46692 2.16155L1.13359 10.4949C1.04257 10.6012 0.995014 10.7379 1.00041 10.8777C1.00581 11.0175 1.06378 11.1501 1.16272 11.2491C1.26166 11.348 1.39429 11.406 1.53411 11.4114C1.67393 11.4168 1.81064 11.3692 1.91692 11.2782L3.18921 10.005V16.3338C3.18921 16.6285 3.30627 16.9111 3.51465 17.1195C3.72302 17.3278 4.00564 17.4449 4.30032 17.4449H8.18921V11.8893H11.5225V17.4449H15.4114C15.7061 17.4449 15.9887 17.3278 16.1971 17.1195C16.4055 16.9111 16.5225 16.6285 16.5225 16.3338V10.0052L17.7947 11.2782C17.8466 11.3297 17.9082 11.3704 17.9759 11.3981Z" fill="#949494"/>
</g>
</svg>
