<svg width="24" height="22" viewBox="0 0 24 22" fill="none" xmlns="http://www.w3.org/2000/svg">
<path d="M23.2047 10.7662C22.3226 8.67463 20.7912 6.8658 18.7998 5.56331C16.8084 4.26082 14.4443 3.52177 11.9997 3.4375C9.55507 3.52177 7.19097 4.26082 5.19958 5.56331C3.20819 6.8658 1.6768 8.67463 0.794681 10.7662C0.735106 10.9173 0.735106 11.0827 0.794681 11.2338C1.6768 13.3254 3.20819 15.1342 5.19958 16.4367C7.19097 17.7392 9.55507 18.4782 11.9997 18.5625C14.4443 18.4782 16.8084 17.7392 18.7998 16.4367C20.7912 15.1342 22.3226 13.3254 23.2047 11.2338C23.2643 11.0827 23.2643 10.9173 23.2047 10.7662ZM11.9997 17.1875C8.02468 17.1875 3.82468 14.4856 2.30218 11C3.82468 7.51437 8.02468 4.8125 11.9997 4.8125C15.9747 4.8125 20.1747 7.51437 21.6972 11C20.1747 14.4856 15.9747 17.1875 11.9997 17.1875Z" fill="#818181"/>
<path d="M12 6.875C11.11 6.875 10.24 7.11693 9.49994 7.57019C8.75991 8.02345 8.18314 8.66769 7.84254 9.42143C7.50195 10.1752 7.41283 11.0046 7.58647 11.8047C7.7601 12.6049 8.18869 13.3399 8.81802 13.9168C9.44736 14.4937 10.2492 14.8866 11.1221 15.0457C11.995 15.2049 12.8998 15.1232 13.7221 14.811C14.5443 14.4988 15.2471 13.9701 15.7416 13.2917C16.2361 12.6134 16.5 11.8158 16.5 11C16.5 9.90598 16.0259 8.85677 15.182 8.08318C14.3381 7.3096 13.1935 6.875 12 6.875ZM12 13.75C11.4067 13.75 10.8266 13.5887 10.3333 13.2865C9.83994 12.9844 9.45543 12.5549 9.22836 12.0524C9.0013 11.5499 8.94189 10.9969 9.05765 10.4635C9.1734 9.93005 9.45912 9.44005 9.87868 9.05546C10.2982 8.67086 10.8328 8.40895 11.4147 8.30284C11.9967 8.19673 12.5999 8.25119 13.1481 8.45933C13.6962 8.66747 14.1648 9.01995 14.4944 9.47218C14.8241 9.92442 15 10.4561 15 11C15 11.7293 14.6839 12.4288 14.1213 12.9445C13.5587 13.4603 12.7957 13.75 12 13.75Z" fill="#818181"/>
</svg>
