<svg width="22" height="22" viewBox="0 0 22 22" fill="none" xmlns="http://www.w3.org/2000/svg">
<path d="M6.41699 10.0833H8.25033V11.9166H6.41699V10.0833ZM6.41699 13.7499H8.25033V15.5833H6.41699V13.7499ZM10.0837 10.0833H11.917V11.9166H10.0837V10.0833ZM10.0837 13.7499H11.917V15.5833H10.0837V13.7499ZM13.7503 10.0833H15.5837V11.9166H13.7503V10.0833ZM13.7503 13.7499H15.5837V15.5833H13.7503V13.7499Z" fill="#818181"/>
<path d="M4.58333 20.1666H17.4167C18.4278 20.1666 19.25 19.3443 19.25 18.3333V5.49992C19.25 4.48884 18.4278 3.66659 17.4167 3.66659H15.5833V1.83325H13.75V3.66659H8.25V1.83325H6.41667V3.66659H4.58333C3.57225 3.66659 2.75 4.48884 2.75 5.49992V18.3333C2.75 19.3443 3.57225 20.1666 4.58333 20.1666ZM17.4167 7.33325L17.4176 18.3333H4.58333V7.33325H17.4167Z" fill="#818181"/>
</svg>
