<svg width="24" height="22" viewBox="0 0 24 22" fill="none" xmlns="http://www.w3.org/2000/svg">
<path d="M19.3305 6.13627L19.7505 4.87402C19.828 4.64148 20.0032 4.44671 20.2374 4.33256C20.4717 4.21842 20.7458 4.19424 20.9995 4.26535C21.2531 4.33646 21.4656 4.49704 21.5901 4.71175C21.7147 4.92646 21.741 5.17773 21.6635 5.41027L20.4935 8.91652C20.4159 9.14888 20.2409 9.34351 20.0069 9.45764C19.7729 9.57178 19.499 9.59607 19.2455 9.52518L15.4205 8.45268C15.2922 8.41959 15.1725 8.36335 15.0683 8.28726C14.9641 8.21117 14.8776 8.11676 14.8137 8.00958C14.7499 7.90239 14.71 7.7846 14.6966 7.66311C14.6831 7.54162 14.6962 7.41889 14.7352 7.30211C14.7741 7.18534 14.8382 7.07688 14.9235 6.98311C15.0089 6.88934 15.1138 6.81214 15.2321 6.75605C15.3504 6.69996 15.4798 6.66611 15.6126 6.65649C15.7454 6.64687 15.879 6.66167 16.0055 6.70002L17.6775 7.16843C16.9383 6.14075 15.9073 5.31739 14.6955 4.78701C13.4837 4.25663 12.137 4.03934 10.8005 4.15853C9.46399 4.27773 8.18826 4.7289 7.11071 5.46345C6.03317 6.19799 5.19465 7.18809 4.68546 8.3271L4.42546 8.90735C4.37818 9.02189 4.30633 9.12659 4.21417 9.21525C4.12201 9.30391 4.0114 9.37475 3.88887 9.42358C3.76635 9.4724 3.63439 9.49823 3.5008 9.49953C3.3672 9.50083 3.23468 9.47757 3.11105 9.43114C2.98743 9.38471 2.8752 9.31604 2.78101 9.22919C2.68682 9.14233 2.61256 9.03906 2.56264 8.92546C2.51271 8.81187 2.48812 8.69025 2.49033 8.5678C2.49253 8.44535 2.52148 8.32454 2.57546 8.21252L2.83546 7.63227C3.48169 6.18694 4.54518 4.93025 5.91174 3.99715C7.2783 3.06405 8.89632 2.48977 10.5921 2.33598C12.2878 2.18218 13.9972 2.45468 15.5367 3.12422C17.0763 3.79376 18.3878 4.83504 19.3305 6.13627ZM3.80846 15.8648L3.48146 17.0666C3.45221 17.1858 3.39725 17.2984 3.31984 17.3978C3.24242 17.4973 3.1441 17.5815 3.03066 17.6456C2.91722 17.7098 2.79094 17.7524 2.65925 17.7712C2.52755 17.7899 2.3931 17.7843 2.26379 17.7548C2.13449 17.7252 2.01293 17.6722 1.90628 17.599C1.79962 17.5257 1.71001 17.4337 1.64271 17.3282C1.57542 17.2228 1.53179 17.1061 1.51441 16.985C1.49702 16.8638 1.50622 16.7407 1.54146 16.6229L2.50846 13.0663C2.54109 12.9452 2.60033 12.8314 2.68257 12.7321C2.7648 12.6327 2.8683 12.5497 2.98672 12.4883C3.10514 12.4269 3.236 12.3882 3.37127 12.3747C3.50655 12.3613 3.64341 12.3732 3.77346 12.4099L7.60146 13.2844C7.85886 13.3433 8.08021 13.4934 8.21683 13.7019C8.35345 13.9103 8.39415 14.1599 8.32996 14.3959C8.26578 14.6318 8.10198 14.8347 7.87459 14.96C7.6472 15.0852 7.37486 15.1225 7.11746 15.0637L5.33146 14.6558C6.09498 15.7272 7.17422 16.5783 8.44401 17.1102C9.71379 17.6422 11.1221 17.8333 12.5055 17.6614C13.889 17.4894 15.1909 16.9615 16.2603 16.1387C17.3297 15.316 18.1228 14.2322 18.5475 13.0131C18.5874 12.8984 18.6516 12.792 18.7363 12.7C18.8211 12.608 18.9248 12.5322 19.0416 12.477C19.1583 12.4218 19.2857 12.3881 19.4166 12.378C19.5475 12.3679 19.6793 12.3816 19.8045 12.4182C19.9296 12.4548 20.0457 12.5136 20.146 12.5913C20.2464 12.669 20.329 12.7641 20.3893 12.8711C20.4496 12.9781 20.4862 13.0949 20.4973 13.2149C20.5083 13.3349 20.4934 13.4557 20.4535 13.5704C20.0372 14.7676 19.3397 15.8665 18.4102 16.79C17.4807 17.7135 16.3418 18.439 15.0735 18.9155C13.0973 19.6576 10.9041 19.7598 8.85602 19.2052C6.80794 18.6505 5.02743 17.4722 3.80846 15.8648Z" fill="#818181"/>
</svg>
