<svg width="24" height="24" viewBox="0 0 24 24" fill="none" xmlns="http://www.w3.org/2000/svg">
<path fill-rule="evenodd" clip-rule="evenodd" d="M12 23C16.8068 23 21 19.3833 21 14.5714C21 11.689 19.5515 8.93199 18.1045 6.85234C16.6199 4.71873 14.9216 2.99586 14.0112 2.13053C12.8807 1.05606 11.1193 1.05606 9.98882 2.13053C9.07836 2.99587 7.38008 4.71873 5.89552 6.85235C4.44852 8.93199 3 11.689 3 14.5714C3 19.3833 7.19318 23 12 23ZM19 14.5714C19 18.1218 15.866 21 12 21C8.13401 21 5 18.1218 5 14.5714C5 10.0507 9.64371 5.21777 11.3667 3.5802C11.7251 3.2395 12.2749 3.2395 12.6333 3.5802C14.3563 5.21777 19 10.0507 19 14.5714ZM9 14C9 13.4477 8.55228 13 8 13C7.44772 13 7 13.4477 7 14C7 14.6566 7.12933 15.3068 7.3806 15.9134C7.63188 16.52 8.00017 17.0712 8.46447 17.5355C8.92876 17.9998 9.47995 18.3681 10.0866 18.6194C10.6932 18.8707 11.3434 19 12 19C12.5523 19 13 18.5523 13 18C13 17.4477 12.5523 17 12 17C11.606 17 11.2159 16.9224 10.8519 16.7716C10.488 16.6209 10.1573 16.3999 9.87868 16.1213C9.6001 15.8427 9.37913 15.512 9.22836 15.1481C9.0776 14.7841 9 14.394 9 14Z" fill="#005DFF"/>
</svg>
