<svg width="14" height="14" viewBox="0 0 14 14" fill="none" xmlns="http://www.w3.org/2000/svg">
<path d="M7.00156 3.41058C5.01517 3.41058 3.41294 5.01317 3.41294 7C3.41294 8.98684 5.01517 10.5894 7.00156 10.5894C8.98795 10.5894 10.5902 8.98684 10.5902 7C10.5902 5.01317 8.98795 3.41058 7.00156 3.41058ZM7.00156 9.33359C5.7179 9.33359 4.66849 8.28707 4.66849 7C4.66849 5.71293 5.71478 4.66641 7.00156 4.66641C8.28834 4.66641 9.33463 5.71293 9.33463 7C9.33463 8.28707 8.28522 9.33359 7.00156 9.33359ZM11.574 3.26375C11.574 3.72922 11.1992 4.10097 10.737 4.10097C10.2716 4.10097 9.89994 3.7261 9.89994 3.26375C9.89994 2.80141 10.2747 2.42653 10.737 2.42653C11.1992 2.42653 11.574 2.80141 11.574 3.26375ZM13.9508 4.11347C13.8977 2.99197 13.6416 1.99855 12.8202 1.18007C12.0019 0.361598 11.0087 0.105433 9.88745 0.0492023C8.73185 -0.0164008 5.26815 -0.0164008 4.11255 0.0492023C2.99442 0.10231 2.00123 0.358474 1.17981 1.17695C0.358394 1.99543 0.10541 2.98884 0.0491913 4.11034C-0.0163971 5.26621 -0.0163971 8.73067 0.0491913 9.88653C0.102287 11.008 0.358394 12.0015 1.17981 12.8199C2.00123 13.6384 2.9913 13.8946 4.11255 13.9508C5.26815 14.0164 8.73185 14.0164 9.88745 13.9508C11.0087 13.8977 12.0019 13.6415 12.8202 12.8199C13.6385 12.0015 13.8946 11.008 13.9508 9.88653C14.0164 8.73067 14.0164 5.26933 13.9508 4.11347ZM12.4579 11.1267C12.2143 11.739 11.7427 12.2108 11.1274 12.4575C10.206 12.8231 8.01974 12.7387 7.00156 12.7387C5.98338 12.7387 3.79398 12.8199 2.87574 12.4575C2.26358 12.2139 1.79197 11.7422 1.54523 11.1267C1.17981 10.2052 1.26414 8.01841 1.26414 7C1.26414 5.98159 1.18293 3.7917 1.54523 2.87326C1.78885 2.26096 2.26046 1.78924 2.87574 1.54245C3.7971 1.17695 5.98338 1.2613 7.00156 1.2613C8.01974 1.2613 10.2091 1.18007 11.1274 1.54245C11.7395 1.78612 12.2112 2.25784 12.4579 2.87326C12.8233 3.79482 12.739 5.98159 12.739 7C12.739 8.01841 12.8233 10.2083 12.4579 11.1267Z" fill="url(#paint0_radial)"/>
<defs>
<radialGradient id="paint0_radial" cx="0" cy="0" r="1" gradientUnits="userSpaceOnUse" gradientTransform="translate(0 14) rotate(-45) scale(19.799)">
<stop stop-color="#FDA451"/>
<stop offset="0.25" stop-color="#BB2F9A"/>
<stop offset="1" stop-color="#6648CD"/>
</radialGradient>
</defs>
</svg>
