<svg width="30" height="30" viewBox="0 0 30 30" fill="none" xmlns="http://www.w3.org/2000/svg">
<path d="M12.2308 3C8.63077 3 5.76923 5.87037 5.76923 9.48148C5.76292 10.5434 6.01832 11.5904 6.51272 12.5294C7.00712 13.4685 7.72519 14.2704 8.60308 14.8639C5.31692 16.2833 3 19.5667 3 23.3704H4.84615C4.84615 19.2963 8.16923 15.963 12.2308 15.963C12.5455 15.963 12.852 15.9333 13.1538 15.8907V20.1296C13.1538 24.9444 19.4308 27.7222 19.7077 27.8148L20.0769 28L20.4462 27.8148C20.7231 27.7222 27 24.9444 27 20.1296V15.037H26.1692C24.4154 15.037 23.4 14.3889 22.5692 13.9259C21.7385 13.5556 21 13.1852 20.0769 13.1852C19.1538 13.1852 18.4154 13.5556 17.7692 13.9259C17.3022 14.187 16.7409 14.5019 16.0338 14.7315C16.8611 14.1314 17.5339 13.3421 17.9962 12.4291C18.4586 11.516 18.6972 10.5055 18.6923 9.48148C18.6923 5.87037 15.8308 3 12.2308 3ZM12.2308 4.85185C14.8154 4.85185 16.8462 6.88889 16.8462 9.48148C16.8462 12.0741 14.8154 14.1111 12.2308 14.1111C9.64615 14.1111 7.61538 12.0741 7.61538 9.48148C7.61538 6.88889 9.64615 4.85185 12.2308 4.85185ZM20.0769 15.037C20.5385 15.037 20.9077 15.2222 21.6462 15.5926L21.9231 15.6852C22.6615 16.0556 23.6769 16.6111 25.1538 16.7963V20.037C25.1538 23.0926 21.1846 25.3148 20.0769 25.8704C18.9692 25.3148 15 23.0926 15 20.037V16.7963C16.5692 16.6111 17.5846 16.0556 18.3231 15.6852L18.6 15.5926H18.7846C19.3385 15.1296 19.6154 15.037 20.0769 15.037Z" fill="#005DFF"/>
</svg>
