<svg width="9" height="14" viewBox="0 0 9 14" fill="none" xmlns="http://www.w3.org/2000/svg">
<path d="M7.86232 9.12997C7.06161 9.6056 5.95989 9.79422 5.23223 9.86529L5.843 10.4284L8.07273 12.5141C8.88806 13.2959 7.56133 14.5177 6.73723 13.7633C6.17907 13.233 5.36082 12.4676 4.5075 11.6694L2.27776 13.7606C1.45367 14.5123 0.126933 13.2795 0.951029 12.5113C1.51796 11.981 2.32744 11.2156 3.18076 10.4257L3.78276 9.86255C3.06387 9.79148 1.94462 9.6138 1.13514 9.12724C0.182458 8.5532 -0.235435 8.21697 0.132778 7.51446C0.34903 7.11536 0.942262 6.77914 1.72837 7.35865C1.72837 7.35865 2.78917 8.14864 4.50165 8.14864C6.21413 8.14864 7.27494 7.35865 7.27494 7.35865C8.06104 6.78187 8.65135 7.11536 8.87053 7.51446C9.23289 8.21697 8.815 8.5532 7.86232 9.12997ZM0.708476 3.54538C0.708476 1.58544 2.41219 0 4.49873 0C6.58527 0 8.28898 1.58544 8.28898 3.54538C8.28898 5.49712 6.58527 7.08256 4.49873 7.08256C2.41219 7.08256 0.708476 5.49712 0.708476 3.54538ZM2.63721 3.54538C2.63721 4.50485 3.47299 5.28664 4.49873 5.28664C5.52447 5.28664 6.36025 4.50485 6.36025 3.54538C6.36025 2.57771 5.52447 1.79593 4.49873 1.79593C3.47299 1.79593 2.63721 2.57771 2.63721 3.54538Z" fill="#F0812C"/>
</svg>
