<svg width="18" height="18" viewBox="0 0 18 18" fill="none" xmlns="http://www.w3.org/2000/svg">
<mask id="mask0" mask-type="alpha" maskUnits="userSpaceOnUse" x="0" y="0" width="18" height="18">
<path d="M0 0H18V18H0V0Z" fill="#C4C4C4"/>
</mask>
<g mask="url(#mask0)">
<path d="M5.41333 8.19333C6.37333 10.08 7.92 11.62 9.80667 12.5867L11.2733 11.12C11.4533 10.94 11.72 10.88 11.9533 10.96C12.7 11.2067 13.5067 11.34 14.3333 11.34C14.7 11.34 15 11.64 15 12.0067V14.3333C15 14.7 14.7 15 14.3333 15C8.07333 15 3 9.92667 3 3.66667C3 3.3 3.3 3 3.66667 3H6C6.36667 3 6.66667 3.3 6.66667 3.66667C6.66667 4.5 6.8 5.3 7.04667 6.04667C7.12 6.28 7.06667 6.54 6.88 6.72667L5.41333 8.19333Z" fill="black"/>
</g>
</svg>
