<svg width="16" height="16" viewBox="0 0 16 16" fill="none" xmlns="http://www.w3.org/2000/svg">
<path d="M7.9987 1.33337C6.68016 1.33337 5.39123 1.72437 4.2949 2.45691C3.19857 3.18945 2.34409 4.23064 1.8395 5.44882C1.33492 6.66699 1.2029 8.00744 1.46013 9.30064C1.71737 10.5938 2.35231 11.7817 3.28466 12.7141C4.21701 13.6464 5.40489 14.2814 6.6981 14.5386C7.99131 14.7958 9.33175 14.6638 10.5499 14.1592C11.7681 13.6547 12.8093 12.8002 13.5418 11.7038C14.2744 10.6075 14.6654 9.31858 14.6654 8.00004C14.6654 7.12456 14.4929 6.25766 14.1579 5.44882C13.8229 4.63998 13.3318 3.90505 12.7127 3.286C12.0937 2.66694 11.3588 2.17588 10.5499 1.84084C9.74109 1.50581 8.87418 1.33337 7.9987 1.33337ZM7.9987 12C7.86685 12 7.73795 11.9609 7.62832 11.8877C7.51869 11.8144 7.43324 11.7103 7.38278 11.5885C7.33232 11.4667 7.31912 11.3326 7.34484 11.2033C7.37057 11.074 7.43406 10.9552 7.5273 10.862C7.62053 10.7687 7.73932 10.7052 7.86864 10.6795C7.99796 10.6538 8.13201 10.667 8.25382 10.7175C8.37564 10.7679 8.47976 10.8534 8.55301 10.963C8.62627 11.0726 8.66537 11.2015 8.66537 11.3334C8.66537 11.5102 8.59513 11.6798 8.47011 11.8048C8.34508 11.9298 8.17551 12 7.9987 12ZM8.66537 8.56004V9.33337C8.66537 9.51019 8.59513 9.67975 8.47011 9.80478C8.34508 9.9298 8.17551 10 7.9987 10C7.82189 10 7.65232 9.9298 7.5273 9.80478C7.40227 9.67975 7.33203 9.51019 7.33203 9.33337V8.00004C7.33203 7.82323 7.40227 7.65366 7.5273 7.52864C7.65232 7.40361 7.82189 7.33337 7.9987 7.33337C8.19648 7.33337 8.38982 7.27473 8.55427 7.16484C8.71872 7.05496 8.84689 6.89878 8.92258 6.71606C8.99827 6.53333 9.01807 6.33226 8.97949 6.13828C8.9409 5.9443 8.84566 5.76612 8.70581 5.62627C8.56596 5.48641 8.38777 5.39117 8.19379 5.35259C7.99981 5.314 7.79874 5.33381 7.61602 5.40949C7.43329 5.48518 7.27711 5.61336 7.16723 5.7778C7.05735 5.94225 6.9987 6.13559 6.9987 6.33337C6.9987 6.51019 6.92846 6.67975 6.80344 6.80478C6.67841 6.9298 6.50884 7.00004 6.33203 7.00004C6.15522 7.00004 5.98565 6.9298 5.86063 6.80478C5.73561 6.67975 5.66537 6.51019 5.66537 6.33337C5.66362 5.90024 5.78247 5.47517 6.00861 5.10576C6.23475 4.73634 6.55925 4.43716 6.94578 4.24171C7.33231 4.04626 7.76561 3.96226 8.19718 3.9991C8.62874 4.03595 9.04153 4.19219 9.38934 4.45034C9.73714 4.70849 10.0062 5.05835 10.1665 5.46075C10.3267 5.86316 10.3718 6.30222 10.2966 6.72879C10.2215 7.15536 10.0291 7.55259 9.74099 7.87601C9.45289 8.19944 9.08045 8.43628 8.66537 8.56004Z" fill="#93B5FF"/>
</svg>
