<svg width="24" height="24" viewBox="0 0 24 24" fill="none" xmlns="http://www.w3.org/2000/svg">
<path d="M16.95 10.1892L11.29 15.9796C11.1975 16.0745 11.0876 16.1497 10.9666 16.201C10.8457 16.2524 10.716 16.2788 10.585 16.2788C10.454 16.2788 10.3243 16.2524 10.2034 16.201C10.0824 16.1497 9.97251 16.0745 9.88 15.9796L7.05 13.0844C6.95742 12.9897 6.88398 12.8773 6.83387 12.7535C6.78377 12.6298 6.75798 12.4971 6.75798 12.3632C6.75798 12.2292 6.78377 12.0966 6.83387 11.9728C6.88398 11.8491 6.95742 11.7367 7.05 11.6419C7.14258 11.5472 7.25249 11.4721 7.37346 11.4208C7.49442 11.3696 7.62407 11.3432 7.755 11.3432C7.88593 11.3432 8.01558 11.3696 8.13654 11.4208C8.25751 11.4721 8.36742 11.5472 8.46 11.6419L10.58 13.8108L15.53 8.74673C15.6225 8.65189 15.7324 8.57665 15.8534 8.52531C15.9743 8.47398 16.104 8.44755 16.235 8.44755C16.366 8.44755 16.4957 8.47398 16.6166 8.52531C16.7376 8.57665 16.8475 8.65189 16.94 8.74673C17.34 9.14572 17.34 9.79023 16.95 10.1892ZM4 12C4 9.61632 5.02 7.47816 6.62 5.98453L8.15 7.54978C8.2205 7.62047 8.30987 7.66824 8.40686 7.68705C8.50384 7.70587 8.60411 7.69489 8.69501 7.6555C8.7859 7.61612 8.86337 7.55009 8.91765 7.46573C8.97193 7.38138 9.00058 7.28247 9 7.18148V2.79264C9 2.50619 8.78 2.28112 8.5 2.28112H4.21C3.76 2.28112 3.54 2.83356 3.86 3.15071L5.2 4.53181C3.24 6.39374 2 9.04342 2 12C2 16.8594 5.32 20.9311 9.76 21.9746C10.39 22.1179 11 21.637 11 20.9721C11 20.4912 10.67 20.082 10.21 19.9695C6.66 19.1408 4 15.8876 4 12ZM22 12C22 7.14056 18.68 3.06886 14.24 2.02536C13.61 1.88214 13 2.36297 13 3.02794C13 3.50877 13.33 3.91799 13.79 4.03052C17.34 4.85918 20 8.11245 20 12C20 14.3837 18.98 16.5218 17.38 18.0155L15.85 16.4502C15.7795 16.3795 15.6901 16.3318 15.5931 16.3129C15.4962 16.2941 15.3959 16.3051 15.305 16.3445C15.2141 16.3839 15.1366 16.4499 15.0823 16.5343C15.0281 16.6186 14.9994 16.7175 15 16.8185V21.2074C15 21.4938 15.22 21.7189 15.5 21.7189H19.79C20.24 21.7189 20.46 21.1664 20.14 20.8493L18.8 19.4682C20.76 17.6063 22 14.9566 22 12Z" fill="#005DFF"/>
</svg>
