<svg width="22" height="24" viewBox="0 0 22 24" fill="none" xmlns="http://www.w3.org/2000/svg">
<path fill-rule="evenodd" clip-rule="evenodd" d="M2.75151 3.669C4.15948 3.20685 5.57839 2.77872 7.00701 2.385V2.3865C8.67201 1.935 10.205 1.6005 11 1.6005C11.7965 1.6005 13.328 1.935 14.993 2.3865C16.6235 2.829 18.272 3.3495 19.2485 3.669C19.3772 3.71049 19.4915 3.78736 19.5786 3.89082C19.6656 3.99427 19.7217 4.12014 19.7405 4.254C20.5715 10.4895 18.6515 15.0405 16.361 18.036C15.3912 19.3176 14.2349 20.4466 12.9305 21.3855C12.4115 21.75 11.951 22.0155 11.591 22.185C11.411 22.2705 11.264 22.3275 11.15 22.362C11.1011 22.3787 11.051 22.3912 11 22.3995C10.9484 22.3918 10.8977 22.3793 10.8485 22.362C10.736 22.3275 10.589 22.2705 10.409 22.185C10.0475 22.0155 9.58851 21.7515 9.06951 21.3855C7.76512 20.4466 6.60878 19.3176 5.63901 18.036C3.34851 15.039 1.42851 10.4895 2.25951 4.254C2.2785 4.1202 2.33469 3.99442 2.42167 3.89099C2.50866 3.78756 2.62294 3.71065 2.75151 3.669ZM11 0C9.96501 0 8.23551 0.3975 6.60801 0.84C5.15422 1.24009 3.7103 1.67521 2.27751 2.145C1.86485 2.28128 1.49899 2.5312 1.22198 2.86605C0.944973 3.20091 0.768039 3.60711 0.711508 4.038C-0.182492 10.7535 1.89201 15.7305 4.40901 19.023C5.47638 20.4314 6.74905 21.6717 8.18451 22.7025C8.68087 23.0592 9.20678 23.3728 9.75651 23.64C10.178 23.838 10.628 24 11 24C11.372 24 11.8235 23.838 12.2435 23.64C12.7932 23.3728 13.3191 23.0592 13.8155 22.7025C15.251 21.6718 16.5237 20.4315 17.591 19.023C20.108 15.7305 22.1825 10.7535 21.2885 4.038C21.232 3.60711 21.055 3.20091 20.778 2.86605C20.501 2.5312 20.1352 2.28128 19.7225 2.145C18.7355 1.8225 17.057 1.29 15.392 0.84C13.7645 0.3975 12.035 0 11 0ZM15.445 7.96255C15.4072 7.87143 15.3518 7.78867 15.2819 7.719C15.2123 7.64915 15.1295 7.59374 15.0384 7.55593C14.9473 7.51812 14.8496 7.49866 14.7509 7.49866C14.6523 7.49866 14.5546 7.51812 14.4635 7.55593C14.3724 7.59374 14.2896 7.64915 14.2199 7.719L10.2509 11.6895L8.53195 9.969C8.46222 9.89927 8.37943 9.84395 8.28832 9.80621C8.19721 9.76847 8.09956 9.74905 8.00095 9.74905C7.90233 9.74905 7.80468 9.76847 7.71357 9.80621C7.62246 9.84395 7.53968 9.89927 7.46995 9.969C7.40022 10.0387 7.3449 10.1215 7.30716 10.2126C7.26942 10.3037 7.25 10.4014 7.25 10.5C7.25 10.5986 7.26942 10.6963 7.30716 10.7874C7.3449 10.8785 7.40022 10.9613 7.46995 11.031L9.71995 13.281C9.78962 13.3508 9.87238 13.4063 9.9635 13.4441C10.0546 13.4819 10.1523 13.5013 10.2509 13.5013C10.3496 13.5013 10.4473 13.4819 10.5384 13.4441C10.6295 13.4063 10.7123 13.3508 10.7819 13.281L15.2819 8.781C15.3518 8.71133 15.4072 8.62857 15.445 8.53745C15.4828 8.44633 15.5023 8.34865 15.5023 8.25C15.5023 8.15135 15.4828 8.05367 15.445 7.96255Z" fill="#005DFF"/>
</svg>
