<svg width="12" height="14" viewBox="0 0 12 14" fill="none" xmlns="http://www.w3.org/2000/svg">
<path d="M11.9936 3.50541C11.2129 3.50541 10.4925 3.24031 9.91411 2.7931C9.2507 2.28043 8.77406 1.52841 8.60574 0.661646C8.56406 0.447487 8.54161 0.226482 8.53948 0H6.30934V6.2462L6.30667 9.66753C6.30667 10.5822 5.72556 11.3578 4.92001 11.6306C4.68623 11.7097 4.43375 11.7472 4.17085 11.7324C3.83527 11.7135 3.5208 11.6097 3.24748 11.4421C2.66583 11.0856 2.27148 10.4387 2.26079 9.69875C2.24396 8.54224 3.1561 7.59934 4.2836 7.59934C4.50616 7.59934 4.7199 7.63659 4.92001 7.70423V5.99699V5.38327C4.70894 5.35123 4.49413 5.33452 4.27692 5.33452C3.04282 5.33452 1.88861 5.86033 1.06356 6.80761C0.43997 7.52348 0.0659207 8.43681 0.00821023 9.3945C-0.0674012 10.6526 0.381725 11.8486 1.25273 12.7309C1.3807 12.8605 1.5151 12.9807 1.65563 13.0916C2.40239 13.6807 3.31534 14 4.27692 14C4.49413 14 4.70894 13.9836 4.92001 13.9515C5.81827 13.8151 6.64705 13.3937 7.30111 12.7309C8.10478 11.9167 8.54883 10.8358 8.55364 9.68533L8.54215 4.5762C8.92555 4.87936 9.34475 5.13022 9.79468 5.32493C10.4944 5.62755 11.2364 5.78091 12 5.78064V4.12077V3.50486C12.0005 3.50541 11.9941 3.50541 11.9936 3.50541Z" fill="black"/>
</svg>
