<svg width="24" height="24" viewBox="0 0 24 24" fill="none" xmlns="http://www.w3.org/2000/svg">
<g clip-path="url(#clip0)">
<path d="M18.75 8.8125H8.81077V4.95797C8.81077 3.258 10.2407 1.875 11.9983 1.875C13.7558 1.875 15.1858 3.258 15.1858 4.95797V6.75H17.0608V4.95797C17.0608 2.22412 14.7897 0 11.9983 0C9.20681 0 6.93577 2.22412 6.93577 4.95797V8.8125H5.25C3.69919 8.8125 2.4375 10.0742 2.4375 11.625V21.1875C2.4375 22.7383 3.69919 24 5.25 24H18.75C20.3008 24 21.5625 22.7383 21.5625 21.1875V11.625C21.5625 10.0742 20.3008 8.8125 18.75 8.8125ZM19.6875 21.1875C19.6875 21.7044 19.2669 22.125 18.75 22.125H5.25C4.73306 22.125 4.3125 21.7044 4.3125 21.1875V11.625C4.3125 11.1081 4.73306 10.6875 5.25 10.6875H18.75C19.2669 10.6875 19.6875 11.1081 19.6875 11.625V21.1875Z" fill="black"/>
<path d="M12 13.4062C11.0421 13.4062 10.2656 14.1827 10.2656 15.1406C10.2656 15.7522 10.5825 16.2895 11.0608 16.5983V18.6562C11.0608 19.174 11.4805 19.5938 11.9983 19.5938C12.516 19.5938 12.9358 19.174 12.9358 18.6562V16.6005C13.416 16.2921 13.7344 15.7538 13.7344 15.1406C13.7344 14.1827 12.9579 13.4062 12 13.4062Z" fill="black"/>
</g>
<defs>
<clipPath id="clip0">
<rect width="24" height="24" fill="white"/>
</clipPath>
</defs>
</svg>
