<svg width="24" height="24" viewBox="0 0 24 24" fill="none" xmlns="http://www.w3.org/2000/svg">
<path fill-rule="evenodd" clip-rule="evenodd" d="M8.81077 8.8125H18.75C20.3008 8.8125 21.5625 10.0742 21.5625 11.625V21.1875C21.5625 22.7383 20.3008 24 18.75 24H5.25C3.69919 24 2.4375 22.7383 2.4375 21.1875V11.625C2.4375 10.0742 3.69919 8.8125 5.25 8.8125H6.93577V4.95797C6.93577 2.22412 9.20681 0 11.9983 0C14.7897 0 17.0608 2.22412 17.0608 4.95797V6.75H15.1858V4.95797C15.1858 3.258 13.7558 1.875 11.9983 1.875C10.2407 1.875 8.81077 3.258 8.81077 4.95797V8.8125ZM18.75 22.125C19.2669 22.125 19.6875 21.7044 19.6875 21.1875V11.625C19.6875 11.1081 19.2669 10.6875 18.75 10.6875H5.25C4.73306 10.6875 4.3125 11.1081 4.3125 11.625V21.1875C4.3125 21.7044 4.73306 22.125 5.25 22.125H18.75ZM10.2656 15.1406C10.2656 14.1827 11.0421 13.4062 12 13.4062C12.9579 13.4062 13.7344 14.1827 13.7344 15.1406C13.7344 15.7537 13.416 16.2921 12.9358 16.6005V18.6562C12.9358 19.174 12.516 19.5938 11.9983 19.5938C11.4805 19.5938 11.0608 19.174 11.0608 18.6562V16.5983C10.5825 16.2895 10.2656 15.7522 10.2656 15.1406Z" fill="#005DFF"/>
</svg>
