<svg width="30" height="30" viewBox="0 0 30 30" fill="none" xmlns="http://www.w3.org/2000/svg">
<path d="M26.6071 9.04261L22.8929 11.1364V6.81818C22.8929 5.81534 22.06 5 21.0357 5H3.85714C2.83281 5 2 5.81534 2 6.81818V23.1818C2 24.1847 2.83281 25 3.85714 25H21.0357C22.06 25 22.8929 24.1847 22.8929 23.1818V18.8636L26.6071 20.9574C27.2252 21.3068 28 20.8693 28 20.1733V9.82955C28 9.13068 27.2252 8.69318 26.6071 9.04261ZM20.8036 22.9545H4.08929V7.04545H20.8036V22.9545ZM25.9107 18.2102L22.8929 16.5114V13.4915L25.9107 11.7898V18.2102ZM6.17857 10.6818H9.42857C9.55625 10.6818 9.66071 10.5795 9.66071 10.4545V9.09091C9.66071 8.96591 9.55625 8.86364 9.42857 8.86364H6.17857C6.05089 8.86364 5.94643 8.96591 5.94643 9.09091V10.4545C5.94643 10.5795 6.05089 10.6818 6.17857 10.6818Z" fill="#005DFF"/>
</svg>
