<svg width="19" height="10" viewBox="0 0 19 10" fill="none" xmlns="http://www.w3.org/2000/svg">
<path d="M18.567 0.678125C18.6975 0.2875 18.567 0 17.9391 0H15.8616C15.3326 0 15.0892 0.246875 14.9587 0.521875C14.9587 0.521875 13.9005 2.80625 12.405 4.2875C11.9218 4.71562 11.6996 4.85313 11.4351 4.85313C11.3046 4.85313 11.1035 4.71563 11.1035 4.325V0.678125C11.1035 0.209375 10.9554 0 10.518 0H7.25184C6.92029 0 6.72277 0.21875 6.72277 0.421875C6.72277 0.865625 7.47053 0.96875 7.54813 2.21875V4.93125C7.54813 5.525 7.4282 5.63438 7.16366 5.63438C6.45823 5.63438 4.74403 3.34063 3.72821 0.715625C3.52363 0.20625 3.32259 0 2.78998 0H0.712487C0.119923 0 0 0.246875 0 0.521875C0 1.00937 0.705432 3.43125 3.28379 6.63125C5.00151 8.81563 7.42115 10 9.6221 10C10.9448 10 11.107 9.7375 11.107 9.28438C11.107 7.19688 10.9871 7 11.6502 7C11.9571 7 12.4862 7.1375 13.7207 8.19063C15.1315 9.44063 15.3643 10 16.1544 10H18.2319C18.8245 10 19.1243 9.7375 18.9514 9.21875C18.5564 8.12813 15.8863 5.88438 15.7664 5.73438C15.4595 5.38438 15.5477 5.22813 15.7664 4.91563C15.7699 4.9125 18.306 1.75 18.567 0.678125Z" fill="#5B81B0"/>
</svg>
