<svg width="30" height="30" viewBox="0 0 30 30" fill="none" xmlns="http://www.w3.org/2000/svg">
<path d="M18.75 9.33333C18.9489 9.33333 19.1397 9.2631 19.2803 9.13807C19.421 9.01305 19.5 8.84348 19.5 8.66667C19.5 8.48986 19.421 8.32029 19.2803 8.19526C19.1397 8.07024 18.9489 8 18.75 8C18.5511 8 18.3603 8.07024 18.2197 8.19526C18.079 8.32029 18 8.48986 18 8.66667C18 8.84348 18.079 9.01305 18.2197 9.13807C18.3603 9.2631 18.5511 9.33333 18.75 9.33333ZM21.75 8.66667C21.75 8.84348 21.671 9.01305 21.5303 9.13807C21.3897 9.2631 21.1989 9.33333 21 9.33333C20.8011 9.33333 20.6103 9.2631 20.4697 9.13807C20.329 9.01305 20.25 8.84348 20.25 8.66667C20.25 8.48986 20.329 8.32029 20.4697 8.19526C20.6103 8.07024 20.8011 8 21 8C21.1989 8 21.3897 8.07024 21.5303 8.19526C21.671 8.32029 21.75 8.48986 21.75 8.66667ZM23.25 9.33333C23.4489 9.33333 23.6397 9.2631 23.7803 9.13807C23.921 9.01305 24 8.84348 24 8.66667C24 8.48986 23.921 8.32029 23.7803 8.19526C23.6397 8.07024 23.4489 8 23.25 8C23.0511 8 22.8603 8.07024 22.7197 8.19526C22.579 8.32029 22.5 8.48986 22.5 8.66667C22.5 8.84348 22.579 9.01305 22.7197 9.13807C22.8603 9.2631 23.0511 9.33333 23.25 9.33333Z" fill="#005DFF"/>
<path d="M6.2487 4.66669C5.47515 4.66669 4.73328 4.97774 4.1863 5.53142C3.63932 6.0851 3.33203 6.83605 3.33203 7.61907L3.33203 22.381C3.33203 23.164 3.63932 23.9149 4.1863 24.4686C4.73328 25.0223 5.47515 25.3334 6.2487 25.3334H23.7487C24.5222 25.3334 25.2641 25.0223 25.8111 24.4686C26.3581 23.9149 26.6654 23.164 26.6654 22.381V7.61907C26.6654 6.83605 26.3581 6.0851 25.8111 5.53142C25.2641 4.97774 24.5222 4.66669 23.7487 4.66669H6.2487ZM25.207 7.61907V10.5714H4.79036V7.61907C4.79036 7.22756 4.94401 6.85208 5.2175 6.57524C5.49099 6.2984 5.86192 6.14288 6.2487 6.14288H23.7487C24.1355 6.14288 24.5064 6.2984 24.7799 6.57524C25.0534 6.85208 25.207 7.22756 25.207 7.61907ZM6.2487 23.8572C5.86192 23.8572 5.49099 23.7016 5.2175 23.4248C4.94401 23.148 4.79036 22.7725 4.79036 22.381V12.0476H25.207V22.381C25.207 22.7725 25.0534 23.148 24.7799 23.4248C24.5064 23.7016 24.1355 23.8572 23.7487 23.8572H6.2487Z" fill="#005DFF"/>
</svg>
