<svg width="20" height="14" viewBox="0 0 20 14" fill="none" xmlns="http://www.w3.org/2000/svg">
<path d="M19.5821 2.19053C19.3521 1.32829 18.6744 0.649214 17.8139 0.41876C16.2542 0 10 0 10 0C10 0 3.74586 0 2.18613 0.41876C1.32565 0.64925 0.647936 1.32829 0.417919 2.19053C0 3.75339 0 7.01415 0 7.01415C0 7.01415 0 10.2749 0.417919 11.8378C0.647936 12.7 1.32565 13.3508 2.18613 13.5812C3.74586 14 10 14 10 14C10 14 16.2541 14 17.8139 13.5812C18.6744 13.3508 19.3521 12.7 19.5821 11.8378C20 10.2749 20 7.01415 20 7.01415C20 7.01415 20 3.75339 19.5821 2.19053ZM7.95453 9.97467V4.05362L13.1818 7.01422L7.95453 9.97467Z" fill="#DA281D"/>
</svg>
