<svg width="117" height="28" fill="none" xmlns="http://www.w3.org/2000/svg"><g clip-path="url(#clip0)" fill="#005DFF"><path d="M11.788 26.78H6.157L0 9.52V7.092h3.324L8.99 22.975l5.752-15.883h3.323v2.191L11.788 26.78zM26.166 7.092h-3.943V26.78h3.943V7.092zM44.44 26.78V16.248c0-2.956-2.584-5.266-5.503-5.266H34.71V26.78h-3.943V7.092h8.171c5.012 0 9.446 4.009 9.446 9.156V26.78H44.44zm23.156-15.798H60.93c-2.997 0-5.339 2.548-5.339 5.427v4.17l-3.944-4.17c0-4.943 4.065-9.317 9.283-9.317h6.665v3.89z"/><path d="M67.596 26.78H60.93c-5.218 0-9.283-4.374-9.283-9.317v-1.054l3.944 1.054c0 2.879 2.342 5.427 5.339 5.427h6.665v3.89zm16.394 0L77.128 19h-1.774v7.78H71.41V0h3.944v14.982h1.774l6.897-7.89h2.6v2.684l-5.967 7.21 5.967 7.178v2.616H83.99zm14.94.569c-5.753 0-10.067-4.62-10.067-10.294S93.177 6.803 98.93 6.803c5.752 0 10.023 4.578 10.023 10.252 0 5.673-4.271 10.294-10.023 10.294zm0-16.613c-3.574 0-6.08 2.794-6.08 6.319s2.506 6.361 6.08 6.361c3.573 0 6.035-2.836 6.035-6.361s-2.462-6.32-6.036-6.32zM26.166 0h-3.943v3.89h3.943V0zm90.243 23.416h-3.944v3.89h3.944v-3.89zm0-14.302h-3.944v3.89h3.944v-3.89z"/></g><defs><clipPath id="clip0"><path fill="#fff" d="M0 0h116.408v27.349H0z"/></clipPath></defs></svg>