<svg width="15" height="16" fill="none" xmlns="http://www.w3.org/2000/svg"><path d="M14.063 14.857c0 .633-.42 1.143-.938 1.143H8.437v-5.714h5.626v4.571zM6.563 16H1.875c-.519 0-.938-.51-.938-1.143v-4.571h5.625V16zM.938 4.572H2.17a3.668 3.668 0 01-.296-1.429C1.875 1.411 3.032 0 4.453 0 5.672 0 6.46.761 7.471 2.44 8.48.76 9.27 0 10.488 0c1.421 0 2.578 1.411 2.578 3.143 0 .518-.11.997-.296 1.429h1.293c.518 0 .937.51.937 1.143v2.857c0 .314-.21.571-.469.571H.47c-.26 0-.47-.257-.47-.571V5.715c0-.633.419-1.143.938-1.143zm9.553 0c.648 0 1.172-.64 1.172-1.429 0-.79-.524-1.428-1.172-1.428-.583 0-1.013.117-2.522 2.857h2.522zm-6.038 0h2.523C5.47 1.84 5.05 1.715 4.453 1.715c-.647 0-1.172.639-1.172 1.428 0 .79.525 1.429 1.172 1.429z" fill="#fff"/></svg>