<svg width="68" height="68" viewBox="0 0 68 68" fill="none" xmlns="http://www.w3.org/2000/svg">
<circle cx="34" cy="34" r="34" fill="#005DFF"/>
<path d="M41.7188 48H26.5312C25.1363 48 24 46.865 24 45.4688V33.6562C24 32.26 25.1363 31.125 26.5312 31.125H41.7188C43.1137 31.125 44.25 32.26 44.25 33.6562V45.4688C44.25 46.865 43.1137 48 41.7188 48ZM26.5312 32.8125C26.0665 32.8125 25.6875 33.1905 25.6875 33.6562V45.4688C25.6875 45.9345 26.0665 46.3125 26.5312 46.3125H41.7188C42.1835 46.3125 42.5625 45.9345 42.5625 45.4688V33.6562C42.5625 33.1905 42.1835 32.8125 41.7188 32.8125H26.5312Z" fill="white"/>
<path d="M40.0312 32.8125C39.5655 32.8125 39.1875 32.4345 39.1875 31.9688V27.75C39.1875 24.9588 36.9162 22.6875 34.125 22.6875C31.3338 22.6875 29.0625 24.9588 29.0625 27.75V31.9688C29.0625 32.4345 28.6845 32.8125 28.2188 32.8125C27.753 32.8125 27.375 32.4345 27.375 31.9688V27.75C27.375 24.0273 30.4023 21 34.125 21C37.8477 21 40.875 24.0273 40.875 27.75V31.9688C40.875 32.4345 40.497 32.8125 40.0312 32.8125Z" fill="white"/>
</svg>
