<svg width="68" height="68" fill="none" xmlns="http://www.w3.org/2000/svg"><circle cx="34" cy="34" r="34" fill="#005DFF"/><path d="M41.719 48H26.53A2.534 2.534 0 0124 45.469V33.656a2.534 2.534 0 012.531-2.531H41.72a2.534 2.534 0 012.531 2.531V45.47A2.534 2.534 0 0141.719 48zM26.53 32.812a.845.845 0 00-.843.844V45.47c0 .465.379.843.843.843h15.19a.845.845 0 00.843-.843V33.656a.845.845 0 00-.843-.843H26.53z" fill="#fff"/><path d="M40.031 32.813a.844.844 0 01-.843-.844V27.75a5.069 5.069 0 00-5.063-5.063 5.069 5.069 0 00-5.063 5.063v4.219a.844.844 0 01-1.687 0V27.75a6.757 6.757 0 016.75-6.75 6.757 6.757 0 016.75 6.75v4.219a.844.844 0 01-.844.843z" fill="#fff"/></svg>