<svg width="196" height="30" fill="none" xmlns="http://www.w3.org/2000/svg"><g clip-path="url(#clip0)" fill="#005DFF"><path d="M11.788 26.78H6.157L0 9.52V7.092h3.324L8.99 22.975l5.752-15.883h3.323v2.191L11.788 26.78zM26.166 7.092h-3.943V26.78h3.943V7.092zM44.44 26.78V16.248c0-2.956-2.584-5.266-5.503-5.266H34.71V26.78h-3.943V7.092h8.171c5.012 0 9.446 4.009 9.446 9.156V26.78H44.44zm23.156-15.798H60.93c-2.997 0-5.339 2.548-5.339 5.427v4.17l-3.944-4.17c0-4.943 4.065-9.317 9.283-9.317h6.665v3.89z"/><path d="M67.596 26.78H60.93c-5.218 0-9.283-4.374-9.283-9.317v-1.054l3.944 1.054c0 2.879 2.342 5.427 5.339 5.427h6.665v3.89zm16.394 0L77.128 19h-1.774v7.78H71.41V0h3.944v14.982h1.774l6.897-7.89h2.6v2.684l-5.967 7.21 5.967 7.178v2.616H83.99zm14.94.569c-5.753 0-10.067-4.62-10.067-10.294S93.177 6.803 98.93 6.803c5.752 0 10.023 4.578 10.023 10.252 0 5.673-4.271 10.294-10.023 10.294zm0-16.613c-3.574 0-6.08 2.794-6.08 6.319s2.506 6.361 6.08 6.361c3.573 0 6.035-2.836 6.035-6.361s-2.462-6.32-6.036-6.32zM26.166 0h-3.943v3.89h3.943V0zm90.243 23.416h-3.944v3.89h3.944v-3.89zm0-14.302h-3.944v3.89h3.944v-3.89z"/></g><path d="M131.954 8.415v5.61h-1.178v-3.691l-1.615 2.57h-.146l-1.605-2.56v3.681h-1.178v-5.61h1.234l1.627 2.592 1.627-2.592h1.234zm5.956 0h1.211v5.61h-1.211v-.808c-.457.636-1.111.954-1.964.954-.77 0-1.429-.284-1.975-.853-.546-.576-.819-1.275-.819-2.098 0-.83.273-1.53.819-2.098.546-.569 1.205-.853 1.975-.853.853 0 1.507.314 1.964.943v-.797zm-3.041 4.095c.337.337.759.505 1.268.505.508 0 .931-.168 1.268-.505.336-.344.505-.774.505-1.29s-.169-.942-.505-1.279c-.337-.344-.76-.516-1.268-.516-.509 0-.931.172-1.268.516-.337.337-.505.763-.505 1.28 0 .515.168.945.505 1.29zm8.952-4.24c.771 0 1.429.287 1.975.863.546.569.819 1.264.819 2.087 0 .83-.273 1.53-.819 2.098-.546.569-1.204.853-1.975.853-.852 0-1.507-.314-1.963-.943v3.041h-1.212V8.415h1.212v.808c.456-.636 1.111-.954 1.963-.954zm-1.458 4.24c.336.337.759.505 1.267.505.509 0 .932-.168 1.268-.505.337-.344.505-.774.505-1.29s-.168-.942-.505-1.279c-.336-.344-.759-.516-1.268-.516-.508 0-.931.172-1.267.516-.337.337-.505.763-.505 1.28 0 .515.168.945.505 1.29zm10.422 1.515h-1.448l-2.3-2.592v2.592h-1.212v-5.61h1.212v2.48l2.177-2.48h1.481l-2.468 2.749 2.558 2.861zm1.432-2.289c.089.426.295.756.617.987.321.225.714.337 1.178.337.643 0 1.125-.232 1.447-.696l.999.584c-.554.815-1.373 1.223-2.457 1.223-.913 0-1.65-.277-2.211-.83-.561-.561-.841-1.268-.841-2.12 0-.839.276-1.538.83-2.1.553-.568 1.264-.852 2.132-.852.823 0 1.496.288 2.019.864.531.576.797 1.276.797 2.098 0 .127-.015.296-.045.505h-4.465zm-.012-.987h3.299c-.082-.457-.273-.8-.572-1.032a1.61 1.61 0 00-1.032-.348c-.449 0-.823.123-1.122.37-.3.247-.49.583-.573 1.01zm9.767-2.334v1.167h-1.829v4.443h-1.211V9.582h-1.84V8.415h4.88zm5.925 0v5.61h-1.211V9.56h-2.57v4.466h-1.212v-5.61h4.993zm6.253 0v5.61h-1.211V9.582h-1.874v2.087c0 .89-.195 1.522-.583 1.896-.389.374-.943.527-1.661.46v-1.133c.344.06.602-.011.774-.213.172-.202.258-.558.258-1.066V8.415h4.297zm2.478 3.321c.09.426.296.756.618.987.321.225.714.337 1.178.337.643 0 1.125-.232 1.447-.696l.999.584c-.554.815-1.373 1.223-2.458 1.223-.912 0-1.649-.277-2.21-.83-.561-.561-.841-1.268-.841-2.12 0-.839.276-1.538.83-2.1.553-.568 1.264-.852 2.132-.852.822 0 1.496.288 2.019.864.531.576.797 1.276.797 2.098 0 .127-.015.296-.045.505h-4.466zm-.011-.987h3.299c-.082-.457-.273-.8-.572-1.032a1.61 1.61 0 00-1.033-.348c-.448 0-.822.123-1.122.37-.299.247-.489.583-.572 1.01zm6.62-3.119V6.575h3.142V7.63h-3.142zm3.142.785h.931v5.61h-1.189v-3.568l-2.872 3.568h-.932v-5.61h1.19v3.557l2.872-3.557zm5.097 5.755c-.845 0-1.552-.283-2.12-.852-.561-.568-.842-1.268-.842-2.098 0-.838.281-1.537.842-2.098.568-.569 1.275-.853 2.12-.853.546 0 1.044.131 1.493.393.449.262.785.613 1.01 1.055l-1.044.605a1.397 1.397 0 00-.583-.628 1.655 1.655 0 00-.887-.236c-.493 0-.909.169-1.245.505-.329.337-.494.756-.494 1.257 0 .501.165.92.494 1.257.336.336.752.505 1.245.505.329 0 .625-.079.887-.236.269-.157.471-.367.605-.628l1.044.594a2.664 2.664 0 01-1.032 1.066 2.91 2.91 0 01-1.493.393zM128.88 27.495a2.877 2.877 0 01-2.098-.853c-.576-.569-.864-1.268-.864-2.098 0-.83.288-1.53.864-2.098.576-.569 1.275-.853 2.098-.853.83 0 1.53.284 2.098.853.576.568.864 1.268.864 2.098 0 .83-.288 1.53-.864 2.098-.568.569-1.268.853-2.098.853zm-1.245-1.683a1.69 1.69 0 001.245.505 1.69 1.69 0 001.245-.505c.337-.337.505-.76.505-1.268 0-.509-.168-.931-.505-1.268a1.69 1.69 0 00-1.245-.505 1.69 1.69 0 00-1.245.505c-.337.337-.505.76-.505 1.268s.168.931.505 1.268zm10.025 1.537h-1.402l-1.392-1.919-1.402 1.919h-1.414l2.109-2.884-1.997-2.726h1.403l1.29 1.773 1.29-1.773h1.414l-1.997 2.738 2.098 2.872zm4.101-5.756c.771 0 1.429.288 1.975.864.546.568.819 1.264.819 2.087 0 .83-.273 1.53-.819 2.098-.546.569-1.204.853-1.975.853-.852 0-1.507-.314-1.963-.943v3.04h-1.212V21.74h1.212v.808c.456-.636 1.111-.954 1.963-.954zm-1.458 4.241c.336.337.759.505 1.268.505.508 0 .931-.168 1.267-.505.337-.344.505-.774.505-1.29s-.168-.943-.505-1.28c-.336-.343-.759-.515-1.267-.515-.509 0-.932.172-1.268.516-.337.336-.505.763-.505 1.279 0 .516.168.946.505 1.29zm9.906-4.095h1.211v5.61h-1.211v-.808c-.457.636-1.111.954-1.964.954-.77 0-1.429-.285-1.975-.853-.546-.576-.819-1.275-.819-2.098 0-.83.273-1.53.819-2.098.546-.569 1.205-.853 1.975-.853.853 0 1.507.314 1.964.942v-.796zm-3.041 4.095c.337.337.759.505 1.268.505s.931-.168 1.268-.505c.336-.344.505-.774.505-1.29s-.169-.943-.505-1.28c-.337-.343-.759-.515-1.268-.515s-.931.172-1.268.516c-.337.336-.505.763-.505 1.279 0 .516.168.946.505 1.29zm9.558-4.095h1.212v5.61h-1.212v-2.233h-2.569v2.233h-1.212v-5.61h1.212v2.233h2.569v-2.233zm5.176 1.907c.599 0 1.089.172 1.47.516.381.337.572.782.572 1.336 0 .546-.191.99-.572 1.335-.381.344-.871.516-1.47.516h-2.446v-5.61h1.212v1.907h1.234zm2.715-1.907h1.212v5.61h-1.212v-5.61zm-2.704 4.521c.24 0 .438-.07.595-.213a.692.692 0 00.247-.55.671.671 0 00-.247-.55.852.852 0 00-.595-.212h-1.245v1.526h1.245z" fill="#005DFF"/><defs><clipPath id="clip0"><path fill="#fff" d="M0 0h116.408v27.349H0z"/></clipPath></defs></svg>