<svg width="196" height="30" viewBox="0 0 196 30" fill="none" xmlns="http://www.w3.org/2000/svg">
<g clip-path="url(#clip0)">
<path d="M11.788 26.7798H6.15665L0 9.52116V7.09204H3.32373L8.98957 22.9748L14.7415 7.09204H18.0652V9.28335L11.788 26.7798Z" fill="#005DFF"/>
<path d="M26.1664 7.09204H22.2227V26.7798H26.1664V7.09204Z" fill="#005DFF"/>
<path d="M44.4394 26.7798V16.248C44.4394 13.2923 41.8562 10.982 38.9372 10.982H34.7093V26.7798H30.7656V7.09204H38.9372C43.9486 7.09204 48.3831 11.1009 48.3831 16.248V26.7798H44.4394Z" fill="#005DFF"/>
<path d="M67.5955 10.982H60.9308C57.9343 10.982 55.5921 13.5301 55.5921 16.4093V20.5796L51.6484 16.4093C51.6484 11.4662 55.7127 7.09204 60.9308 7.09204H67.5955V10.982Z" fill="#005DFF"/>
<path d="M67.5955 26.7799H60.9308C55.7127 26.7799 51.6484 22.4058 51.6484 17.4626V16.4094L55.5921 17.4626C55.5921 20.3419 57.9343 22.8899 60.9308 22.8899H67.5955V26.7799Z" fill="#005DFF"/>
<path d="M83.9904 26.7798L77.1277 18.9998H75.3539V26.7798H71.4102V0H75.3539V14.9824H77.1277L84.0248 7.09202H86.6253V9.77595L80.658 16.9869L86.6253 24.1638V26.7798H83.9904Z" fill="#005DFF"/>
<path d="M98.9292 27.3488C93.1772 27.3488 88.8633 22.7284 88.8633 17.0548C88.8633 11.3812 93.1772 6.80322 98.9292 6.80322C104.681 6.80322 108.952 11.3812 108.952 17.0548C108.952 22.7284 104.681 27.3488 98.9292 27.3488ZM98.9292 10.7357C95.3557 10.7357 92.85 13.53 92.85 17.0548C92.85 20.5796 95.3557 23.4164 98.9292 23.4164C102.503 23.4164 104.965 20.5796 104.965 17.0548C104.965 13.53 102.503 10.7357 98.9292 10.7357Z" fill="#005DFF"/>
<path d="M26.1664 0H22.2227V3.88999H26.1664V0Z" fill="#005DFF"/>
<path d="M116.409 23.4165H112.465V27.3065H116.409V23.4165Z" fill="#005DFF"/>
<path d="M116.409 9.11353H112.465V13.0035H116.409V9.11353Z" fill="#005DFF"/>
</g>
<path d="M131.954 8.41504V14.0251H130.776V10.3337L129.161 12.9031H129.015L127.41 10.3449V14.0251H126.232V8.41504H127.466L129.093 11.0069L130.72 8.41504H131.954Z" fill="#005DFF"/>
<path d="M137.91 8.41504H139.121V14.0251H137.91V13.2172C137.453 13.853 136.799 14.1709 135.946 14.1709C135.176 14.1709 134.517 13.8867 133.971 13.3182C133.425 12.7422 133.152 12.0429 133.152 11.2201C133.152 10.3898 133.425 9.69039 133.971 9.1219C134.517 8.55342 135.176 8.26918 135.946 8.26918C136.799 8.26918 137.453 8.58334 137.91 9.21166V8.41504ZM134.869 12.5104C135.206 12.847 135.628 13.0153 136.137 13.0153C136.645 13.0153 137.068 12.847 137.405 12.5104C137.741 12.1663 137.91 11.7362 137.91 11.2201C137.91 10.7039 137.741 10.2776 137.405 9.94097C137.068 9.59688 136.645 9.42484 136.137 9.42484C135.628 9.42484 135.206 9.59688 134.869 9.94097C134.532 10.2776 134.364 10.7039 134.364 11.2201C134.364 11.7362 134.532 12.1663 134.869 12.5104Z" fill="#005DFF"/>
<path d="M143.821 8.26918C144.592 8.26918 145.25 8.55716 145.796 9.13312C146.342 9.70161 146.615 10.3972 146.615 11.2201C146.615 12.0503 146.342 12.7497 145.796 13.3182C145.25 13.8867 144.592 14.1709 143.821 14.1709C142.969 14.1709 142.314 13.8568 141.858 13.2284V16.2691H140.646V8.41504H141.858V9.22288C142.314 8.58708 142.969 8.26918 143.821 8.26918ZM142.363 12.5104C142.699 12.847 143.122 13.0153 143.63 13.0153C144.139 13.0153 144.562 12.847 144.898 12.5104C145.235 12.1663 145.403 11.7362 145.403 11.2201C145.403 10.7039 145.235 10.2776 144.898 9.94097C144.562 9.59688 144.139 9.42484 143.63 9.42484C143.122 9.42484 142.699 9.59688 142.363 9.94097C142.026 10.2776 141.858 10.7039 141.858 11.2201C141.858 11.7362 142.026 12.1663 142.363 12.5104Z" fill="#005DFF"/>
<path d="M152.785 14.0251H151.337L149.037 11.4332V14.0251H147.825V8.41504H149.037V10.8947L151.214 8.41504H152.695L150.227 11.164L152.785 14.0251Z" fill="#005DFF"/>
<path d="M154.217 11.7362C154.306 12.1625 154.512 12.4917 154.834 12.7235C155.155 12.9479 155.548 13.0601 156.012 13.0601C156.655 13.0601 157.137 12.8283 157.459 12.3645L158.458 12.9479C157.904 13.7633 157.085 14.1709 156.001 14.1709C155.088 14.1709 154.351 13.8942 153.79 13.3406C153.229 12.7796 152.949 12.0728 152.949 11.2201C152.949 10.3823 153.225 9.68291 153.779 9.1219C154.332 8.55342 155.043 8.26918 155.911 8.26918C156.734 8.26918 157.407 8.55716 157.93 9.13312C158.461 9.70909 158.727 10.4085 158.727 11.2313C158.727 11.3584 158.712 11.5267 158.682 11.7362H154.217ZM154.205 10.7488H157.504C157.422 10.2925 157.231 9.94845 156.932 9.71657C156.64 9.48468 156.296 9.36874 155.9 9.36874C155.451 9.36874 155.077 9.49216 154.778 9.73901C154.478 9.98585 154.288 10.3224 154.205 10.7488Z" fill="#005DFF"/>
<path d="M163.972 8.41504V9.58192H162.143V14.0251H160.932V9.58192H159.092V8.41504H163.972Z" fill="#005DFF"/>
<path d="M169.897 8.41504V14.0251H168.686V9.55948H166.116V14.0251H164.904V8.41504H169.897Z" fill="#005DFF"/>
<path d="M176.15 8.41504V14.0251H174.939V9.58192H173.065V11.6689C173.065 12.559 172.87 13.191 172.482 13.565C172.093 13.939 171.539 14.0924 170.821 14.0251V12.8918C171.165 12.9517 171.423 12.8806 171.595 12.6787C171.767 12.4767 171.853 12.1214 171.853 11.6128V8.41504H176.15Z" fill="#005DFF"/>
<path d="M178.628 11.7362C178.718 12.1625 178.924 12.4917 179.246 12.7235C179.567 12.9479 179.96 13.0601 180.424 13.0601C181.067 13.0601 181.549 12.8283 181.871 12.3645L182.87 12.9479C182.316 13.7633 181.497 14.1709 180.412 14.1709C179.5 14.1709 178.763 13.8942 178.202 13.3406C177.641 12.7796 177.361 12.0728 177.361 11.2201C177.361 10.3823 177.637 9.68291 178.191 9.1219C178.744 8.55342 179.455 8.26918 180.323 8.26918C181.145 8.26918 181.819 8.55716 182.342 9.13312C182.873 9.70909 183.139 10.4085 183.139 11.2313C183.139 11.3584 183.124 11.5267 183.094 11.7362H178.628ZM178.617 10.7488H181.916C181.834 10.2925 181.643 9.94845 181.344 9.71657C181.052 9.48468 180.708 9.36874 180.311 9.36874C179.863 9.36874 179.489 9.49216 179.189 9.73901C178.89 9.98585 178.7 10.3224 178.617 10.7488Z" fill="#005DFF"/>
<path d="M185.237 7.62964V6.57495H188.379V7.62964H185.237ZM188.379 8.41504H189.31V14.0251H188.121V10.4571L185.249 14.0251H184.317V8.41504H185.507V11.9718L188.379 8.41504Z" fill="#005DFF"/>
<path d="M193.476 14.1709C192.631 14.1709 191.924 13.8867 191.356 13.3182C190.795 12.7497 190.514 12.0503 190.514 11.2201C190.514 10.3823 190.795 9.68291 191.356 9.1219C191.924 8.55342 192.631 8.26918 193.476 8.26918C194.022 8.26918 194.52 8.40008 194.969 8.66188C195.418 8.92368 195.754 9.27524 195.979 9.71657L194.935 10.3224C194.808 10.0532 194.613 9.84373 194.352 9.69413C194.097 9.53705 193.802 9.4585 193.465 9.4585C192.972 9.4585 192.556 9.62681 192.22 9.96341C191.891 10.3 191.726 10.7189 191.726 11.2201C191.726 11.7212 191.891 12.1401 192.22 12.4767C192.556 12.8133 192.972 12.9816 193.465 12.9816C193.794 12.9816 194.09 12.9031 194.352 12.746C194.621 12.5889 194.823 12.3795 194.957 12.1177L196.001 12.7123C195.762 13.1611 195.418 13.5164 194.969 13.7782C194.52 14.04 194.022 14.1709 193.476 14.1709Z" fill="#005DFF"/>
<path d="M128.88 27.4947C128.057 27.4947 127.358 27.2105 126.782 26.642C126.206 26.0735 125.918 25.3741 125.918 24.5439C125.918 23.7136 126.206 23.0142 126.782 22.4457C127.358 21.8772 128.057 21.593 128.88 21.593C129.71 21.593 130.41 21.8772 130.978 22.4457C131.554 23.0142 131.842 23.7136 131.842 24.5439C131.842 25.3741 131.554 26.0735 130.978 26.642C130.41 27.2105 129.71 27.4947 128.88 27.4947ZM127.635 25.8117C127.971 26.1483 128.386 26.3166 128.88 26.3166C129.374 26.3166 129.789 26.1483 130.125 25.8117C130.462 25.4751 130.63 25.0525 130.63 24.5439C130.63 24.0352 130.462 23.6126 130.125 23.276C129.789 22.9394 129.374 22.7711 128.88 22.7711C128.386 22.7711 127.971 22.9394 127.635 23.276C127.298 23.6126 127.13 24.0352 127.13 24.5439C127.13 25.0525 127.298 25.4751 127.635 25.8117Z" fill="#005DFF"/>
<path d="M137.66 27.3489H136.258L134.866 25.4302L133.464 27.3489H132.05L134.159 24.4653L132.162 21.7389H133.565L134.855 23.5116L136.145 21.7389H137.559L135.562 24.4765L137.66 27.3489Z" fill="#005DFF"/>
<path d="M141.761 21.593C142.532 21.593 143.19 21.881 143.736 22.4569C144.282 23.0254 144.555 23.7211 144.555 24.5439C144.555 25.3741 144.282 26.0735 143.736 26.642C143.19 27.2105 142.532 27.4947 141.761 27.4947C140.909 27.4947 140.254 27.1806 139.798 26.5523V29.5929H138.586V21.7389H139.798V22.5467C140.254 21.9109 140.909 21.593 141.761 21.593ZM140.303 25.8342C140.639 26.1708 141.062 26.3391 141.571 26.3391C142.079 26.3391 142.502 26.1708 142.838 25.8342C143.175 25.4901 143.343 25.06 143.343 24.5439C143.343 24.0277 143.175 23.6014 142.838 23.2648C142.502 22.9207 142.079 22.7487 141.571 22.7487C141.062 22.7487 140.639 22.9207 140.303 23.2648C139.966 23.6014 139.798 24.0277 139.798 24.5439C139.798 25.06 139.966 25.4901 140.303 25.8342Z" fill="#005DFF"/>
<path d="M150.209 21.7389H151.42V27.3489H150.209V26.541C149.752 27.1768 149.098 27.4947 148.245 27.4947C147.475 27.4947 146.816 27.2105 146.27 26.642C145.724 26.066 145.451 25.3667 145.451 24.5439C145.451 23.7136 145.724 23.0142 146.27 22.4457C146.816 21.8772 147.475 21.593 148.245 21.593C149.098 21.593 149.752 21.9072 150.209 22.5355V21.7389ZM147.168 25.8342C147.505 26.1708 147.927 26.3391 148.436 26.3391C148.945 26.3391 149.367 26.1708 149.704 25.8342C150.04 25.4901 150.209 25.06 150.209 24.5439C150.209 24.0277 150.04 23.6014 149.704 23.2648C149.367 22.9207 148.945 22.7487 148.436 22.7487C147.927 22.7487 147.505 22.9207 147.168 23.2648C146.831 23.6014 146.663 24.0277 146.663 24.5439C146.663 25.06 146.831 25.4901 147.168 25.8342Z" fill="#005DFF"/>
<path d="M156.726 21.7389H157.938V27.3489H156.726V25.1161H154.157V27.3489H152.945V21.7389H154.157V23.9716H156.726V21.7389Z" fill="#005DFF"/>
<path d="M161.902 23.6463C162.501 23.6463 162.991 23.8183 163.372 24.1624C163.753 24.499 163.944 24.944 163.944 25.4976C163.944 26.0436 163.753 26.4887 163.372 26.8328C162.991 27.1768 162.501 27.3489 161.902 27.3489H159.456V21.7389H160.668V23.6463H161.902ZM164.617 21.7389H165.829V27.3489H164.617V21.7389ZM161.913 26.2605C162.153 26.2605 162.351 26.1895 162.508 26.0473C162.673 25.9052 162.755 25.722 162.755 25.4976C162.755 25.2657 162.673 25.0824 162.508 24.9478C162.351 24.8057 162.153 24.7346 161.913 24.7346H160.668V26.2605H161.913Z" fill="#005DFF"/>
<defs>
<clipPath id="clip0">
<rect width="116.408" height="27.3489" fill="white"/>
</clipPath>
</defs>
</svg>
