<svg width="68" height="68" viewBox="0 0 68 68" fill="none" xmlns="http://www.w3.org/2000/svg">
<circle cx="34" cy="34" r="34" fill="#005DFF"/>
<path d="M34.4343 45.8261C35.2027 45.8261 35.8256 45.2032 35.8256 44.4348C35.8256 43.6664 35.2027 43.0435 34.4343 43.0435C33.6659 43.0435 33.043 43.6664 33.043 44.4348C33.043 45.2032 33.6659 45.8261 34.4343 45.8261Z" fill="white"/>
<path d="M32.1441 30.7254L29.3615 27.9428C29.0895 27.6708 28.6498 27.6708 28.3778 27.9428C28.1058 28.2148 28.1058 28.6544 28.3778 28.9264L30.6686 31.2172L28.3778 33.508C28.1058 33.78 28.1058 34.2196 28.3778 34.4916C28.5135 34.6273 28.6916 34.6955 28.8697 34.6955C29.0477 34.6955 29.2258 34.6273 29.3615 34.4916L32.1441 31.709C32.4161 31.437 32.4161 30.9974 32.1441 30.7254Z" fill="white"/>
<path d="M39.9992 33.3042H34.4339C34.0499 33.3042 33.7383 33.6159 33.7383 33.9999C33.7383 34.3839 34.0499 34.6955 34.4339 34.6955H39.9992C40.3832 34.6955 40.6948 34.3839 40.6948 33.9999C40.6948 33.6159 40.3832 33.3042 39.9992 33.3042Z" fill="white"/>
<path d="M40.0004 29.1304H35.8265C35.4425 29.1304 35.1309 29.442 35.1309 29.826C35.1309 30.21 35.4425 30.5217 35.8265 30.5217H40.0004C40.3844 30.5217 40.6961 30.21 40.6961 29.826C40.6961 29.442 40.3844 29.1304 40.0004 29.1304Z" fill="white"/>
<path d="M39.9999 37.4785H28.8695C28.4855 37.4785 28.1738 37.7902 28.1738 38.1742C28.1738 38.5581 28.4855 38.8698 28.8695 38.8698H39.9999C40.3839 38.8698 40.6956 38.5581 40.6956 38.1742C40.6956 37.7902 40.3839 37.4785 39.9999 37.4785Z" fill="white"/>
<path d="M41.3885 18C41.2598 18 27.4783 18 27.4783 18C27.4783 18 27.4783 18 27.4776 18C26.5489 18 25.6758 18.3617 25.0191 19.0184C24.3624 19.6751 24 20.5496 24 21.4783V22.8682C24 22.8689 24 22.8689 24 22.8696C24 22.8703 24 22.8703 24 22.871V46.5217C24 48.4397 25.5603 50 27.4783 50H41.3913C43.3092 50 44.8696 48.4397 44.8696 46.5217V21.4783C44.8696 19.5603 43.3092 18 41.3885 18ZM25.3913 21.4783C25.3913 20.921 25.6083 20.3965 26.0028 20.0028C26.3965 19.609 26.9203 19.3913 27.4776 19.3913H34.4341C39.063 19.3913 40.7346 19.3913 41.3906 19.3377V19.3913C42.5412 19.3913 43.4776 20.3277 43.4776 21.4783V22.1739H25.3913V21.4783ZM43.4783 46.5217C43.4783 47.6723 42.5419 48.6087 41.3913 48.6087H27.4783C26.3277 48.6087 25.3913 47.6723 25.3913 46.5217V23.5652H43.4783V46.5217Z" fill="white"/>
</svg>
