<svg width="68" height="68" fill="none" xmlns="http://www.w3.org/2000/svg"><circle cx="34" cy="34" r="34" fill="#005DFF"/><path d="M34.434 45.826a1.391 1.391 0 100-2.782 1.391 1.391 0 000 2.782zm-2.29-15.101l-2.782-2.782a.695.695 0 10-.984.983l2.29 2.291-2.29 2.291a.695.695 0 10.983.984l2.783-2.783a.695.695 0 000-.984zM40 33.304h-5.566a.696.696 0 000 1.392h5.565a.696.696 0 000-1.392zm0-4.174h-4.173a.696.696 0 000 1.392H40a.696.696 0 000-1.392zm0 8.348H28.87a.696.696 0 000 1.392H40a.696.696 0 000-1.392z" fill="#fff"/><path d="M41.389 18H27.478c-.93 0-1.802.362-2.459 1.018A3.458 3.458 0 0024 21.478v25.043A3.482 3.482 0 0027.478 50h13.913a3.482 3.482 0 003.479-3.478V21.478A3.483 3.483 0 0041.389 18zM25.39 21.478c0-.557.217-1.082.612-1.475a2.072 2.072 0 011.475-.612h6.956c4.629 0 6.3 0 6.957-.053v.053a2.09 2.09 0 012.087 2.087v.696H25.39v-.696zm18.087 25.044a2.09 2.09 0 01-2.087 2.087H27.478a2.09 2.09 0 01-2.087-2.087V23.565h18.087v22.957z" fill="#fff"/></svg>