<svg width="68" height="68" viewBox="0 0 68 68" fill="none" xmlns="http://www.w3.org/2000/svg">
<circle cx="34" cy="34" r="34" fill="#005DFF"/>
<path d="M39.1944 28.7415C38.8883 28.7415 38.5843 28.6015 38.376 28.3328C36.5118 25.9458 33.3723 25.9458 31.5102 28.3328C31.1382 28.8115 30.4665 28.8838 30.0137 28.4818C29.561 28.0821 29.4993 27.3708 29.8735 26.892C32.5603 23.4549 37.3259 23.4549 40.0128 26.892C40.3869 27.3708 40.3252 28.0844 39.8746 28.4818C39.6748 28.6557 39.4346 28.7415 39.1944 28.7415Z" fill="white"/>
<path d="M42.7674 25.199C42.4698 25.199 42.1743 25.0709 41.9697 24.825C39.9649 22.4012 37.3113 21.0663 34.5005 21.0663C31.6898 21.0663 29.0361 22.4012 27.0293 24.825C26.6677 25.2652 26.0146 25.3272 25.5744 24.9614C25.1342 24.5957 25.0742 23.9468 25.438 23.5067C27.8436 20.5994 31.0615 19 34.5005 19C37.9396 19 41.1574 20.5994 43.5631 23.5067C43.9268 23.9468 43.8648 24.5977 43.4267 24.9614C43.2345 25.1205 43.001 25.199 42.7674 25.199Z" fill="white"/>
<path d="M34.9433 39.3713C34.4544 39.3713 34.0576 38.9249 34.0576 38.3749V32.3963C34.0576 31.8463 34.4544 31.3999 34.9433 31.3999C35.4322 31.3999 35.829 31.8463 35.829 32.3963V38.3749C35.829 38.9249 35.4322 39.3713 34.9433 39.3713Z" fill="white"/>
<path d="M34.9431 50C30.5469 50 26.9717 46.3303 26.9717 41.8178C26.9717 39.1483 28.2491 36.6466 30.3894 35.1268C30.8438 34.8036 31.4616 34.9202 31.7765 35.3845C32.0893 35.8488 31.9777 36.487 31.5254 36.8082C29.9211 37.9476 28.9645 39.8193 28.9645 41.8178C28.9645 45.2011 31.6469 47.9545 34.9431 47.9545C38.2393 47.9545 40.9217 45.2011 40.9217 41.8178C40.9217 39.8193 39.9651 37.9476 38.3609 36.8082C37.9085 36.487 37.7949 35.8488 38.1098 35.3845C38.4246 34.9202 39.0424 34.8015 39.4968 35.1268C41.6371 36.6466 42.9145 39.1483 42.9145 41.8178C42.9145 46.3303 39.3394 50 34.9431 50Z" fill="white"/>
</svg>
