<svg width="68" height="68" fill="none" xmlns="http://www.w3.org/2000/svg"><circle cx="34" cy="34" r="34" fill="#005DFF"/><path d="M39.194 28.741c-.306 0-.61-.14-.818-.408-1.864-2.387-5.004-2.387-6.866 0a1.018 1.018 0 01-1.496.149 1.178 1.178 0 01-.14-1.59c2.686-3.437 7.452-3.437 10.139 0a1.18 1.18 0 01-.138 1.59c-.2.174-.44.26-.68.26z" fill="#fff"/><path d="M42.767 25.199c-.297 0-.593-.128-.797-.374-2.005-2.424-4.659-3.759-7.47-3.759-2.81 0-5.464 1.335-7.47 3.759a1.033 1.033 0 11-1.591-1.318C27.843 20.599 31.06 19 34.5 19c3.439 0 6.656 1.6 9.062 4.507a1.035 1.035 0 01-.796 1.692zm-7.824 14.172c-.489 0-.885-.446-.885-.996v-5.979c0-.55.396-.996.885-.996.49 0 .886.446.886.996v5.979c0 .55-.397.996-.886.996z" fill="#fff"/><path d="M34.943 50c-4.396 0-7.971-3.67-7.971-8.182 0-2.67 1.277-5.171 3.417-6.691a.98.98 0 011.387.258 1.041 1.041 0 01-.25 1.423c-1.605 1.14-2.561 3.011-2.561 5.01 0 3.383 2.682 6.137 5.978 6.137s5.979-2.754 5.979-6.137c0-1.999-.957-3.87-2.561-5.01a1.039 1.039 0 01-.251-1.423.978.978 0 011.387-.258c2.14 1.52 3.417 4.021 3.417 6.69 0 4.513-3.575 8.183-7.97 8.183z" fill="#fff"/></svg>