<svg width="68" height="68" viewBox="0 0 68 68" fill="none" xmlns="http://www.w3.org/2000/svg">
<circle cx="34" cy="34" r="34" fill="#005DFF"/>
<path d="M44.59 24.1224L34.2902 21.0325C34.1462 20.9892 33.9924 20.9892 33.8482 21.0325L23.5482 24.1224C23.2228 24.22 23 24.5195 23 24.8592V36.1891C23 37.6627 23.5966 39.1712 24.7731 40.6727C25.6717 41.8195 26.9149 42.971 28.4681 44.0953C31.0774 45.9841 33.6467 47.1427 33.7548 47.1911C33.8548 47.2359 33.962 47.2583 34.0691 47.2583C34.1763 47.2583 34.2835 47.2359 34.3835 47.1911C34.4916 47.1427 37.0608 45.9841 39.6701 44.0953C41.2233 42.971 42.4665 41.8195 43.3651 40.6727C44.5416 39.1713 45.1382 37.6628 45.1382 36.1891V24.8592C45.1382 24.5195 44.9155 24.22 44.59 24.1224ZM43.5997 36.1891C43.5997 38.7971 40.9829 41.2425 38.7877 42.8347C36.8197 44.2622 34.8238 45.2751 34.0692 45.6389C33.3146 45.2751 31.3186 44.2622 29.3506 42.8347C27.1554 41.2425 24.5386 38.7971 24.5386 36.1891V25.4316L34.0691 22.5724L43.5997 25.4316V36.1891Z" fill="white"/>
</svg>
