<svg width="68" height="68" fill="none" xmlns="http://www.w3.org/2000/svg"><circle cx="34" cy="34" r="34" fill="#005DFF"/><path d="M44.59 24.122l-10.3-3.09a.768.768 0 00-.442 0l-10.3 3.09a.77.77 0 00-.548.737v11.33c0 1.474.597 2.982 1.773 4.484.899 1.146 2.142 2.298 3.695 3.422a33.151 33.151 0 005.287 3.096.769.769 0 00.628 0 33.153 33.153 0 005.287-3.096c1.553-1.124 2.797-2.276 3.695-3.422 1.177-1.502 1.773-3.01 1.773-4.484V24.86a.77.77 0 00-.548-.737zM43.6 36.19c0 2.608-2.617 5.053-4.812 6.646-1.968 1.427-3.964 2.44-4.719 2.804-.754-.364-2.75-1.377-4.718-2.804-2.196-1.593-4.812-4.038-4.812-6.646V25.432l9.53-2.86 9.53 2.86v10.757z" fill="#fff"/></svg>