<svg width="40" height="40" fill="none" xmlns="http://www.w3.org/2000/svg"><path d="M.068 25.343A1.99 1.99 0 001 26.558l3.825 2.21v4.404a2.002 2.002 0 002.002 2.002h4.404L13.44 39a2.023 2.023 0 001.736 1c.348 0 .695-.092 1.003-.27l3.82-2.209 3.825 2.21a2.005 2.005 0 002.736-.73l2.209-3.825h4.403a2.003 2.003 0 002.003-2.002V28.77l3.824-2.211a2.002 2.002 0 00.731-2.737L37.52 20l2.211-3.82a2.002 2.002 0 00-.73-2.736l-3.825-2.21V6.829a2.002 2.002 0 00-2.003-2.003H28.77l-2.21-3.822A2.019 2.019 0 0025.346.07a1.988 1.988 0 00-1.52.2L20 2.479 16.176.27a2.002 2.002 0 00-2.735.73L11.23 4.825H6.826a2.003 2.003 0 00-2.002 2.003v4.403L.999 13.44a2.008 2.008 0 00-.73 2.74L2.478 20 .27 23.82a2.02 2.02 0 00-.2 1.523z" fill="#DDE8FF"/></svg>