<svg width="40" height="40" viewBox="0 0 40 40" fill="none" xmlns="http://www.w3.org/2000/svg">
<path d="M0.0680696 25.3426C0.135351 25.5966 0.252274 25.8348 0.412092 26.0434C0.57191 26.252 0.771459 26.4269 0.999224 26.558L4.82396 28.7686V33.1719C4.82396 33.7029 5.03494 34.2123 5.41048 34.5878C5.78602 34.9633 6.29535 35.1743 6.82644 35.1743H11.2299L13.4406 38.9988C13.6179 39.3018 13.871 39.5535 14.1751 39.7291C14.4792 39.9046 14.8237 39.998 15.1748 40C15.5232 40 15.8697 39.9079 16.178 39.7297L19.9988 37.521L23.8235 39.7317C24.2833 39.9968 24.8295 40.0688 25.3423 39.9318C25.8551 39.7948 26.2926 39.46 26.5589 39.0008L28.7676 35.1763H33.1711C33.7022 35.1763 34.2115 34.9653 34.5871 34.5898C34.9626 34.2143 35.1736 33.7049 35.1736 33.1739V28.7706L38.9983 26.56C39.2261 26.4284 39.4258 26.2531 39.5858 26.0443C39.7459 25.8354 39.8632 25.5971 39.9311 25.3429C39.999 25.0887 40.0161 24.8236 39.9814 24.5627C39.9468 24.3019 39.8611 24.0505 39.7292 23.8228L37.5205 20.0002L39.7312 16.1797C39.9969 15.72 40.0692 15.1737 39.9321 14.6607C39.7951 14.1478 39.4599 13.7103 39.0003 13.4444L35.1756 11.2338V6.82856C35.1756 6.2975 34.9646 5.78819 34.5891 5.41267C34.2135 5.03715 33.7042 4.82618 33.1731 4.82618H28.7696L26.5609 1.00364C26.2941 0.544926 25.8575 0.209706 25.3454 0.0705293C25.0914 0.00167925 24.8263 -0.0160741 24.5654 0.0182984C24.3045 0.0526708 24.053 0.138486 23.8255 0.270768L19.9988 2.47939L16.176 0.268765C15.7163 0.00307803 15.17 -0.0691814 14.657 0.0678745C14.1441 0.20493 13.7065 0.540081 13.4406 0.999634L11.2299 4.82418H6.82644C6.29535 4.82418 5.78602 5.03515 5.41048 5.41066C5.03494 5.78618 4.82396 6.2955 4.82396 6.82656V11.2298L0.999224 13.4404C0.53978 13.7074 0.204887 14.1457 0.0678925 14.6591C-0.0691021 15.1725 0.00296781 15.7193 0.268318 16.1797L2.47906 20.0002L0.268318 23.8208C0.00396508 24.2819 -0.0679826 24.8287 0.0680696 25.3426Z" fill="#DDE8FF"/>
</svg>
