<svg width="24" height="24" fill="none" xmlns="http://www.w3.org/2000/svg"><path d="M15.067 9.958c.566-1.73 1.693-4.305-.127-5.642-1.77-1.298-4.434 1.747-5.367 2.9-1.16 1.444-1.802 2.662-1.81 4.56 0 2.515 0 5.04.17 7.55a.99.99 0 00.973.973c1.755 0 3.51-.02 5.266-.049 1.137-.02 2.63.169 3.689-.33 1.745-.823 2.235-2.409 2.913-4.055.678-1.646 2.337-4.414.974-6.104-.758-.943-1.779-1-2.9-1.039-1.574-.039-3.147.042-4.72 0-1.255-.036-1.252 1.911 0 1.947 1.137.032 2.274 0 3.411 0 .748 0 2.71-.381 2.804.72.02.277-.379 1.228-.543 1.672a73.213 73.213 0 01-1.098 2.75c-.444 1.08-.86 2.39-2.256 2.44-2.51.086-5.027.099-7.53.101l.974.974c-.125-1.727-.153-3.461-.166-5.193 0-1.358-.32-3.199.428-4.39a13.662 13.662 0 012.402-2.856c.28-.24.581-.453.901-.637.714-.425.563.167.483.668-.186.858-.436 1.7-.748 2.52-.392 1.198 1.488 1.707 1.877.52zM6 18.29a20.7 20.7 0 01-3.133.052l.973.963c-.14-1.794-.111-3.588-.1-5.385 0-.818 0-1.63-.032-2.446 0-.119.839-.093.903-.096.613-.015.54.226.348-.246.18.441.06 1.202.063 1.672 0 .779 0 1.54-.013 2.31 0 1.382.041 2.758.018 4.14-.02 1.256 1.926 1.256 1.947 0 .034-2.023-.013-4.043 0-6.069 0-1.35.278-3.458-1.506-3.71-1.384-.195-3.474-.093-3.666 1.68-.135 1.223 0 2.521 0 3.754 0 1.467 0 2.932.11 4.396a.997.997 0 00.973.974 20.7 20.7 0 003.134-.052c1.22-.11 1.233-2.06-.018-1.937z" fill="#005DFF"/></svg>