<svg width="20" height="20" viewBox="0 0 20 20" fill="none" xmlns="http://www.w3.org/2000/svg">
<path d="M18.0469 5.54688H13.7891V3.125C13.7891 1.40182 12.3872 0 10.6641 0H3.125C1.40182 0 0 1.40182 0 3.125V16.875C0 18.5982 1.40182 20 3.125 20H10.6641C12.3872 20 13.7891 18.5982 13.7891 16.875C13.7891 16.4435 13.4393 16.0938 13.0078 16.0938C12.5763 16.0938 12.2266 16.4435 12.2266 16.875C12.2266 17.7365 11.5256 18.4375 10.6641 18.4375H3.125C2.26349 18.4375 1.5625 17.7365 1.5625 16.875V3.125C1.5625 2.26349 2.26349 1.5625 3.125 1.5625H10.6641C11.5256 1.5625 12.2266 2.26349 12.2266 3.125V5.54688H10.2344C9.15741 5.54688 8.28125 6.42303 8.28125 7.5V12.6172C8.28125 13.6942 9.15741 14.5703 10.2344 14.5703H18.0469C19.1238 14.5703 20 13.6942 20 12.6172V7.5C20 6.42303 19.1238 5.54688 18.0469 5.54688ZM10.2344 7.10938H18.0469C18.2623 7.10938 18.4375 7.28455 18.4375 7.5V8.47656H9.84375V7.5C9.84375 7.28455 10.0189 7.10938 10.2344 7.10938ZM18.0469 13.0078H10.2344C10.0189 13.0078 9.84375 12.8326 9.84375 12.6172V10.0391H18.4375V12.6172C18.4375 12.8326 18.2623 13.0078 18.0469 13.0078ZM6.875 15.6641C7.30652 15.6641 7.65625 16.0138 7.65625 16.4453C7.65625 16.8768 7.30652 17.2266 6.875 17.2266C6.44348 17.2266 6.09375 16.8768 6.09375 16.4453C6.09375 16.0138 6.44348 15.6641 6.875 15.6641ZM7.65625 4.33594H6.09375C5.66223 4.33594 5.3125 3.98621 5.3125 3.55469C5.3125 3.12317 5.66223 2.77344 6.09375 2.77344H7.65625C8.08777 2.77344 8.4375 3.12317 8.4375 3.55469C8.4375 3.98621 8.08777 4.33594 7.65625 4.33594Z" fill="#005DFF"/>
</svg>
