<svg width="40" height="36" fill="none" xmlns="http://www.w3.org/2000/svg"><path d="M20.342.003C9.298-.186.192 8.614.003 19.658c-.107 6.262 2.684 11.89 7.128 15.633a5.3 5.3 0 01.948-.675l5.968-3.255a2.438 2.438 0 001.27-2.14v-2.445s-1.752-2.095-2.42-5.006a2.007 2.007 0 01-.925-1.684V17.41c0-.589.262-1.115.669-1.483v-3.869s-.795-6.02 7.358-6.02 7.359 6.02 7.359 6.02v3.869c.407.368.668.894.668 1.483v2.676c0 .9-.603 1.657-1.423 1.91a14.702 14.702 0 01-1.986 4.002c-.22.31-.425.573-.605.778v2.507c0 .923.522 1.767 1.347 2.18l6.39 3.194c.384.192.73.434 1.05.704 4.309-3.594 7.093-8.968 7.196-15.02C40.185 9.299 31.386.192 20.342.004z" fill="#EFEFF4"/></svg>