<svg width="40" height="36" viewBox="0 0 40 36" fill="none" xmlns="http://www.w3.org/2000/svg">
<path d="M20.3418 0.00297824C9.29807 -0.185701 0.191659 8.6143 0.00298021 19.6581C-0.10419 25.92 2.68675 31.5479 7.13053 35.2905C7.42109 35.0369 7.73279 34.8045 8.07921 34.6158L14.0468 31.3607C14.8294 30.9335 15.3169 30.1132 15.3169 29.2211V26.7758C15.3169 26.7758 13.5652 24.6807 12.8973 21.7698C12.3434 21.4113 11.972 20.7917 11.972 20.086V17.4098C11.972 16.8211 12.2339 16.2951 12.6407 15.9268V12.0581C12.6407 12.0581 11.846 6.03769 19.9992 6.03769C28.1524 6.03769 27.3577 12.0581 27.3577 12.0581V15.9268C27.7652 16.2951 28.0264 16.8211 28.0264 17.4098V20.086C28.0264 20.9856 27.4226 21.7426 26.603 21.9954C26.1464 23.4151 25.4875 24.7683 24.6166 25.9984C24.3969 26.3086 24.1917 26.5713 24.012 26.7758V29.283C24.012 30.206 24.5336 31.0505 25.3592 31.4626L31.7494 34.6573C32.1328 34.849 32.4792 35.0913 32.7985 35.3607C37.1079 31.7667 39.892 26.3932 39.9954 20.3418C40.1856 9.29807 31.3864 0.191657 20.3418 0.00297824Z" fill="#EFEFF4"/>
</svg>
